<!-- 
	If you find my work useful in any of your projects and want to use it, you are free
	to use, but please appreciate my work and give a reference.

	Author: Dipesh Bajgain
	Email: dipbazz@gmail.com
	Facebook: facebook.com/dipbazz
-->

<svg version="1.1" xmlns="http://www.w3.org/2000/svg" xmlns:xlink="http://www.w3.org/1999/xlink" preserveAspectRatio="xMidYMid meet" viewBox="3.1510019851078823 88.99906262937573 637.5847884826144 322.1037384445946" id="nepal-map">
	<defs>
		<style>
			.states{
				opacity: 1;
				fill: #cccccc;
				fill-opacity: 1;
				stroke-width: 0.6px;
				stroke-opacity: 1;
				stroke: #000000;
			}
		</style>
		<path d="M7.9 214.24L9.43 214.84L10.96 216.03L12.75 217.81L15.73 219.77L18.88 219.77L20.07 221.13C19.9 221.64 19.73 222.07 19.56 222.41C19.39 222.75 19.64 223.03 20.32 223.26L21.94 223.43L23.98 224.54L24.24 226.41L24.77 227.09L26.62 228.53C27.34 229.06 27.79 229.38 27.97 229.51C28.29 229.75 28.72 229.8 29.09 229.64C29.09 229.64 29.09 229.64 29.09 229.64L30.7 229.05L31.55 228.7L34.19 229.9L34.87 230.66L35.47 232.36L36.66 233.3L37.85 234.07C38.45 234.63 38.83 234.99 38.98 235.13C39.07 235.21 39.21 235.15 39.21 235.03C39.21 234.98 39.21 234.86 39.21 234.66L38.96 232.02L38.36 230.15L38.36 229.05C38.08 227.85 38.02 227.12 38.19 226.83C38.36 226.55 38.87 226.24 39.72 225.9L40.91 224.96L42.53 225.13L44.57 225.39L45.17 227.43L47.46 228.88L50.78 229.3L52.4 231.51L52.83 233.3L53.76 234.07L58.44 234.66L59.12 236.19L60.23 236.62L60.48 238.06L61.42 238.32L63.12 238.83L63.72 239.51C64.51 239.93 65.01 240.19 65.21 240.29C65.38 240.38 65.6 240.35 65.74 240.21C65.83 240.12 66.07 239.88 66.44 239.51L67.83 239.17L69.16 239.77L69.33 241.13L69.33 242.23L70.35 242.49L71.03 243.25L71.54 242.49L72.27 242.66L72.48 243.51L73.38 243.77L74.27 243.51L74.69 244.45L75.97 243.94L76.99 243.94L78.01 244.79L78.61 245.38L78.92 246.83L80.39 247.42L81.07 246.83L81.63 245.74L82.39 245.28L82.86 244.79L82.86 243.94L83.88 243.25L86.6 241.81L87.71 240.45L88.82 239.51L89.58 238.32C91.59 236.69 92.84 235.68 93.34 235.27C93.84 234.86 94.3 234.41 94.71 233.92C95.02 233.53 95.82 232.56 97.1 231L98.04 229.3L98.86 227.68L98.52 226.41C98.44 225.82 98.39 225.45 98.37 225.31C98.36 225.2 98.29 225.09 98.2 225.03C97.98 224.88 97.71 224.69 97.55 224.58C97.29 224.41 97.18 224.07 97.3 223.78C97.34 223.69 97.43 223.46 97.58 223.09L97.24 222.41L96.64 221.9L96.42 221.6L95.71 219.77L94.97 218.41L94.46 216.79L94.46 216.03L94.09 214.58L93.58 213.81L92.73 213.22C92.56 213.13 92.45 213.07 92.41 213.04C92.13 212.89 91.79 213.09 91.79 213.41C91.79 213.46 91.79 213.6 91.79 213.81L92.05 214.92L91.54 215.09L90.69 214.92L89.84 214.58C89.74 214.48 89.67 214.41 89.65 214.39C89.51 214.24 89.29 214.21 89.11 214.3C89.04 214.34 88.86 214.43 88.56 214.58C88.16 214.47 87.99 213.84 88.05 212.71C88.11 211.57 87.68 211.21 86.77 211.6C86.49 211.89 86.07 212.34 85.5 212.96C84.93 213.59 84.25 213.45 83.46 212.54L81.84 211.43L80.56 211.01L79.46 210.24L78.92 208.79L78.01 207.52L76.82 207.01L75.37 206.05L75.37 205.39L76.48 204.63L78.78 204.63L80.56 203.6L83.46 204.37L85.33 204.8L87.12 206.16L89.24 207.52L91.79 208.79L93.92 209.05L94.77 208.54C95.57 208.14 96 208.14 96.08 208.54C96.16 208.94 96.54 209.11 97.24 209.05L98.52 207.69L100.9 207.69L102.4 209.05C102.86 209.39 103.23 209.79 103.51 210.24C103.79 210.69 104.42 210.69 105.38 210.24L106.23 209.48L107.25 208.79L108.87 208.79L109.98 208.79L110.83 209.48L112.19 209.9L112.19 211.27L112.19 212.11L112.78 213.47L114.06 213.47L114.23 214.15L114.91 215.09L115.25 215.69L116.1 216.2L116.28 216.79L116.53 217.98C116.7 217.33 116.84 217.7 116.96 219.09C116.96 219.1 118.31 220.78 118.32 220.79C118.49 222.92 118.06 220.88 120.36 220.79C121.9 220.74 122.26 220.17 121.46 219.09L121.12 218.24L119.76 217.05L118.91 215.86L118.32 215.09L118.06 214.24L117.89 213.47L116.96 211.86L116.1 210.5L115 209.73L113.89 208.54L112.41 206.75L111.17 206.16L111.17 204.95L110.4 204.8L109.55 203.77C109.49 203.21 109.27 202.6 108.87 201.95C108.47 201.31 108.56 200.52 109.13 199.61L111.17 197.14L113.47 195.27L116.1 194.33L117.89 193.39L119.34 192.31C119.45 191.44 119.31 191.1 118.91 191.27C118.51 191.44 118.17 191.15 117.89 190.42C117.95 189.96 117.72 189.74 117.21 189.74C116.7 189.74 116.05 189.63 115.25 189.43L114.4 187.61L114.06 185.55L114.4 184.29C114.57 183.27 114.51 182.33 114.23 181.48C113.95 180.63 114 179.86 114.4 179.18L116.1 177.06L118.32 175.27L120.27 174.08L121.72 173.14L124.02 172.55L125.72 172.72L126.21 173.4C126.43 174.31 126.52 174.99 126.46 175.44C126.38 176.12 127.23 176.63 127.99 177.06C128.5 177.34 129.01 177.28 129.52 176.89L131.23 175.78C132.36 175.55 133.15 175.55 133.61 175.78C134.06 176.01 134.32 175.53 134.37 174.33C134.71 173.65 134.83 173.06 134.71 172.55C134.6 172.04 134.97 171.67 135.82 171.44C136.61 171.21 137.1 171.13 137.27 171.19C137.44 171.24 137.64 170.7 137.86 169.57L138.2 167.61L138.63 164.97L137.86 163.78L137.52 162.6L136.25 162.6C136.25 162.6 136.25 162.6 136.25 162.6C135.92 162.36 135.85 161.9 136.1 161.59C136.12 161.56 136.17 161.5 136.25 161.4L137.27 159.7C137.61 158.91 137.81 158.05 137.86 157.15C137.95 155.79 137.61 155.53 137.52 155.27C137.44 155.02 136.25 154.34 135.31 154.34C134.69 154.34 134 154.23 133.27 154L132.08 153.15C131.68 153.26 131.34 152.81 131.06 151.79C130.77 150.77 130.69 149.91 130.8 149.23L131.06 147.53L131.4 145.92L132.08 145.06L133.01 143.75L133.01 141.92C133.1 141.34 133.29 140.86 133.61 140.48C133.8 140.25 133.86 139.85 134.37 139.87C135.56 139.92 136.42 139.61 136.93 138.94L137.52 136.56L138.03 134.94C138.15 133.97 138.2 133.04 138.2 132.13C138.2 131.22 137.72 130.8 136.76 130.85L135.31 130.85L133.61 130.85C132.93 130.74 132.33 130.66 131.82 130.6C131.06 130.51 130.71 129.66 130.46 128.98C130.29 128.53 129.81 128.36 129.01 128.47L125.3 128.64L124.02 128.98L122.4 128.98L120.7 129.15L120.36 129.75L119.43 130.09L118.06 129.92L116.96 129.92L116.28 130.26L116.28 131.03L115.68 131.71L115 132.47C114.12 132.68 113.49 132.65 113.09 132.37C112.71 132.11 112.41 131.69 112.19 131.11L112.02 129.92C111.96 128.64 111.96 127.93 112.02 127.79C112.12 127.58 112.33 127.36 112.41 126.94C112.45 126.71 112.58 126.89 112.59 126.69C112.59 126.54 112.45 125.91 112.59 125.83C113.15 125.55 112.76 124.91 111.4 123.91C110.2 123.66 109.52 123.4 109.35 123.11C109.1 122.69 107.14 122.69 106.97 122.6C106.86 122.54 106.57 122.77 106.12 123.28L104.33 123.11L103.23 122.46L102.21 122.24L101.1 122.09L99.4 121.75L98.72 121.13L98.04 120.81L97.44 120.56L97.1 120.91L95.82 121.13L95.82 121.58L96.42 122.24L96.08 122.86L95.48 123.28L94.97 123.11L94.46 123.71L93.44 123.71L93 123.02C91.96 122.06 91.3 121.87 91 122.46C90.71 123.06 89.49 123.06 87.34 122.46L85.68 122.24L85.68 121.13L84.79 120.91L83.57 120.14L83.57 119.25L84.35 117.81L84.35 116.37L82.58 115.92L82.13 113.48L82.13 112.27L80.8 111.49L80.8 110.27L80.14 109.94L79.58 109.49L79.36 108.72L79.14 108.27C79.24 108.03 79.3 107.88 79.32 107.82C79.46 107.46 79.28 107.06 78.92 106.94C78.92 106.94 78.92 106.94 78.92 106.94L78.25 106.61L78.25 105.95L77.37 105.5L75.48 105.5L73.38 105.5L72.27 105.5L70.49 106.61L68.61 107.83L67.83 108.72C67.54 109.31 67.28 109.83 67.06 110.27C66.72 110.93 65.73 111.16 66.83 112.27C67.94 113.37 67.22 114.15 67.22 114.04C67.22 113.99 66.71 114.21 65.69 114.7C65.26 114.91 64.94 115.31 64.82 115.78C64.79 115.89 64.89 115.51 64.86 115.62C64.75 116.06 64.36 116.37 63.9 116.37C63.77 116.37 63.43 116.37 62.9 116.37L59.46 119.69C58.13 119.84 57.54 120.25 57.69 120.91C57.8 121.41 57.64 122.17 57.21 123.2C57.02 123.64 56.63 123.96 56.15 124.04C56 124.07 55.63 124.13 55.03 124.24C53.92 124.98 53.22 125.64 52.92 126.23C52.62 126.82 52.14 127.19 51.48 127.34C48.08 127.34 46.08 127.34 45.49 127.34C44.61 127.34 43.28 130.22 43.39 131.11C43.46 131.7 42.91 133.18 41.72 135.55C40.61 137.17 39.91 137.91 39.62 137.76C39.32 137.62 38.77 137.8 37.95 138.32C37.76 138.79 37.64 139.08 37.59 139.2C37.35 139.78 36.73 140.1 36.12 139.96C36.07 139.95 35.94 139.92 35.74 139.87L31.64 139.98C31.33 140.2 31.14 140.34 31.06 140.39C30.73 140.62 30.54 140.99 30.54 141.39C30.54 141.64 30.54 142.04 30.54 142.36C30.54 142.52 30.42 142.66 30.26 142.69C30.05 142.72 29.77 142.77 29.58 142.8C29.33 142.84 29.1 142.93 28.88 143.06C28.74 143.15 28.36 143.38 27.76 143.75C27.85 144.03 27.9 144.21 27.92 144.28C28.04 144.66 28.24 145.01 28.52 145.29C28.54 145.3 28.58 145.35 28.65 145.41L29.43 149.07C30.68 149.66 31.5 150.22 31.87 150.73C32.24 151.25 31.98 152.69 31.09 155.06L30.09 156.28L29.43 157.28L27.43 158.16C25.81 158.46 25.33 158.75 25.99 159.05C26.66 159.34 26.91 159.83 26.77 160.49L26.32 161.27L25.66 161.82L24.77 162.6L23.77 162.82L23.44 163.26L23.77 164.26L21.45 163.93L21.45 164.48C22.33 164.92 22.81 165.33 22.89 165.7C22.96 166.07 22.78 166.37 22.33 166.59C20.26 166.66 18.97 166.81 18.45 167.03C17.93 167.25 17.93 167.99 18.45 169.25C19.12 169.69 19.71 170.02 20.23 170.25C20.74 170.47 20.93 170.99 20.78 171.8L21.22 174.57C22.33 175.46 23.07 176.05 23.44 176.34C23.81 176.64 23.92 177.23 23.77 178.12L22.89 179.67L22.33 181.78L22.11 183.66C22.26 184.33 22.33 184.95 22.33 185.55C22.33 186.14 21.89 186.47 21 186.54L20.23 185.88C18.9 185.32 18.23 185.1 18.23 185.21C18.23 185.32 18.23 185.55 18.23 185.88L19.45 186.99L19.78 188.87L20.45 189.43L20.23 190.53L19.01 190.98C18.27 191.79 17.79 192.23 17.57 192.31C17.23 192.42 15.24 193.42 14.79 192.31C14.5 191.57 13.91 191.31 13.02 191.53C12.5 192.27 12.06 192.64 11.69 192.64C11.14 192.64 10.36 193.86 10.14 193.97C9.99 194.04 9.69 194.56 9.25 195.52L9.58 197.3L9.25 198.74L9.58 200.29L9.25 201.07L8.7 201.95C8.62 202.84 8.55 203.17 8.47 202.95C8.4 202.73 7.85 202.88 6.81 203.39L5.92 204.95C5.63 205.54 5.33 205.91 5.04 206.05C4.74 206.2 4.45 206.79 4.15 207.83L4.15 211.27C4.42 212.69 4.6 213.58 4.66 213.93C4.69 214.06 4.8 214.15 4.93 214.15C5.32 214.17 6.31 214.19 7.9 214.24Z" id="province07" class="states"></path>

		<path d="M273.07 183.49C271.87 182.34 271.11 181.62 270.81 181.34C270.59 181.12 270.27 181.04 269.97 181.11C269.79 181.15 269.69 181.18 269.5 181.22C269.25 181.28 268.99 181.18 268.84 180.97C268.68 180.73 268.26 180.12 267.6 179.16C267.6 177.32 267.6 176.17 267.6 175.71C267.6 175.51 267.49 175.34 267.32 175.25C266.94 175.05 266.19 174.66 265.84 174.48C265.59 174.35 265.43 174.09 265.42 173.81C265.39 172.94 265.32 170.81 265.29 169.95C265.28 169.68 265.06 169.46 264.79 169.46C264.5 169.46 263.76 169.46 262.58 169.46C261.06 167.38 260.11 166.08 259.73 165.55C259.59 165.36 259.56 165.11 259.66 164.9C259.7 164.81 259.8 164.58 259.96 164.22L259.28 163.42C256.8 163.42 255.26 163.42 254.64 163.42C254.41 163.42 254.2 163.28 254.11 163.07C253.8 162.32 252.97 160.33 252.65 159.56C252.59 159.41 252.62 159.24 252.73 159.12C253.79 158 254.11 157.42 253.69 157.39C251.79 157.23 251.08 157.17 251.58 157.21C251.12 157.17 250.72 156.89 250.54 156.47C250.47 156.32 250.31 155.94 250.04 155.33C249.45 155.25 249.08 155.21 248.93 155.19C248.48 155.13 248.03 155.29 247.73 155.63C247.68 155.68 247.56 155.81 247.37 156.01C247.02 156.01 246.79 156.01 246.7 156.01C246.12 156.01 245.63 155.6 245.51 155.03C245.46 154.77 245.38 154.37 245.3 153.96C245.27 153.84 245.15 153.76 245.02 153.79C244.41 153.97 242.89 154.4 240.46 155.1L238.75 155.1L236.47 153.39L235.9 151.9L233.73 150.65L229.52 150.88C229.12 150.59 228.87 150.41 228.78 150.34C228.47 150.12 228.34 149.72 228.45 149.36C228.79 148.24 228.73 147.69 228.26 147.69C227.29 147.69 225.4 147.69 224.69 147.69C224.5 147.69 224.31 147.77 224.2 147.93C224.07 148.08 224 148.18 223.9 148.31C223.7 148.57 223.4 148.72 223.08 148.75C222.7 148.77 221.77 148.84 220.28 148.94C219.97 148.78 219.77 148.69 219.7 148.65C219.34 148.47 219.07 148.16 218.93 147.78C218.81 147.44 218.67 147.03 218.55 146.7C218.42 146.32 218.1 146.05 217.71 145.99C217.09 145.9 215.64 145.67 214.97 145.57C214.77 145.54 214.61 145.4 214.55 145.21C214.37 144.68 213.91 143.29 213.72 142.73C213.69 142.63 213.59 142.56 213.48 142.56C212.5 142.61 210.01 142.72 209.1 142.76C208.84 142.77 208.64 142.55 208.68 142.3C208.71 142.13 208.77 141.73 208.88 141.07C208.87 140.09 209.02 139.6 209.32 139.6C209.78 139.6 210.65 139.6 210.98 139.6C211.09 139.6 211.19 139.55 211.26 139.47C211.35 139.37 211.58 139.11 211.95 138.69C211.41 137.78 211.15 137.32 211.15 137.32C210.09 136.49 210.61 136.53 209.32 136.31C208.96 136.25 208.49 136.64 207.99 136.74C206.91 136.95 205.65 137.09 204.86 137.32C204.75 137.35 204.49 137.43 204.08 137.55C203.61 137.08 203.31 136.78 203.19 136.66C202.92 136.39 202.91 135.96 203.16 135.67C203.44 135.36 203.9 134.84 204.2 134.51C204.35 134.34 204.26 134.08 204.04 134.03C203.86 134 203.42 133.92 202.71 133.79C201.86 132.23 201.33 131.26 201.12 130.87C201.02 130.69 200.85 130.57 200.65 130.52C200.4 130.47 199.97 130.37 199.72 130.32C199.52 130.28 199.37 130.13 199.31 129.94C199.18 129.52 198.86 128.45 198.73 128C198.7 127.91 198.64 127.83 198.55 127.79C198.17 127.62 197.42 127.28 197.1 127.14C196.84 127.02 196.52 127.06 196.29 127.25C196.08 127.42 195.56 127.85 194.73 128.54C194.18 128.58 193.84 128.61 193.71 128.62C193.47 128.64 193.23 128.55 193.07 128.37C192.85 128.12 192.3 127.49 191.42 126.49C189.52 125.2 188.23 124.32 187.54 123.86C186.86 123.41 186.09 123.1 185.23 122.95C184.83 123.19 184.58 123.34 184.48 123.4C184.25 123.54 183.95 123.51 183.76 123.33C183.43 123.02 182.6 122.25 181.27 121.01C180.93 120.95 180.72 120.9 180.63 120.89C180.33 120.83 180.02 120.95 179.84 121.2C179.78 121.28 179.77 121.29 179.68 121.42C179.61 121.52 179.48 121.58 179.36 121.57C179.08 121.55 178.75 121.53 178.55 121.51C178.18 121.49 177.85 121.29 177.65 120.98C177.52 120.78 177.21 120.3 176.71 119.53L174.43 119.19L168.84 119.53C168.12 119.05 167.66 118.74 167.48 118.62C167.3 118.5 167.28 118.25 167.43 118.11C167.81 117.75 168.74 116.87 169.14 116.49C169.22 116.42 169.2 116.29 169.1 116.24C168.12 115.73 167.81 115.27 168.16 114.86C169.76 112.96 170.38 112.21 170.03 112.62C170.24 112.38 170.07 112.01 169.75 112.01C169.57 112.01 169.44 112.01 169.17 112.01C168.99 112.01 168.84 111.86 168.84 111.68C168.84 111.29 168.84 110.55 168.84 110.19C168.84 109.92 168.65 109.69 168.39 109.63C167.93 109.54 167.1 109.36 166.67 109.27C166.31 109.2 165.99 108.99 165.77 108.69C165.59 108.43 165.13 107.79 164.4 106.76C163.56 106.27 163.04 105.96 162.84 105.84C162.73 105.78 162.68 105.65 162.71 105.53C162.82 105.19 163.07 104.35 163.48 103C163.75 101.37 163.91 100.35 163.98 99.95C164.03 99.63 163.97 99.31 163.81 99.04C163.65 98.78 163.27 98.12 162.65 97.07C161.74 96.74 161.18 96.54 160.95 96.46C160.83 96.41 160.7 96.46 160.63 96.57C160.4 96.92 159.84 97.79 159.61 98.14C159.54 98.25 159.41 98.3 159.29 98.26C157.81 97.85 156.92 97.75 156.61 97.98C155.26 98.97 154.71 99.37 154.96 99.19C154.74 99.36 154.44 99.36 154.22 99.2C153.61 98.78 152.09 97.72 151.47 97.28C151.27 97.14 151.04 97.07 150.8 97.07C150.01 97.07 148.05 97.07 147.27 97.07C146.99 97.07 146.72 96.97 146.51 96.8C146.2 96.54 145.44 95.91 144.21 94.9L139.77 94.33C137.36 94.12 135.86 93.99 135.26 93.93C134.87 93.9 134.52 93.67 134.32 93.33C134.24 93.19 134.04 92.84 133.72 92.28L131.9 91.71L130.42 91.25L127.11 90.11C126.12 89.89 125.7 90 125.86 90.46C126.01 90.91 125.67 91.44 124.83 92.05C123.66 92.01 122.89 92.01 122.52 92.05C121.95 92.11 121.21 89.43 120.27 92.28C120.02 93.04 120.51 93.68 120.46 94.21C120.4 94.84 120.36 95.26 120.32 95.48C120.29 95.68 120.13 95.83 119.93 95.85C119.52 95.89 118.51 95.98 118.07 96.02C117.95 96.03 117.84 95.97 117.8 95.86C117.71 95.67 117.58 95.36 117.51 95.19C117.43 95.02 117.26 94.9 117.07 94.9C116.63 94.9 116.11 94.9 115.8 94.9C115.21 94.9 114.66 94.64 114.3 94.18C114.19 94.05 113.93 93.72 113.51 93.19L111.83 92.28L109.06 91.71C108.86 91.93 108.73 92.06 108.68 92.11C108.6 92.2 108.61 92.34 108.7 92.42C108.95 92.61 109.58 93.1 110.58 93.88C110.63 94.16 110.66 94.33 110.68 94.4C110.73 94.7 110.59 95 110.32 95.13C110.08 95.25 109.48 95.56 108.52 96.04C108.41 97.44 108.34 98.31 108.31 98.66C108.3 98.8 108.38 98.93 108.51 98.98C108.67 99.05 109.05 99.21 109.66 99.46C109.76 100.09 109.82 100.49 109.85 100.65C109.87 100.83 109.79 101.01 109.63 101.1C109.46 101.21 109.29 101.31 109.14 101.4C108.96 101.51 108.94 101.77 109.12 101.9C109.23 101.99 109.14 101.92 109.24 101.99C109.48 102.18 109.54 102.51 109.39 102.77C109.24 103.02 108.88 103.62 108.29 104.59L107.95 105.73C108.19 106.63 108.33 107.19 108.39 107.41C108.47 107.69 108.33 107.99 108.06 108.12C107.69 108.3 107.24 108.61 106.7 109.04C106 109.61 104.59 110.75 102.48 112.46L100.09 112.35C99.1 112.5 98.49 112.59 98.24 112.62C98.07 112.65 98.01 112.87 98.14 112.98C99.25 113.95 99.78 114.69 99.74 115.2C99.7 115.79 99.61 116.97 99.48 118.73C99.38 119.12 99.31 119.35 99.29 119.45C99.2 119.75 99.37 120.07 99.67 120.17C99.81 120.22 100.18 120.35 100.77 120.56C102.88 121.24 104.2 121.67 104.73 121.85C105.1 121.97 105.52 121.89 105.82 121.64C105.89 121.59 106.06 121.46 106.32 121.24L108.29 121.47L112.37 122.95L113.88 124.32L114.22 126.03L113.08 128.54C113.31 129.91 113.58 130.82 113.88 131.28C114.19 131.73 114.52 131.5 114.88 130.59L115.45 129.22L116.28 129L119.01 128.88L120.12 127.97L120.61 127.86L124.83 127.63C129.01 127.36 131.18 127.36 131.33 127.63C131.94 128.69 132.18 129.11 132.05 128.9C132.17 129.1 132.38 129.24 132.62 129.27C135.9 129.69 137.79 129.87 138.28 129.79C138.82 129.72 139.19 130.1 139.39 130.93L139.77 132.99C139.16 137.55 138.54 140.02 137.91 140.4C137.37 140.72 136.44 141.03 135.12 141.32C134.83 141.38 134.61 141.62 134.58 141.91C134.55 142.29 134.45 143.23 134.29 144.73C133.38 145.19 132.77 146.25 132.47 147.92C132.16 149.6 132.32 150.81 132.92 151.57C132.92 152.11 133.76 152.52 135.43 152.83C137.11 153.13 138.13 153.59 138.51 154.2C139.12 155.49 139.46 156.55 139.54 157.39C139.61 158.18 139.11 159.45 138.03 161.19C137.96 161.3 137.99 161.43 138.1 161.5C138.17 161.54 138.34 161.66 138.63 161.84L139.99 164.34L139.77 168.91L138.63 172.1C138.37 172.48 138.13 172.67 137.91 172.67C137.69 172.67 137.24 172.67 136.57 172.67L136.08 173.24C135.53 174.9 135.18 175.94 135.04 176.36C134.93 176.68 134.64 176.89 134.31 176.89C134.23 176.89 134.03 176.89 133.72 176.89C132.86 176.89 132.32 176.89 132.11 176.89C131.97 176.89 131.84 176.94 131.75 177.03C131.2 177.57 130.75 177.94 130.42 178.14C130.04 178.37 129.16 178.45 127.79 178.37L125.63 176.89L125.06 175.63C124.96 174.95 124.9 174.52 124.87 174.35C124.85 174.18 124.69 174.06 124.51 174.09C124.37 174.11 124.02 174.17 123.46 174.26L120.12 176.09C116.49 178.14 114.98 179.78 115.59 180.99C116.2 182.21 116.2 183.35 115.59 184.41C115.53 185.56 115.49 186.28 115.48 186.56C115.46 186.94 115.57 187.32 115.8 187.62C115.88 187.72 116.08 187.99 116.39 188.4L118.75 188.97C118.8 189.3 118.84 189.5 118.85 189.58C118.88 189.77 119.02 189.91 119.2 189.95C120.04 190.14 120.46 190.42 120.46 190.8C120.46 191.48 121.18 192.48 120.12 193.19C119.42 193.67 118.32 194.5 116.81 195.7L114.22 196.73C113.08 197.57 112.35 198.15 112.03 198.47C111.7 198.79 111.06 199.44 110.09 200.41L110.31 201.78C110.65 202.73 110.86 203.32 110.94 203.56C110.98 203.66 111.06 203.73 111.17 203.75C111.28 203.78 111.57 203.84 112.03 203.94L112.25 204.4L112.71 205.54L113.51 206.22L116.81 209.87L118.41 211.7L119.44 214.78L121.03 216.72L122.52 218.65L123.2 220.36C122.93 220.85 122.77 221.16 122.7 221.28C122.59 221.49 122.37 221.63 122.13 221.64C121.73 221.66 120.71 221.7 120.26 221.73C120.18 221.73 120.11 221.79 120.08 221.87C120.04 222 120.04 222.01 120.02 222.08C119.94 222.35 119.71 222.55 119.43 222.59C119.26 222.61 118.85 222.67 118.18 222.76C118.1 222.73 118.04 222.72 118.02 222.71C117.62 222.6 117.29 222.31 117.12 221.92C117.11 221.88 117.36 222.48 117.36 222.47C117.36 222.47 116.79 220.97 116.79 220.97C116.76 220.89 116.69 220.69 116.59 220.36L115.9 219L115.45 217.86L114.88 216.72L114.08 215.57C113.92 215.42 113.83 215.32 113.79 215.29C113.46 214.96 113.02 214.78 112.56 214.78C112.52 214.78 112.72 214.78 112.57 214.78C112.44 214.78 112.32 214.72 112.23 214.62C112.16 214.53 111.98 214.32 111.68 213.98L111.11 212.5L111.11 211.7C110.96 211.23 110.86 210.93 110.82 210.82C110.79 210.72 110.72 210.65 110.63 210.61C110.32 210.46 109.74 210.19 109.49 210.07C109.21 209.94 108.9 209.93 108.62 210.02C108.45 210.08 108.03 210.22 107.35 210.44L105.75 211.7L103.59 211.7L102.68 210.9L101.88 209.87C101.1 209.21 100.6 208.9 100.39 208.96C100.19 209.02 99.77 209.13 99.14 209.3L98 210.22L96.86 210.22L95.72 209.87L95.26 209.87L93.44 210.22L91.16 209.87L89.22 208.96L85.57 206.45L84.09 205.65L82.15 205.31L80.9 204.97L79.64 205.65C78.63 205.76 78 205.83 77.74 205.85C77.66 205.86 77.64 205.97 77.71 206.01C77.82 206.07 78.08 206.22 78.5 206.45L79.64 207.82C80.08 208.65 80.36 209.17 80.47 209.38C80.53 209.48 80.61 209.56 80.71 209.6C80.95 209.72 81.55 210 82.51 210.44L83.97 211.7C84.36 211.77 84.6 211.82 84.69 211.84C84.95 211.89 85.22 211.8 85.38 211.59C85.41 211.56 85.47 211.48 85.57 211.36L86.14 210.67L87.4 210.44L88.42 210.67C88.88 211.3 89.11 211.72 89.11 211.93C89.11 212.24 89.11 212.8 89.11 213.02C89.11 213.11 89.18 213.18 89.27 213.18C89.42 213.18 89.57 213.18 89.68 213.18C89.9 213.18 90.11 213.25 90.28 213.39C90.37 213.45 90.4 213.48 90.5 213.55C90.59 213.62 90.72 213.57 90.74 213.46C90.78 213.22 90.84 212.86 90.87 212.64C90.91 212.41 91.06 212.21 91.28 212.12C91.37 212.08 91.37 212.08 91.48 212.03C91.64 211.96 91.82 211.93 92 211.93C92.11 211.93 92.4 211.93 92.87 211.93L94.47 213.18L95.26 214.43L95.72 216.14L96.29 218.43L97.32 220.71L98.23 221.73C98.53 222.18 98.71 222.46 98.79 222.57C98.86 222.69 98.88 222.84 98.82 222.97C98.75 223.13 98.63 223.39 98.56 223.55C98.5 223.69 98.53 223.85 98.65 223.95C98.76 224.05 99.04 224.3 99.48 224.7C99.94 226.01 100.24 226.88 100.39 227.32C100.48 227.58 100.68 227.68 100.99 227.62C101.26 227.58 101.54 227.66 101.73 227.86C101.75 227.88 101.8 227.92 101.88 228L102.1 229.03C102.1 229.37 102.1 229.58 102.1 229.66C102.1 229.91 102.24 230.13 102.45 230.25C102.54 230.3 102.77 230.42 103.13 230.63L104.5 230.85L106.32 231.65L107.81 232.45L109.06 233.82L111.11 235.87L113.51 236.67L116.59 238.72L117.73 239.75L118.75 239.98C119.01 240.44 119.17 240.73 119.23 240.84C119.29 240.94 119.39 241.02 119.5 241.04C119.67 241.08 120.11 241.18 120.81 241.34L123.2 243.06L128.45 247.27L131.18 248.07L133.23 249.55L136.08 250.12L136.88 250.69L137.11 251.61L136.31 253.66C136.1 254.4 135.97 254.87 135.91 255.06C135.88 255.17 135.94 255.3 136.04 255.35C136.29 255.47 136.91 255.78 137.91 256.28L138.94 257.08C139.08 257.41 139.18 257.62 139.21 257.7C139.32 257.95 139.56 258.11 139.83 258.11C140.14 258.11 140.9 258.11 142.13 258.11L143.84 259.13C144.15 259.9 144.34 260.38 144.42 260.58C144.48 260.74 144.63 260.86 144.81 260.89C145.12 260.95 145.9 261.08 147.15 261.3L153.19 265.06C154.12 266.04 154.7 266.66 154.93 266.9C155.07 267.05 155.32 267 155.39 266.81C155.46 266.61 155.64 266.1 155.93 265.29L156.61 264.72L157.29 262.55L157.64 261.87L161.4 260.39L162.65 259.7C163.95 259.63 164.78 259.74 165.16 260.05C165.54 260.35 165.92 260.62 166.3 260.84L167.9 260.39L172.92 260.39L175.65 260.39C176.56 260.39 177.13 260.39 177.36 260.39C177.59 260.39 178.58 261 180.33 262.21L181.92 262.78C182.89 263.58 183.54 264.11 183.86 264.38C184.12 264.59 184.53 264.92 185.11 265.37C185.27 265.48 185.49 265.39 185.52 265.2C185.56 264.92 185.65 264.23 185.8 263.12L187.28 261.87C187.45 261.66 187.56 261.53 187.6 261.48C187.67 261.38 187.65 261.24 187.55 261.18C187.36 261.06 186.89 260.76 186.14 260.27L183.41 256.05C183.08 255.13 182.88 254.56 182.8 254.33C182.75 254.2 182.77 254.05 182.86 253.94C182.77 254.06 183.1 253.62 183.86 252.63C184.05 252.39 184.13 252.04 184.09 251.61L182.49 249.21L181.92 247.27L183.18 246.48L184.32 244.54L185.23 243.63C185.76 241.71 186.14 240.34 186.37 239.52C186.71 238.29 189.88 238.92 191.05 238.72C191.82 238.59 192.05 238.44 191.73 238.27L194.12 236.67L195.95 236.1L197.89 234.5L198.69 234.28C198.85 234.19 198.95 234.14 198.99 234.12C199.24 234 199.24 233.64 198.99 233.52C198.76 233.4 198.19 233.13 197.29 232.68L195.15 232.22L193.67 231.42C192.95 230.37 192.5 229.71 192.31 229.45C192.23 229.33 192.2 229.18 192.23 229.03C192.33 228.46 192.7 228.12 193.33 228C194.05 227.87 194.92 227.98 195.95 228.35L198.23 229.03L200.97 226.86L201.54 225.38C201.28 224.57 201.13 224.07 201.06 223.86C201 223.67 200.84 223.53 200.65 223.49C200.27 223.42 199.77 223.32 199.14 223.21C198.38 223.08 198.08 222.25 198.23 220.71L198.69 219.68L202.33 216.72L203.93 213.37L205.18 212.15L206.1 212.15L206.9 212.95L208.61 213.18L210.09 213.37L213.05 213.71L214.31 215.8L214.65 216.37L216.36 215.57L218.87 214.78L223.32 214.78C225.6 215 227.12 215.16 227.88 215.23C228.64 215.31 229.32 215.5 229.93 215.8L231.3 216.94L236.2 218.2L239.51 218.65L240.08 219C240.86 220.04 241.35 220.69 241.55 220.95C241.7 221.16 241.93 221.29 242.19 221.3C242.88 221.34 244.61 221.45 247.37 221.62C247.73 221.78 247.95 221.88 248.04 221.92C248.57 222.17 249.17 222.24 249.75 222.14C249.87 222.11 250.18 222.05 250.68 221.96L252.39 222.3L256.38 222.53L261.17 221.96L263.57 219.91L265.28 220.36L268.01 219.34C269.08 218.91 269.74 218.65 270.01 218.54C270.17 218.47 270.27 218.3 270.23 218.12C270.15 217.73 270 216.96 269.93 216.59C269.87 216.3 269.87 215.99 269.93 215.7C269.98 215.47 270.1 214.9 270.29 213.98L271.21 213.52L272 211.36L275.65 207.71L276.79 206.22L279.07 203.72C279.76 203.43 280.21 203.24 280.44 203.15C280.67 203.05 280.67 201.68 280.44 199.04L280.9 196.99C281.17 196.76 281.34 196.62 281.41 196.56C281.51 196.48 281.52 196.34 281.45 196.24C281.37 196.14 281.19 195.9 280.9 195.51C280.9 194.83 280.9 194.4 280.9 194.23C280.9 194.04 281.03 193.88 281.21 193.84C281.43 193.79 281.97 193.66 282.84 193.45L284.09 192.54C284.6 192.4 284.92 192.32 285.05 192.28C285.21 192.24 285.3 192.07 285.25 191.9C285.09 191.39 284.77 190.4 284.63 189.95C284.51 189.6 284.17 189.37 283.8 189.4C283.7 189.41 283.46 189.43 283.06 189.46C282.78 189.64 282.61 189.75 282.54 189.79C282.31 189.93 282.02 189.9 281.83 189.71C281.71 189.59 281.4 189.28 280.9 188.78C279.64 188.67 278.85 188.61 278.53 188.58C278.3 188.56 278.1 188.42 278 188.21C277.88 187.94 277.59 187.32 277.44 187.01C277.39 186.9 277.29 186.83 277.18 186.82C276.68 186.77 275.66 186.67 275.23 186.63C274.88 186.59 274.57 186.38 274.41 186.07C274.23 185.72 273.79 184.86 273.07 183.49Z" id="province06" class="states"></path>

		<path d="M107.19 233.21L105.71 232.53L104.68 232.19L103.42 231.84L102.63 231.5C102.15 231.38 101.85 231.31 101.72 231.28C101.44 231.2 101.22 230.98 101.16 230.69C101.13 230.54 101.04 230.16 100.92 229.56C100.85 229.45 100.81 229.38 100.79 229.36C100.66 229.13 100.41 228.99 100.15 228.99C100.08 228.99 100.3 228.99 100.23 228.99C99.96 228.99 99.72 229.17 99.65 229.43C99.62 229.52 99.55 229.76 99.43 230.13L98.29 231.5L96.47 234.24L94.3 236.4C93.1 237.28 92.35 237.82 92.05 238.04C91.88 238.16 91.73 238.31 91.59 238.48C91.39 238.74 90.89 239.37 90.08 240.4L89.29 241.31L87.46 243.32L86.55 244.04L84.27 245.64L83.24 246.55C82.92 247.15 82.72 247.52 82.64 247.66C82.52 247.9 82.48 248.18 82.54 248.45C82.48 248.17 82.56 248.53 82.79 249.52C82.84 249.76 83.11 249.99 83.58 250.2C85.31 250.31 86.39 250.38 86.82 250.41C87.01 250.42 87.19 250.51 87.33 250.64C87.45 250.76 87.52 250.83 87.62 250.93C87.81 251.12 88.07 251.23 88.34 251.23C89.03 251.23 90.84 251.23 91.57 251.23C91.72 251.23 91.86 251.26 91.99 251.33C92.18 251.42 92.65 251.65 93.39 252.03L94.3 253.74C94.56 253.99 94.71 254.15 94.78 254.21C94.91 254.34 94.99 254.53 94.99 254.72C94.99 255.12 94.99 256.12 94.99 257.73L95.21 258.3L98.75 261.6L99.78 262.63L100.92 263.2L101.83 264L102.06 265.14L102.06 268.33C102.14 268.54 102.19 268.67 102.21 268.73C102.26 268.83 102.36 268.9 102.47 268.9C103.12 268.9 104.89 268.9 105.54 268.9C105.63 268.9 105.71 268.83 105.71 268.74C105.71 268.63 105.71 268.34 105.71 267.88C105.7 267.85 105.69 267.83 105.69 267.83C105.49 267.17 105.73 266.46 106.28 266.05C106.28 266.05 106.28 266.05 106.28 266.05L110.15 266.28L111.52 267.88L112.78 269.36C112.82 269.53 112.84 269.63 112.85 269.68C112.88 269.76 112.94 269.84 113.02 269.88C113.26 270 113.67 270.2 113.86 270.3C114.11 270.42 114.27 270.67 114.29 270.94C114.27 270.65 114.33 271.45 114.49 273.35C114.52 273.82 114.7 274.13 115.02 274.26L116.39 274.83L118.44 275.63L125.63 279.73L126.54 280.53L131.1 280.53L132.13 281.44L134.98 284.18L138.28 286.35L139.54 287.26L141.82 287.49L143.53 289.08L145.35 290.45L146.04 290.91L148.2 290.91L148.89 289.54L151.74 286.01L152.42 285.66L159.04 286.01L160.41 286.35L161.2 287.26L163.14 289.54L164.28 290.45L165.88 290.91L167.13 290.45L167.93 290.91L169.19 291.48L170.67 291.71L172.04 293.53L173.97 294.44L176.71 296.38C179.75 298.59 181.58 299.65 182.18 299.57C182.79 299.5 183.25 299.57 183.55 299.8L184.12 300.72L185.72 302.65C187.24 303.72 188.3 304.36 188.91 304.59C189.52 304.82 190.28 305.05 191.19 305.28L193.13 304.59L197.35 304.25L201 303.57L204.53 302.65L206.81 302.31L208.64 302.31L209.66 301.97C210.2 301.74 210.43 301.97 210.35 302.65C210.27 303.34 210.46 303.87 210.92 304.25L211.15 305.85C211.61 306.52 211.9 306.94 212.02 307.1C212.12 307.25 212.17 307.42 212.17 307.6C212.17 307.88 212.17 308.59 212.17 309.72C212.17 310 212.17 310.17 212.17 310.24C212.17 310.57 212.29 310.89 212.5 311.14C212.69 311.36 212.94 311.66 213.13 311.88C213.32 312.1 213.4 312.4 213.35 312.68C213.3 312.95 213.17 313.64 212.97 314.74L212.63 316.56L212.63 318.28C212.86 318.57 213 318.75 213.06 318.83C213.29 319.12 213.65 319.29 214.03 319.26C214.6 319.22 216.04 319.12 218.33 318.96L222.32 318.96C224.91 319.13 226.52 319.23 227.17 319.28C227.42 319.29 227.65 319.42 227.8 319.63C228.07 320.02 228.61 320.79 228.87 321.17C229.06 321.43 229.35 321.61 229.67 321.66C229.33 321.61 230.19 321.73 232.24 322.04C232.76 322.11 233.52 322.11 234.52 322.04L240.68 322.04L247.29 322.38L248.21 323.98L249.8 325.91L251.63 326.26L253.57 328.08L254.14 330.25C254.59 331.77 255.43 332.38 256.64 332.07C258.47 331.62 259.15 332.07 260.18 331.27C260.86 330.74 261.58 329.87 262.35 328.65C262.45 328.14 262.51 327.82 262.54 327.69C262.56 327.58 262.63 327.48 262.73 327.42C262.86 327.34 263.19 327.14 263.71 326.83C264.02 326.68 264.13 326.41 264.06 326.03C263.99 325.72 263.53 325.29 262.68 324.76C262.47 324.63 262.35 324.4 262.35 324.15C262.35 324 262.35 323.78 262.35 323.59C262.35 323.48 262.42 323.38 262.52 323.35C262.63 323.31 262.92 323.22 263.37 323.06C263.52 322.63 263.61 322.35 263.65 322.24C263.69 322.12 263.64 321.99 263.54 321.91C263.41 321.82 263.09 321.6 262.57 321.24C262.57 320.77 262.57 320.47 262.57 320.35C262.57 320.28 262.64 320.22 262.71 320.23C263.36 320.29 264.99 320.43 267.59 320.67L271.81 320.9C276.07 320.9 278.74 320.9 279.8 320.9C280.1 320.9 280.38 320.97 280.64 321.11C281.07 321.34 282.16 321.91 283.9 322.84L289.03 325.46C290.74 326.14 291.88 326.6 292.45 326.83C293.02 327.06 295.03 328.16 298.49 330.13L300.09 330.82L301.57 329.91C302.16 329.26 302.53 328.86 302.68 328.69C302.76 328.61 302.75 328.48 302.66 328.4C302.59 328.34 302.42 328.2 302.14 327.97C301.22 327.97 300.64 327.97 300.41 327.97C300.23 327.97 300.09 327.82 300.09 327.64C300.09 326.96 300.09 325.26 300.09 324.58C300.09 324.35 300.23 324.15 300.44 324.07C300.55 324.03 300.4 324.09 300.47 324.06C300.79 323.94 301 323.64 301 323.3C301 322.95 301 322.07 301 320.67L301 318.96L300.43 317.13L300.09 316.34C299.52 315.98 299.17 315.75 299.03 315.66C298.91 315.59 298.76 315.59 298.64 315.67C298.52 315.76 298.34 315.89 298.22 315.98C298.1 316.06 297.96 316.09 297.82 316.05C297.7 316.01 297.68 316.01 297.59 315.98C297.38 315.92 297.24 315.73 297.24 315.51C297.24 315.06 297.24 314.29 297.24 313.9C297.24 313.52 296.98 313.19 296.62 313.1C296.46 313.06 296.05 312.96 295.41 312.8L294.5 311.66C294.19 311.1 294 310.74 293.92 310.6C293.86 310.48 293.85 310.33 293.91 310.21C294.07 309.88 294.45 309.08 295.07 307.78C295.07 307.38 295.07 307.13 295.07 307.03C295.07 306.94 295.01 306.87 294.92 306.86C294.65 306.83 293.98 306.76 292.9 306.64L289.26 306.64C288.73 306.87 288.41 307.01 288.28 307.06C287.9 307.22 287.46 307.15 287.16 306.87C286.99 306.71 286.94 306.67 286.76 306.51C286.47 306.23 286.32 305.84 286.36 305.44C286.39 305.13 286.44 304.69 286.47 304.34C286.5 304.06 286.42 303.79 286.25 303.57C286.1 303.38 285.73 302.93 285.15 302.2C285.15 302.2 285.15 302.2 285.15 302.2C285.15 301.71 285.57 301.34 286.06 301.4C286.56 301.46 287.82 301.61 289.83 301.86L293.36 301.06L295.07 301.29L296.1 301.86C296.62 301.86 296.95 301.86 297.08 301.86C297.38 301.86 297.64 301.66 297.74 301.38C297.8 301.2 297.9 300.9 297.98 300.66C298.01 300.56 298.11 300.49 298.22 300.49C298.84 300.49 300.52 300.49 301.34 300.49C301.89 300.49 302.39 300.49 302.82 300.49L303.62 300.49C304 300.58 304.23 300.64 304.32 300.66C304.45 300.69 304.59 300.65 304.68 300.55C304.86 300.36 305.14 300.04 305.29 299.88C305.46 299.68 305.7 299.56 305.96 299.53C306.17 299.5 306.68 299.44 307.5 299.35C308.19 299.45 308.62 299.51 308.8 299.53C308.98 299.56 309.16 299.47 309.26 299.32C309.34 299.19 309.44 299.02 309.53 298.89C309.62 298.74 309.69 298.58 309.73 298.41C309.78 298.18 309.91 297.62 310.12 296.72L311.83 293.99C312.21 293.23 312.14 292.7 311.6 292.39C311.07 292.09 310.43 291.74 309.67 291.36L307.5 290.91C305.83 290.91 304.78 290.91 304.36 290.91C304.04 290.91 303.73 290.76 303.53 290.51C303.41 290.36 303.28 290.19 303.13 290.01C303.01 289.86 302.82 289.77 302.63 289.77C302.33 289.77 301.6 289.77 300.43 289.77C299.77 290.24 299.36 290.53 299.2 290.65C298.97 290.81 298.68 290.88 298.4 290.82C298.17 290.77 297.59 290.65 296.67 290.45C295.96 290.36 295.52 290.31 295.35 290.29C295.02 290.25 294.71 290.1 294.47 289.88C294.16 289.58 293.41 288.87 293.05 288.54C292.95 288.45 292.84 288.38 292.71 288.35C292.37 288.27 291.52 288.06 290.17 287.72L288.23 286.92L285.72 286.92C284.92 287.2 284.39 287.39 284.12 287.49C283.99 287.53 283.92 287.62 283.92 287.75C283.9 287.92 283.76 288.06 283.59 288.06C283.26 288.06 283.09 288.06 282.89 288.06C282.31 288.06 281.78 287.75 281.48 287.26C281.45 287.21 281.38 287.1 281.27 286.92L280.02 286.35L278.08 286.01L276.6 285.66L274.43 286.35L272.38 286.01L270.44 286.69L269.41 286.35C268.33 286.2 267.65 286.11 267.38 286.07C267.09 286.03 266.86 285.82 266.8 285.54C266.77 285.41 266.69 285.07 266.56 284.52L268.05 283.16L270.44 281.44L272.04 281.79C272.55 282.04 272.87 282.2 273 282.27C273.26 282.4 273.56 282.4 273.82 282.28C273.96 282.21 274.32 282.05 274.89 281.79L276.94 281.44L278.08 281.1C278.34 280.96 278.5 280.87 278.56 280.84C278.9 280.65 279.11 280.29 279.11 279.91C279.11 279.82 279.11 279.61 279.11 279.28L276.94 277.91C276.42 277.39 276.09 277.06 275.96 276.93C275.86 276.83 275.83 276.69 275.87 276.56C275.96 276.25 276.21 275.49 276.6 274.26L276.6 273.01L275.8 271.87L273.41 271.07L271.81 271.3C270.9 271.41 270.29 271.49 269.98 271.52C269.72 271.56 269.38 271.27 268.96 270.67C268.89 270.56 268.77 270.51 268.64 270.52C268.07 270.58 266.9 270.71 266.41 270.77C266 270.81 265.59 270.68 265.3 270.39C265 270.1 264.24 269.38 263.03 268.22C262.05 267.13 261.43 266.44 261.19 266.17C261.05 266.02 260.86 265.93 260.66 265.92C259.89 265.88 257.94 265.77 254.82 265.59L253.45 265.14C250.66 262.52 248.8 260.77 247.86 259.89C247.23 259.3 246.7 259.31 246.28 259.93C246.08 260.23 245.69 260.31 245.38 260.13C245.31 260.08 245.5 260.2 245.4 260.14C245.17 259.99 244.87 260 244.64 260.16C244.4 260.33 243.88 260.7 243.6 260.9C243.48 260.99 243.34 261.02 243.2 260.99C243.08 260.97 242.77 260.9 242.28 260.81C241.2 260.81 240.53 260.81 240.26 260.81C239.98 260.81 239.75 260.59 239.72 260.32C239.69 259.91 239.61 259.04 239.57 258.6C239.55 258.4 239.47 258.22 239.33 258.08C239.02 257.76 238.26 256.96 237.03 255.67L233.84 254.88C233.04 254.31 232.51 253.93 232.24 253.74C232.1 253.64 231.9 253.43 231.63 253.11C231.29 252.71 230.8 252.48 230.28 252.48C229.97 252.48 229.84 252.48 229.53 252.48C229.04 252.48 228.62 252.16 228.49 251.69C228.38 251.26 228.27 250.85 228.16 250.44C228 249.86 227.57 249.4 227.01 249.2C226.8 249.13 226.72 249.1 226.42 248.99C226.14 248.89 225.92 248.66 225.82 248.37C225.67 247.9 225.4 247.04 225.25 246.6C225.13 246.21 224.84 245.89 224.47 245.73C224.27 245.64 224.73 245.84 224.64 245.81C223.9 245.49 223.34 244.84 223.13 244.05C223.35 244.88 223.27 244.58 222.89 243.13C222.82 242.86 223.06 242.66 223.62 242.52C223.78 242.48 223.87 242.31 223.81 242.16C223.77 242.03 223.65 241.71 223.46 241.19C223.46 240.57 223.46 240.19 223.46 240.03C223.46 239.85 223.6 239.69 223.78 239.66C223.99 239.62 224.17 239.59 224.35 239.56C224.64 239.51 224.88 239.3 224.96 239.01C225 238.84 225.11 238.43 225.29 237.77C225.85 236.71 226.2 236.04 226.34 235.78C226.39 235.67 226.5 235.61 226.62 235.61C226.79 235.61 227.22 235.61 227.91 235.61C229.03 236.2 229.74 236.56 230.02 236.71C230.11 236.76 230.2 236.66 230.16 236.57C229.97 236.18 229.48 235.22 228.71 233.67L230.08 231.5L231.1 230.7L233.84 231.16L236.46 231.04L238.74 230.7C240.03 230.43 240.84 230.27 241.16 230.2C241.35 230.16 241.48 230 241.48 229.81C241.48 229.4 241.48 228.32 241.48 227.87C241.48 227.79 241.53 227.72 241.6 227.69C241.92 227.56 242.5 227.33 242.75 227.23C243.03 227.12 243.22 226.88 243.28 226.6C243.35 226.29 243.51 225.53 243.76 224.32C243.64 223.78 243.56 223.45 243.53 223.31C243.46 223.02 243.23 222.8 242.94 222.74C242.85 222.72 242.63 222.68 242.28 222.61C241.86 222.48 241.59 222.4 241.49 222.37C241.26 222.3 241.06 222.16 240.93 221.96C240.82 221.8 240.55 221.41 240.11 220.78C239.66 220.22 239.38 219.87 239.27 219.73C239.22 219.67 239.16 219.64 239.09 219.63C238.69 219.59 237.7 219.48 236.12 219.3L233.5 218.5L230.65 217.93C229.93 217.33 229.48 216.95 229.31 216.8C229.21 216.72 229.1 216.67 228.98 216.65C228.46 216.58 227.15 216.4 225.06 216.11L221.07 216.11L218.33 216.11L215.94 216.91C215.19 217.22 214.73 217.42 214.54 217.5C214.42 217.55 214.28 217.52 214.2 217.42C213.95 217.09 213.31 216.27 212.29 214.97L209.89 214.28L207.95 214.28L206.24 213.71C206.2 213.65 206.18 213.61 206.17 213.6C205.98 213.31 205.57 213.29 205.35 213.55C205.24 213.68 204.97 214 204.53 214.51L203.51 216.68L202.82 217.82L200.43 219.64L199.52 220.78C199.68 221.38 199.78 221.75 199.82 221.89C199.84 221.98 199.92 222.04 200.01 222.05C200.39 222.1 201.13 222.18 201.45 222.21C201.73 222.25 201.97 222.43 202.07 222.7C202.14 222.88 202.32 223.35 202.6 224.09L203.28 225.23L202.25 227.51L200.09 229.22L198.95 230.13L198.1 230.31L196.05 229.56C194.99 229.4 194.33 229.3 194.06 229.26C193.96 229.25 193.9 229.37 193.97 229.44C194.12 229.61 194.51 230.03 195.14 230.7L197.07 231.16L198.44 231.5L199.86 231.84C201.04 232.88 201.29 233.85 200.61 234.76C199.99 235.58 199.34 235.84 198.65 235.54C198.52 235.48 198.37 235.5 198.26 235.58C198.01 235.78 197.39 236.26 196.39 237.04L194.79 237.77C193.43 238.74 192.51 239.39 192.06 239.71C191.63 240.01 190.18 240.15 187.7 240.12C187.52 240.12 187.36 240.25 187.33 240.44C186.8 243.48 186.33 244.94 185.9 244.8C185.44 244.64 184.99 245.37 184.53 246.96C183.96 247.38 183.6 247.64 183.46 247.74C183.36 247.82 183.33 247.96 183.4 248.06C183.61 248.38 184.14 249.17 184.99 250.43C185.37 252.22 185.29 253.23 184.76 253.46C184.23 253.69 184.02 254.16 184.12 254.88L186.81 259.05C188.03 259.58 188.79 259.91 189.09 260.04C189.28 260.12 189.36 260.34 189.28 260.53C189.14 260.81 188.82 261.51 188.29 262.63C187.65 262.95 187.25 263.16 187.09 263.24C186.92 263.33 186.8 263.5 186.78 263.7C186.72 264.36 186.55 266.19 186.48 266.89C186.48 266.97 186.42 267.05 186.33 267.07C186.21 267.11 186.15 267.13 186.07 267.15C185.85 267.22 185.61 267.18 185.42 267.04C184.88 266.63 183.52 265.62 181.34 264L179.06 263.2L177.01 261.6L172.9 262.01L169.02 261.6L167.13 262.01L165.6 261.79C164.39 260.71 163.44 260.38 162.75 260.81C162.07 261.23 161.23 261.63 160.24 262.01L158.53 262.81L157.96 265.59C157.44 265.88 157.12 266.06 156.99 266.13C156.81 266.22 156.68 266.39 156.64 266.59C156.54 267.02 156.32 267.94 156.23 268.36C156.18 268.56 155.97 268.69 155.76 268.63C156.01 268.7 155.68 268.6 154.77 268.33C154.54 268.26 153.82 267.58 152.6 266.28L150.21 264.75L148.73 263.84L146.33 262.36C145.01 262.19 144.18 262.09 143.85 262.05C143.66 262.03 143.5 261.89 143.44 261.7C143.39 261.5 143.25 261 143.03 260.19L141.82 259.39C140.13 259.39 139.07 259.39 138.65 259.39C138.54 259.39 138.45 259.32 138.42 259.22C138.38 259.07 138.28 258.71 138.12 258.14C136.39 257.07 135.3 256.41 134.87 256.14C134.7 256.04 134.62 255.84 134.67 255.65C134.61 255.86 134.93 254.62 135.61 251.91C135.78 251.24 134.91 250.92 132.99 250.95L130.71 249.36L128.09 248.56L120.56 242.45C119.53 242.31 118.88 242.23 118.62 242.2C118.51 242.18 118.42 242.11 118.39 242.01C118.32 241.81 118.22 241.5 118.16 241.34C118.09 241.15 117.93 241.01 117.74 240.97C117.57 240.94 117.44 240.91 117.29 240.88C117.05 240.83 116.83 240.69 116.69 240.49C116.61 240.39 116.42 240.13 116.12 239.71L112.89 237.61C112.13 237.53 111.65 237.48 111.46 237.46C111.01 237.41 110.59 237.19 110.29 236.84C109.88 236.36 108.84 235.15 107.19 233.21Z" id="province05" class="states"></path>

		<path d="M305.94 321.15C305.84 320.78 305.78 320.55 305.75 320.46C305.66 320.12 305.8 319.76 306.09 319.57C306.2 319.51 306.45 319.35 306.85 319.09C307.24 318.43 307.48 318.01 307.58 317.84C307.62 317.77 307.61 317.69 307.55 317.63C307.32 317.42 306.76 316.92 306.54 316.71C306.45 316.64 306.44 316.52 306.49 316.42C306.57 316.29 306.77 315.96 307.08 315.44C307.57 315 307.87 314.72 308 314.61C308.2 314.43 308.49 314.4 308.72 314.55C308.83 314.62 309.12 314.81 309.59 315.1L312.44 315.44C312.56 315.44 312.63 315.44 312.66 315.44C313.24 315.44 313.78 315.17 314.12 314.7C314.19 314.6 313.97 314.9 314.07 314.77C314.33 314.4 314.76 314.19 315.2 314.19C315.26 314.19 315.4 314.19 315.63 314.19C317.55 314.24 318.75 314.28 319.23 314.29C319.54 314.3 319.84 314.14 320 313.87C320.17 313.61 320.57 312.96 321.22 311.91C322.59 311 324.03 309.86 325.55 308.49C327.07 307.12 329.01 306.32 331.37 306.09L334.1 305.18L337.64 302.79L338.78 302.79C339.68 303.49 340.25 303.93 340.47 304.1C340.69 304.27 340.99 304.29 341.22 304.14C341.73 303.83 342.59 303.3 343.03 303.03C343.49 302.75 343.71 302.21 343.59 301.69C343.54 301.48 343.47 301.17 343.39 300.83C343.36 300.7 343.41 300.57 343.52 300.5C343.72 300.37 344.23 300.03 345.05 299.48C345.94 299.09 346.49 298.85 346.71 298.75C346.79 298.72 346.81 298.62 346.75 298.55C346.7 298.5 346.4 298.22 345.86 297.74C345.57 297.47 344.57 297.67 344.25 297.2C343.42 295.99 343.47 294.94 344.4 294.06C344.67 293.81 345.03 293.67 345.4 293.67C346.56 293.67 349.27 293.67 350.39 293.67C350.87 293.67 351.3 293.35 351.44 292.88C351.46 292.81 351.38 293.1 351.42 292.96C351.5 292.7 351.73 292.52 352 292.52C352.32 292.52 352.94 292.52 353.28 292.52C353.47 292.52 353.64 292.4 353.7 292.22C353.73 292.13 353.82 291.88 353.94 291.5L354.4 290.59L356.57 289.45L360.33 289.45L363.29 291.95C363.5 292.82 363.63 293.36 363.68 293.58C363.72 293.78 363.85 293.95 364.03 294.04C364.54 294.3 365.09 294.53 365.68 294.73C366.42 294.98 367.22 295.54 368.08 295.26C369.65 294.76 370.6 294.22 370.94 293.63C371.01 293.51 371.01 293.36 370.94 293.25C370.8 293.01 370.46 292.43 369.91 291.5C368.76 290.01 368.05 289.08 367.76 288.71C367.67 288.59 367.63 288.46 367.63 288.32C367.63 287.94 367.63 286.98 367.63 285.46C368.11 284.44 368.42 283.8 368.54 283.54C368.76 283.09 369.16 282.76 369.64 282.63C369.71 282.61 369.87 282.56 370.14 282.49L371.16 281.35C371.59 280.71 371.86 280.3 371.97 280.14C372.18 279.83 372.53 279.64 372.91 279.64C373.04 279.64 373.05 279.64 373.23 279.64C373.42 279.64 373.58 279.5 373.6 279.32C373.64 279.04 373.74 278.35 373.9 277.25L375.07 274.05C375.28 272.3 375.72 271.13 376.41 270.52C377.09 269.91 378.08 269.76 379.37 270.06L381.42 271.43C382.03 271.28 382.45 270.97 382.68 270.52C382.91 270.06 383.67 269.68 384.96 269.38L385.3 266.75L385.87 264.82L385.3 263.33C386.29 262.4 387.22 261.54 388.09 260.76C388.78 260.14 389.97 259.99 390.5 259.4C390.86 259 390.67 258.2 390.77 257.63C391.23 255.12 392.48 253.45 394.54 252.62L396.93 252.16C397.55 250.48 397.94 249.42 398.09 249C398.15 248.84 398.13 248.65 398.03 248.51C397.08 247.06 396.63 245.77 396.7 244.63C396.76 243.82 396.97 243.14 397.36 242.61C397.74 242.08 398.33 241.75 398.97 241.69C399.25 241.66 398.95 241.69 399.2 241.66C399.89 241.6 400.46 241.1 400.62 240.43C400.83 239.57 401.08 238.92 401.38 238.48C401.83 237.83 403.01 238.2 403.09 237.56C403.22 236.42 402.99 235.3 402.39 234.2C402.26 233.96 402.29 233.66 402.47 233.45C402.75 233.11 403.44 232.29 403.75 231.91C403.83 231.81 403.84 231.68 403.77 231.57C403.64 231.35 403.44 231.05 403.33 230.88C403.18 230.63 402.93 230.45 402.65 230.38C402.4 230.31 402.03 230.21 401.76 230.14C401.51 230.07 401.28 229.94 401.1 229.76C400.77 229.43 399.95 228.61 398.64 227.3L397.27 227.07C396.8 227.4 396.5 227.6 396.38 227.69C395.81 228.08 395.07 228.1 394.48 227.75C394.33 227.66 394.72 227.89 394.54 227.78C394.07 227.5 393.47 227.58 393.09 227.97C392.47 228.59 390.94 230.16 388.49 232.66C388.27 233.32 388.14 233.74 388.08 233.9C387.98 234.2 387.76 234.45 387.48 234.59C387.27 234.7 386.73 234.97 385.87 235.4C385.65 235.4 385.51 235.4 385.46 235.4C385.03 235.4 384.65 235.11 384.54 234.7C384.51 234.59 384.55 234.75 384.51 234.59C384.44 234.32 384.2 234.14 383.93 234.14C383.81 234.14 383.51 234.14 383.02 234.14L380.4 235.06C379.05 235.56 378.21 235.88 377.87 236C377.74 236.05 377.59 236.05 377.45 235.99C376.63 235.64 375.84 235.23 375.07 234.76C373.98 234.1 372.95 233.02 371.96 232.89C370.21 232.66 368.77 232.28 367.63 231.75C367.43 231.4 367.31 231.18 367.26 231.1C367.14 230.87 366.89 230.72 366.63 230.72C366.33 230.72 365.64 230.72 365.28 230.72C365.19 230.72 365.12 230.65 365.12 230.56C365.12 229.91 365.12 228.63 365.12 228.11C365.12 227.66 364.76 227.3 364.31 227.3C364.11 227.3 364.07 227.3 363.8 227.3C363.48 227.3 363.18 227.16 362.97 226.91C362.35 226.14 360.76 224.18 360.13 223.4C359.97 223.2 359.72 223.08 359.46 223.08C358.63 223.08 356.8 223.08 356.03 223.08C355.57 223.08 355.11 222.93 354.74 222.65C354.67 222.6 354.81 222.71 354.69 222.62C354.5 222.47 354.27 222.4 354.04 222.4C353.48 222.4 352.08 222.4 349.84 222.4C349.61 222.67 349.47 222.84 349.41 222.91C349.33 223.01 349.19 223.03 349.08 222.96C348.23 222.39 345.79 220.76 344.92 220.18C344.86 220.14 344.83 220.07 344.84 220C344.88 219.71 344.95 219.19 344.99 218.95C345.03 218.68 344.94 218.4 344.76 218.2C344.61 218.03 344.39 217.79 344.23 217.61C344.09 217.46 344.01 217.28 343.99 217.08C343.95 216.78 343.87 216.18 343.84 215.88C343.81 215.69 343.66 215.54 343.48 215.52C343.17 215.48 342.58 215.4 342.27 215.37C342.1 215.35 341.97 215.2 341.97 215.03C341.97 214.7 341.97 214.28 341.97 214.01C341.97 213.66 341.68 213.37 341.33 213.37C340.96 213.37 340.03 213.37 338.55 213.37L333.99 212.36L331.71 210.77C330.26 211.22 329.2 211.22 328.52 210.77C327.83 210.31 327.6 209.32 327.82 207.8C329.2 203.24 329.85 200.54 329.77 199.71C329.69 198.87 329.16 198.38 328.17 198.23C327.11 198.53 326.35 198.64 325.89 198.57C325.44 198.49 325.21 198.07 325.21 197.31C325.12 196.6 325.06 196.16 325.04 195.98C325 195.66 325.07 195.34 325.24 195.07C325.33 194.93 325.55 194.57 325.89 194.01C325.89 193.28 325.89 192.83 325.89 192.65C325.89 192.58 325.85 192.51 325.77 192.48C325.5 192.37 325.07 192.21 324.86 192.13C324.58 192.02 324.34 191.79 324.23 191.5C324.14 191.31 323.94 190.81 323.61 190.02L323.41 187.5C323.73 186.49 323.94 185.86 324.02 185.61C324.05 185.51 324.13 185.44 324.22 185.41C324.45 185.34 325 185.16 325.89 184.88C326.06 184.11 326.16 183.62 326.21 183.43C326.22 183.36 326.17 183.29 326.09 183.29C325.92 183.29 325.51 183.29 325.32 183.29C325.25 183.29 325.19 183.33 325.15 183.39C325.07 183.53 325.01 183.64 324.96 183.73C324.83 183.94 324.59 184.06 324.35 184.03C324.19 184.01 323.79 183.95 323.16 183.86C322.44 183.95 321.99 184.01 321.81 184.04C321.58 184.07 321.34 184 321.17 183.84C321.04 183.73 320.85 183.56 320.69 183.43C320.59 183.34 320.46 183.29 320.32 183.29C320.07 183.29 319.77 183.29 319.58 183.29C319.27 183.29 319.01 183.07 318.95 182.77C318.91 182.51 318.82 182.06 318.77 181.76C318.73 181.58 318.81 181.4 318.96 181.3C319.1 181.22 319.16 181.18 319.28 181.11C319.45 181 319.46 180.76 319.31 180.63C319.1 180.46 318.67 180.1 318.43 179.9C318.32 179.81 318.17 179.78 318.04 179.84C318 179.86 317.88 179.9 317.68 179.98L315.63 179.98L314.72 179.52L313.46 179.98C312.78 179.98 312.35 179.98 312.18 179.98C311.99 179.98 311.81 179.87 311.73 179.7C311.66 179.57 311.57 179.39 311.5 179.24C311.45 179.14 311.34 179.07 311.22 179.07C310.89 179.07 310.21 179.07 309.91 179.07C309.72 179.07 309.55 178.94 309.5 178.76C309.45 178.6 309.44 178.56 309.4 178.43C309.31 178.13 309.4 177.79 309.65 177.58C309.73 177.52 309.59 177.64 309.67 177.56C309.83 177.42 309.78 177.16 309.58 177.09C309.26 176.98 308.78 176.82 308.47 176.72C308.18 176.62 307.86 176.71 307.67 176.94C307.51 177.14 307.34 177.35 307.17 177.54C306.98 177.78 306.66 177.87 306.37 177.79C305.99 177.68 305.29 177.48 304.9 177.37C304.61 177.29 304.3 177.29 304.02 177.37C303.86 177.41 303.48 177.52 302.86 177.7C301.63 177.81 300.86 177.87 300.55 177.9C300.36 177.92 300.19 178.04 300.11 178.22C300.03 178.44 299.9 178.74 299.82 178.94C299.73 179.15 299.51 179.28 299.28 179.27C297.8 179.15 296.83 179.16 296.36 179.3C295.83 179.45 295.52 180.17 295.45 181.46C295.18 182.18 295.01 182.63 294.94 182.81C294.83 183.1 294.56 183.29 294.26 183.29C294.02 183.29 293.65 183.29 293.37 183.29C293.17 183.29 292.99 183.39 292.9 183.56C292.84 183.66 292.81 183.72 292.75 183.82C292.66 183.98 292.48 184.06 292.3 184.03C292.19 184 291.91 183.95 291.46 183.86C290.05 183.86 289.17 183.86 288.82 183.86C288.68 183.86 288.55 183.91 288.45 184C288.16 184.27 287.56 184.83 287.3 185.07C287.11 185.25 286.88 185.37 286.62 185.44C286.08 185.58 285.52 185.73 285.15 185.82C284.64 185.95 284.5 186.6 284.9 186.93C284.94 186.96 285.04 187.04 285.19 187.16L285.64 188.99L286.67 190.81L286.9 192.75L285.87 193.32L284.73 194.01L283.48 194.46C283.24 194.58 283.1 194.65 283.04 194.68C282.66 194.87 282.51 195.34 282.73 195.72C282.83 195.9 282.8 195.85 282.92 196.05C283.12 196.4 283.08 196.83 282.83 197.15C282.77 197.23 282.6 197.44 282.34 197.77L282.34 202.56C282.16 203.12 282.05 203.47 282.01 203.61C281.93 203.88 281.73 204.11 281.47 204.23C281.27 204.33 280.76 204.57 279.94 204.95C276.43 208.77 274.23 211.15 273.35 212.1C273.26 212.2 273.2 212.32 273.17 212.45C273.09 212.84 272.9 213.73 272.82 214.1C272.78 214.3 272.65 214.46 272.46 214.54C272.25 214.63 271.81 214.81 271.57 214.91C271.46 214.96 271.4 215.07 271.41 215.18C271.47 215.63 271.62 216.74 271.84 218.52L271.16 219.66L265.35 221.71C264.85 221.71 264.53 221.71 264.41 221.71C264.13 221.71 263.86 221.81 263.64 221.98C263.35 222.2 262.62 222.76 261.47 223.65L257.93 223.65L256 224.11L252.46 223.77L250.41 223.31L249.38 223.77L247.67 223.31C246.53 223.06 245.82 222.91 245.54 222.85C245.29 222.79 245.05 222.98 245.05 223.24C245.05 223.48 245.05 224.07 245.05 225.02L244.14 227.99C243.59 228.23 243.25 228.39 243.11 228.45C242.97 228.52 242.88 228.65 242.87 228.81C242.85 229.23 242.8 230.18 242.79 230.58C242.78 230.81 242.63 231 242.42 231.08C242.18 231.17 241.57 231.39 240.6 231.75L237.75 232.43L234.44 232.66L232.51 232.43L231.14 232.43C230.87 232.63 230.7 232.76 230.63 232.81C230.37 233.01 230.2 233.3 230.17 233.62C230.16 233.73 230.17 233.63 230.15 233.76C230.13 233.98 230.26 234.19 230.48 234.26C230.56 234.29 230.78 234.37 231.14 234.49L232.28 235.85L232.05 237.11C231.61 237.6 231.33 237.91 231.22 238.03C231.1 238.17 230.92 238.23 230.74 238.2C230.61 238.17 230.29 238.11 229.77 238.02L227.72 237.11C227.45 237.11 227.29 237.11 227.22 237.11C227.11 237.11 227.01 237.18 226.97 237.28C226.75 237.89 226.21 239.42 226 240C225.94 240.18 225.77 240.3 225.57 240.3C225.56 240.3 225.51 240.3 225.44 240.3C225.23 240.54 225.11 240.68 225.06 240.74C224.89 240.94 224.91 241.24 225.1 241.41C225.26 241.56 225.4 241.68 225.56 241.82C225.74 241.99 225.75 242.27 225.57 242.44C225.53 242.49 225.4 242.61 225.21 242.81C224.93 243.02 224.76 243.15 224.69 243.2C224.6 243.26 224.59 243.39 224.66 243.47C224.72 243.53 224.86 243.69 225.09 243.95L226.35 245.77C226.63 246.34 226.81 246.69 226.88 246.83C227.2 247.48 227.7 248.02 228.33 248.4C228.43 248.46 228.68 248.61 229.08 248.85C229.26 249.38 229.37 249.7 229.41 249.84C229.64 250.51 230.16 251.04 230.83 251.28C230.95 251.32 231.24 251.42 231.71 251.59L234.22 253.64L238.21 254.78L240.6 257.63C240.76 258.3 240.86 258.71 240.89 258.88C240.99 259.28 241.35 259.57 241.77 259.57C241.97 259.57 242.45 259.57 243.22 259.57L243.79 259.23L244.93 258.77C245.31 258.77 245.54 258.77 245.64 258.77C245.77 258.77 245.9 258.72 246 258.62C246.04 258.58 246.14 258.48 246.3 258.32C246.79 258.17 247.1 258.08 247.23 258.04C247.37 258 247.52 258.01 247.65 258.07C247.79 258.13 248.14 258.29 248.7 258.55C250.44 260.38 251.83 261.76 252.88 262.71C253.74 263.48 254.29 264.22 254.74 264.25C255.75 264.3 257.76 264.42 260.78 264.59L262.04 265.27C264.38 268.05 265.78 269.42 266.26 269.38C266.73 269.34 267.68 269.26 269.11 269.15L270.48 270.06L274.01 269.61L276.63 270.52L278.12 272.57L278 274.62C277.79 275.35 277.65 275.81 277.6 275.99C277.51 276.31 277.69 276.63 278 276.72C278.36 276.83 278.78 277.04 279.26 277.36C279.94 277.82 280.43 278.46 280.74 279.3L280.17 281.35L278.57 282.49L276.63 282.83L274.47 283.52L272.53 283.52L270.48 282.83C269.7 283.61 269.21 284.1 269.01 284.3C268.84 284.47 268.88 284.77 269.11 284.89C269.11 284.89 269.11 284.89 269.11 284.89L270.82 285.23C271.38 285.01 271.73 284.87 271.88 284.82C272.15 284.71 272.46 284.7 272.74 284.77C273.09 284.86 273.69 285.02 274.03 285.11C274.31 285.19 274.6 285.13 274.83 284.97C274.89 284.93 275.03 284.82 275.27 284.66L277.09 284.43L278.57 284.43L281.31 284.89C281.65 285.37 281.86 285.68 281.94 285.8C282.18 286.15 282.6 286.32 283.01 286.25C283.1 286.24 283.34 286.2 283.7 286.14L285.19 285.23L286.67 285.23L289.75 285.91L293.97 287.39C294.43 287.94 294.71 288.28 294.83 288.41C295.08 288.71 295.44 288.9 295.82 288.94C296.34 289 297.41 289.11 297.96 289.17C298.26 289.2 298.56 289.16 298.84 289.06C299.02 288.99 299.49 288.81 300.24 288.53L303.54 288.53C304.18 288.96 304.58 289.22 304.73 289.33C304.85 289.41 304.99 289.45 305.13 289.47C305.72 289.53 307.21 289.67 309.59 289.9L312.32 290.81C312.81 291.58 313.11 292.06 313.23 292.26C313.38 292.5 313.43 292.8 313.36 293.08C313.29 293.32 313.14 293.94 312.89 294.92C312.28 295.88 311.9 296.48 311.75 296.72C311.45 297.19 311.23 297.7 311.09 298.24C311.03 298.5 310.87 299.14 310.61 300.16C310.28 300.43 310.06 300.59 309.98 300.66C309.73 300.85 309.41 300.93 309.1 300.88C308.9 300.84 308.42 300.76 307.65 300.62L306.17 301.19C305.59 301.59 305.23 301.84 305.09 301.94C304.83 302.12 304.51 302.18 304.2 302.11C304.13 302.09 303.95 302.05 303.66 301.99C301.57 301.99 300.26 301.99 299.74 301.99C299.55 301.99 299.36 302.06 299.23 302.2C299.12 302.31 298.85 302.58 298.41 303.02C297.61 303.25 297.11 303.4 296.91 303.46C296.63 303.54 296.34 303.5 296.09 303.34C295.98 303.27 295.69 303.08 295.22 302.79L293.62 302.56L290.32 303.02C289.1 303.02 288.33 303.02 288.03 303.02C287.81 303.02 287.66 303.23 287.74 303.43C287.76 303.5 287.82 303.66 287.92 303.93L288.15 304.61C288.15 304.69 288.15 304.75 288.15 304.77C288.15 305.11 288.45 305.37 288.79 305.32C289.23 305.26 289.74 305.21 290.32 305.17C292.58 305.01 294.67 305.01 295.45 305.18C296.51 305.41 297.01 306.17 296.93 307.46L295.68 310.2L295.79 310.88L296.36 311.23C297.73 311.95 298.41 312.44 298.41 312.71C298.41 313.11 298.41 313.86 298.41 314.14C298.41 314.22 298.49 314.28 298.57 314.26C298.7 314.22 299.03 314.12 299.55 313.96L301.15 315.44L302.29 318.18L302.63 320.46C302.58 321.68 302.55 322.45 302.54 322.75C302.53 323.02 302.69 323.26 302.94 323.34C303.13 323.4 303.27 323.45 303.46 323.51C303.73 323.6 304.03 323.57 304.27 323.42C304.42 323.33 304.78 323.1 305.37 322.74L305.94 321.15Z" id="province04" class="states"></path>

		<path d="M311.09 323.5L313.71 323.56L315.19 322.93C315.82 321.67 316.22 320.88 316.38 320.56C316.42 320.47 316.5 320.4 316.59 320.36C316.97 320.19 317.99 319.74 318.38 319.57C318.45 319.53 318.5 319.46 318.51 319.38C318.56 318.99 318.65 318.13 318.69 317.78C318.71 317.61 318.87 317.49 319.04 317.52C319.3 317.57 319.96 317.71 321.01 317.92C321.98 317.72 322.59 317.6 322.83 317.55C323.05 317.51 323.25 317.7 323.21 317.92C323.16 318.24 323.07 318.76 323.02 319.09C322.97 319.35 323.07 319.62 323.27 319.8C323.36 319.88 323.6 320.09 323.97 320.42L327.28 321.22C327.67 322.15 327.92 322.74 328.02 322.97C328.08 323.12 328.29 323.12 328.35 322.97C328.41 322.82 328.54 322.47 328.76 321.91L331.27 322.25L332.07 323.56C333.07 325.53 333.69 326.76 333.94 327.25C333.98 327.33 334.06 327.39 334.15 327.4C334.59 327.48 335.68 327.66 337.43 327.95L340.73 328.29L342.56 329.09L348.6 329.09L352.02 327.38L352.02 326.35L352.94 324.98L353.62 323.39L354.42 321.91C355.41 321.6 356.66 321.6 358.18 321.91C359.7 322.21 360.84 322.76 361.6 323.56L365.71 323.56C366.39 323.29 366.96 323.08 367.42 322.93C367.87 322.78 369.73 322.99 373 323.56L374.49 324.98L375.85 324.98L378.59 326.35L382.92 328.63L386.46 329.32L388.17 328.98C388.8 329.21 389.2 329.36 389.36 329.42C389.76 329.57 390.21 329.55 390.59 329.35C391.2 329.04 392.21 328.91 393.64 328.98C396.27 329.09 396.49 330.23 397.29 332.4C397.8 333.77 399.8 335.63 403.31 337.97C403.55 338.13 403.83 338.21 404.11 338.21C405.05 338.21 407.46 338.21 408.4 338.21C408.66 338.21 408.9 338.33 409.05 338.54C409.18 338.73 409.3 338.89 409.42 339.06C409.61 339.32 409.9 339.49 410.22 339.53C410.75 339.61 411.3 339.58 411.89 339.47C412.65 339.31 414.24 339.73 416.68 340.72L419.53 341.06L420.44 341.97L422.04 342.66C423.71 343.34 424.81 343.99 425.34 344.6C425.87 345.21 426.48 345.05 427.17 344.14C427.6 344.14 427.88 344.14 427.98 344.14C428.16 344.14 428.31 344.29 428.31 344.46C428.31 344.74 428.31 345.16 428.31 345.41C428.31 345.68 428.46 345.92 428.71 346.03C428.88 346.11 428.98 346.16 429.15 346.24C429.4 346.35 429.69 346.3 429.88 346.1C429.97 346.01 429.92 346.07 430.01 345.98C430.22 345.76 430.54 345.67 430.84 345.75C431.13 345.82 431.84 346.01 432.98 346.31L439.25 346.08L440.51 345.05C441.65 344.37 442.67 343.72 443.59 343.11C444.5 342.51 445.52 342.35 446.66 342.66L452.71 344.6L454.08 344.83L455.1 346.76L456.01 347.22L457.5 345.85L462.4 348.25L462.74 350.18L464 351.55L466.16 355.32C466.39 355.7 467.38 355.89 469.13 355.89C470.88 355.89 473.27 356.04 476.31 356.34L482.58 359.42C485 361.23 486.51 362.36 487.11 362.82C487.37 363.01 487.74 362.93 487.89 362.65C488.13 362.19 488.38 361.83 488.63 361.58C489.45 360.76 490.25 360.53 490.57 360.22C491.25 359.53 493.19 360.22 494.1 359.88C495.01 359.53 495.01 358.39 495.13 357.25C495.24 356.11 494.67 354.86 494.1 353.83C493.72 353.15 493.49 352.66 493.42 352.35C493.65 351.56 493.79 351.07 493.85 350.88C493.91 350.67 493.72 350.48 493.52 350.53C492.69 350.74 491.94 350.82 491.25 350.75C489.99 350.64 490.45 349.84 490.34 349.39C490.27 349.1 490.79 348.67 491.92 348.08C492 348.04 492.06 347.97 492.08 347.88C492.1 347.76 492.17 347.47 492.28 346.99C492.6 346.53 492.8 346.25 492.88 346.14C492.99 345.97 493.21 345.91 493.39 345.98C493.6 346.07 493.84 346.17 494.03 346.25C494.28 346.35 494.56 346.29 494.73 346.08C494.78 346.02 494.92 345.87 495.13 345.62C495.51 344.86 495.66 344.22 495.58 343.69C495.52 343.24 494.8 342.92 493.43 342.73C493.15 342.69 492.93 342.47 492.88 342.19C492.82 341.89 492.71 341.24 492.65 340.89C492.63 340.79 492.55 340.71 492.45 340.7C492.17 340.68 491.46 340.61 490.34 340.49C488.93 339.56 488.05 338.97 487.7 338.74C487.24 338.43 486.63 338.48 486.23 338.86C485.79 339.26 485.42 339.58 485.09 339.81C484.56 340.19 484.1 340.19 483.72 339.81C482.81 339.05 482.24 338.59 482.01 338.44C481.78 338.29 482.36 337.49 483.72 336.05C484.71 335.13 484.94 334.49 484.41 334.11C483.88 333.73 483.46 333 483.15 331.94C483.31 330.57 483.38 329.47 483.38 328.63C483.38 327.38 484.18 326.81 485.09 325.55C485.7 324.72 486 324.03 486 323.5C486.54 322.67 487.26 322.02 488.17 321.56C489.54 320.88 491.71 318.37 492.62 317.46C493.23 316.85 494.06 315.67 495.13 313.92L496.84 312.33C497.9 312.02 498.66 311.49 499.12 310.73C499.57 309.97 500.52 309.52 501.97 309.36C503.46 309.26 504.4 309.2 504.77 309.17C505.08 309.15 505.36 308.96 505.5 308.68C505.59 308.5 505.82 308.04 506.19 307.31C507.17 306.47 507.78 306.02 508.01 305.94C508.21 305.87 508.23 305.2 508.05 303.91C508.02 303.75 508.04 303.58 508.11 303.43C508.46 302.58 508.84 301.64 509.27 300.58C509.72 299.44 509.99 298.42 510.06 297.5L509.61 295.79C509.28 295.46 509.07 295.26 508.99 295.17C508.52 294.71 508.34 294.04 508.51 293.4C509.01 291.52 509.27 289.92 509.27 288.61C509.27 287.01 509 285.99 508.47 285.53C507.93 285.53 507.6 285.53 507.46 285.53C507.05 285.53 506.68 285.25 506.57 284.85C506.5 284.58 506.37 284.24 506.19 283.82C505.88 283.14 504.89 283.63 503.22 285.3C502.69 286.67 502.08 287.55 501.4 287.93C500.71 288.31 499.69 288.38 498.32 288.15C497.18 286.84 496.46 286.02 496.17 285.69C496.09 285.59 495.96 285.53 495.83 285.53C495.26 285.53 493.98 285.53 493.46 285.53C493.16 285.53 492.91 285.33 492.83 285.05C492.79 284.89 492.82 285.01 492.78 284.88C492.69 284.54 492.35 284.33 492 284.4C491.93 284.41 491.76 284.45 491.48 284.51C490.66 284.25 490.15 284.09 489.94 284.03C489.76 283.97 489.63 283.82 489.6 283.64C489.56 283.45 489.51 283.17 489.48 282.98C489.45 282.8 489.31 282.65 489.13 282.61C488.58 282.46 487.61 282.56 486.23 282.91C484.71 283.29 483.88 282.87 483.72 281.65C483.5 280.06 483.38 278.84 483.38 278.01C483.38 277.17 483.12 276.11 482.58 274.81C482.2 273.9 482.2 273.14 482.58 272.53C482.96 271.92 483.08 271.47 482.93 271.16L482.01 269.91C481.39 268.67 481 267.89 480.85 267.58C480.78 267.44 480.58 267.47 480.55 267.62C480.49 267.92 480.33 268.69 480.07 269.91L478.14 270.48C477.2 271.69 476.62 272.45 476.39 272.76C476.07 273.16 475.53 273.3 475.06 273.1C475.06 273.1 475.06 273.1 475.06 273.1C474.41 273.24 474.01 273.33 473.84 273.36C473.64 273.41 473.51 273.62 473.57 273.82C473.76 274.46 473.95 275.13 474.15 275.84C474.35 276.6 474.03 277.41 473.19 278.28C473.08 278.39 473.06 278.55 473.13 278.69C473.18 278.76 473.29 278.95 473.46 279.26C474.22 279.94 474.68 280.63 474.83 281.31C474.98 282 475.48 283.06 476.31 284.51C476.31 285.03 476.31 285.35 476.31 285.48C476.31 285.84 476.05 286.14 475.7 286.18C474.71 286.32 474.04 286.44 473.69 286.56C473.32 286.68 472.9 287.1 472.44 287.81C472.3 288.02 472.05 288.12 471.8 288.08C471.68 288.06 471.4 288.01 470.95 287.93L467.87 287.47L466.16 287.47C464.57 286.33 463.43 285.61 462.74 285.3C462.06 285 462.06 284.43 462.74 283.59C463.48 282.06 463.94 281.1 464.13 280.72C464.19 280.59 464.17 280.45 464.08 280.34C463.43 279.6 462.8 279.08 462.17 278.8C461.49 278.5 460.65 277.78 459.66 276.64C459.28 276.55 459.05 276.5 458.95 276.48C458.77 276.44 458.64 276.28 458.64 276.09C458.64 275.77 458.64 274.96 458.64 273.67C458.47 272.78 458.37 272.22 458.32 272C458.31 271.91 458.24 271.83 458.15 271.8C457.72 271.68 456.72 271.38 456.32 271.26C456.13 271.2 455.99 271.04 455.95 270.85C455.9 270.59 455.77 269.93 455.56 268.88L454.3 266.38C452.33 265.77 450.66 265.16 449.29 264.55C447.92 263.94 446.85 262.04 446.09 258.85L445.3 255.31L444.38 252.81C444.23 251.78 444.13 251.14 444.1 250.88C444.07 250.68 443.88 250.55 443.68 250.57C443.39 250.61 442.97 250.66 442.71 250.69C442.43 250.73 442.22 250.96 442.22 251.25C442.22 251.63 442.22 252.41 442.22 252.83C442.22 253 442.07 253.15 441.9 253.15C441.73 253.15 441.93 253.15 441.86 253.15C441.4 253.15 441 253.46 440.88 253.9C440.83 254.09 440.71 254.56 440.51 255.31L439.6 257.6C438.61 258.81 437.92 259.76 437.54 260.45C437.16 261.13 436.44 261.21 435.38 260.67L434.81 259.31C434.65 258.15 434.55 257.43 434.51 257.14C434.48 256.94 434.32 256.8 434.12 256.8C433.85 256.8 433.16 256.8 432.07 256.8L428.65 254.97L425.34 254.52C423.44 254.44 422.26 254.52 421.81 254.74C421.35 254.97 421.12 255.54 421.12 256.45L418.73 258.85L416.22 258.85L415.42 257.6C414.74 257.37 414.17 257.44 413.71 257.82C413.26 258.2 412.23 258.39 410.63 258.39L409.04 257.6L407.78 257.02C407.25 256.11 406.76 255.43 406.3 254.97C405.84 254.52 405.24 254.21 404.48 254.06L403.82 254.52C403.64 254.76 403.52 254.91 403.48 254.97C403.32 255.18 403.06 255.28 402.8 255.23C402.63 255.2 402.2 255.11 401.51 254.97C400.45 254.74 399.04 254.44 397.29 254.06C395.54 253.68 394.14 254.33 393.07 256L392.39 257.6L392.05 259.65L391.48 260.67L389.42 261.59C388.26 262.64 387.54 263.3 387.25 263.56C387.05 263.74 387.01 264.03 387.13 264.26C387.18 264.34 387.3 264.56 387.49 264.89L387.14 266.15L386.91 267.63L386.57 270.14C386.18 270.53 385.94 270.77 385.84 270.87C385.65 271.06 385.4 271.16 385.13 271.16C384.8 271.16 384.29 271.16 383.98 271.16C383.71 271.16 383.49 271.38 383.49 271.65C383.49 271.67 383.49 271.74 383.49 271.85C383.42 272.23 383.11 272.57 382.58 272.87C382.05 273.18 381.33 273.06 380.42 272.53C379.81 272.23 379.28 271.89 378.82 271.51C378.36 271.13 377.79 271.24 377.11 271.85L376.31 274.13L375.06 277.44C374.83 278.82 374.68 279.68 374.62 280.02C374.54 280.5 374.13 280.86 373.64 280.86C373.51 280.86 373.87 280.86 373.71 280.86C373.27 280.86 372.86 281.08 372.62 281.46C372.38 281.84 371.94 282.53 371.67 282.94C371.5 283.22 371.24 283.42 370.94 283.54C370.78 283.59 370.51 283.69 370.29 283.77C370.2 283.8 370.13 283.87 370.08 283.95C369.95 284.16 369.63 284.69 369.13 285.53C369.13 286.09 369.13 286.44 369.13 286.58C369.13 287.15 369.33 287.71 369.7 288.15C369.7 288.15 369.7 288.15 369.7 288.15L371.18 290.43L372.55 292.37L372.55 293.86L371.75 295.22L369.35 296.14L367.42 296.59L364.79 295.79L362.74 294.88L361.83 293.51C361.66 293.02 361.56 292.71 361.52 292.58C361.43 292.3 361.23 292.06 360.98 291.91C360.8 291.8 360.36 291.54 359.66 291.12L357.95 290.89C357.26 290.89 356.82 290.89 356.65 290.89C356.39 290.89 356.15 291.01 356 291.22C355.91 291.34 355.69 291.65 355.33 292.15C354.9 292.79 354.63 293.19 354.52 293.35C354.31 293.67 353.96 293.86 353.59 293.86C353.39 293.86 353.32 293.86 353.1 293.86C352.79 293.86 352.5 294.03 352.35 294.3C352.28 294.42 352.26 294.46 352.17 294.61C352.08 294.78 351.9 294.88 351.71 294.88C351.57 294.88 351.22 294.88 350.65 294.88L345.52 295.22C345.44 295.54 345.4 295.73 345.38 295.81C345.33 296 345.41 296.21 345.58 296.31C345.7 296.38 345.98 296.55 346.44 296.82C347.23 297.39 347.73 297.75 347.93 297.89C348 297.93 348.04 298 348.05 298.08C348.1 298.31 348.09 298.26 348.1 298.34C348.2 298.9 348.08 299.48 347.75 299.94C347.69 300.03 347.82 299.85 347.71 300.01C347.56 300.22 347.3 300.32 347.05 300.26C346.92 300.24 347.03 300.26 346.92 300.23C346.61 300.17 346.29 300.24 346.05 300.45C345.86 300.61 345.43 300.97 345.17 301.18C345.11 301.23 345.08 301.32 345.09 301.4C345.12 301.54 345.19 301.87 345.3 302.41C345.22 302.81 345.18 303.06 345.16 303.16C345.1 303.48 344.91 303.76 344.64 303.93C344.36 304.11 343.67 304.55 342.56 305.26C341.76 305.58 341.26 305.78 341.06 305.86C340.92 305.91 340.77 305.91 340.64 305.85C340.47 305.77 340.05 305.57 339.37 305.26C338.88 304.89 338.58 304.67 338.45 304.57C338.18 304.37 337.81 304.37 337.54 304.57C337.54 304.57 337.54 304.57 337.54 304.57L335.15 306.17L333.09 307.2L331.27 307.65C330.38 307.84 329.82 307.96 329.6 308C329.27 308.07 328.96 308.2 328.67 308.38C328.56 308.45 328.28 308.62 327.82 308.91L322.72 312.67L321.58 313.92C321.23 314.62 321.01 315.06 320.92 315.23C320.83 315.41 320.66 315.54 320.47 315.58C320.36 315.61 320.08 315.66 319.64 315.75C317.42 315.75 316.03 315.75 315.47 315.75C315.16 315.75 314.87 315.92 314.72 316.19C314.62 316.38 314.63 316.35 314.55 316.5C314.34 316.89 313.95 317.14 313.52 317.18C313.13 317.21 312.82 317.24 312.48 317.27C311.88 317.32 311.3 317.1 310.88 316.68C310.85 316.66 311.02 316.83 310.89 316.7C310.8 316.6 310.67 316.55 310.53 316.55C310.4 316.55 310.05 316.55 309.49 316.55C309.25 316.47 309.1 316.42 309.04 316.4C308.69 316.28 308.37 316.64 308.52 316.97C308.55 317.02 308.6 317.15 308.69 317.34L309.49 317.92C309.4 318.3 309.35 318.54 309.33 318.63C309.21 319.12 308.89 319.52 308.44 319.73C308.24 319.82 308.23 319.83 307.99 319.94C307.64 320.1 307.36 320.4 307.21 320.77C307.21 320.77 307.44 320.2 307.44 320.2C307.29 320.57 307.21 320.97 307.21 321.38C307.21 321.67 307.21 322.03 307.21 322.35C307.21 322.62 307.4 322.85 307.67 322.9C308.13 322.98 309.27 323.18 311.09 323.5Z" id="province03" class="states"></path>

		<path d="M536.2 398.25C536.22 397.95 536.44 397.71 536.72 397.63C536.97 397.56 537 397.56 537.18 397.51C537.66 397.38 538.03 397 538.14 396.52C538.27 395.98 538.44 395.47 538.64 395.02C538.94 394.34 539.48 393.84 540.24 393.54C540.92 393.31 541.6 393.01 542.29 392.63C542.97 392.25 543.35 391.26 543.43 389.66C543.2 388.14 543.09 387 543.09 386.24C543.09 385.61 543.68 384.86 544.87 383.98C545.18 383.75 545.37 383.39 545.37 383C545.37 382.64 545.37 381.87 545.37 381.43C545.37 381.36 545.27 381.32 545.22 381.37C545.18 381.41 545.07 381.51 544.91 381.68C544.42 381.83 544.11 381.92 543.98 381.96C543.85 382 543.71 381.96 543.61 381.86C543.33 381.58 542.62 380.87 541.49 379.74C540.75 379.6 540.29 379.52 540.11 379.48C539.83 379.43 539.58 379.26 539.44 379.01C539.23 378.65 538.84 377.98 538.64 377.62C538.56 377.48 538.34 377.51 538.3 377.67C538.26 377.85 538.14 378.32 537.96 379.06L537.16 380.2C535.64 381.18 534.69 381.91 534.31 382.36C533.95 382.79 533.29 382.94 532.3 382.84C532.21 382.83 532.13 382.75 532.12 382.66C532.08 382.37 531.99 381.8 531.96 381.54C531.93 381.36 531.77 381.22 531.59 381.22C531.24 381.22 531.11 381.22 529.86 381.22C529.02 381.22 527.81 381.87 526.21 383.16C525.91 383.39 525.49 383.01 524.96 382.02C524.42 381.03 523.47 381.03 522.11 382.02C521.35 382.64 520.88 383.03 520.69 383.18C520.38 383.45 519.93 383.48 519.57 383.28C519.41 383.19 519 382.96 518.34 382.59L514.47 382.59C513.9 382.53 513.55 382.49 513.41 382.47C512.8 382.41 512.27 382 512.05 381.43C511.96 381.2 511.74 380.64 511.39 379.74C511.16 378.9 510.72 378.49 510.06 378.49C509.41 378.49 509.24 378.26 509.56 377.8C510.25 376.89 510.78 376.28 511.16 375.98C511.54 375.67 511.27 375.37 510.36 375.07C509.52 375.29 508.88 375.37 508.42 375.29C507.97 375.22 507.78 374.69 507.85 373.7C508.5 373.04 508.91 372.64 509.08 372.47C509.16 372.39 509.17 372.26 509.11 372.16C509.06 372.09 508.95 371.92 508.76 371.64C508.35 371.77 508.09 371.85 507.99 371.88C507.77 371.94 507.52 371.88 507.36 371.71C507.09 371.43 506.42 370.72 505.34 369.59L503.63 367.65C502.42 367.43 501.24 366.93 500.1 366.17C498.96 365.41 498.01 365.52 497.25 366.51C496.81 367.34 496.53 367.86 496.42 368.07C496.3 368.31 496.06 368.45 495.79 368.45C495.18 368.45 493.65 368.45 491.2 368.45C490.75 368.15 490.29 367.88 489.84 367.65C489.15 367.31 487.78 368.45 487.1 369.14C486.64 369.59 486.07 369.55 485.39 369.02L483.56 367.54L480.26 365.94C479.19 364.95 478.62 364.19 478.55 363.66C478.47 363.13 478.93 363.02 479.92 363.32C481.78 364.42 482.94 365.1 483.41 365.38C483.63 365.51 483.92 365.46 484.09 365.27C484.38 364.94 484.81 364.75 485.39 364.69C486.15 364.61 486.34 364.27 485.96 363.66L482.08 360.93C479.57 359.86 477.86 359.06 476.95 358.53C475.58 357.73 473.53 357.39 471.48 357.39C469.43 357.39 469.08 357.96 467.14 357.73C465.85 357.58 465.02 356.82 464.64 355.45L461.67 351.23C461.38 350.31 461.2 349.74 461.13 349.51C461.04 349.23 460.83 349 460.56 348.89C459.98 348.65 458.71 348.12 458.13 347.89C457.86 347.77 457.54 347.84 457.33 348.05C457.13 348.25 457.12 348.26 456.98 348.4C456.57 348.81 455.97 348.95 455.42 348.77C455.39 348.76 455.64 348.84 455.47 348.79C455.35 348.75 455.24 348.68 455.15 348.59C454.98 348.42 454.57 348.01 453.92 347.36L452.66 346.33C451.07 345.87 449.58 345.3 448.22 344.62C446.85 343.94 445.4 343.86 443.88 344.39L441.72 345.87L439.55 347.58C438.11 347.74 436.81 347.85 435.67 347.93C434.6 348 433.1 347.79 431.16 347.31C430.99 347.27 430.81 347.33 430.7 347.46C430.65 347.53 430.52 347.68 430.31 347.93C429.12 347.78 428.37 347.68 428.07 347.65C427.77 347.61 427.53 347.39 427.46 347.11C427.39 346.84 427.33 346.59 427.27 346.34C427.2 346.09 426.88 346 426.7 346.18C426.68 346.2 426.63 346.25 426.55 346.33L425.18 345.76L423.7 344.85L421.76 343.71C421.38 343.63 421.14 343.58 421.04 343.56C420.4 343.44 419.83 343.08 419.44 342.56C419.21 342.26 419.03 342.11 418.91 342.11C418.46 342.11 416.86 341.77 416.06 341.54C415.53 341.39 414.73 341.16 413.67 340.86C412.83 340.86 411.96 340.93 411.04 341.09C410.13 341.24 409.26 341.05 408.42 340.52C408.27 339.98 407.96 339.64 407.51 339.49C406.82 339.26 404.09 339.49 402.98 339.15C401.87 338.8 400.55 337.66 399.53 336.98C398.84 336.52 397.74 335.35 396.22 333.45C395.61 331.77 395.16 330.78 394.85 330.48C394.4 330.02 392.23 330.37 391.32 330.71C390.71 330.94 390.02 331.05 389.26 331.05L387.67 330.48L386.41 330.71L383.45 330.25L380.14 328.54L377.06 327.29C376.72 326.98 376.5 326.78 376.42 326.71C376.11 326.43 375.68 326.33 375.28 326.44C375.2 326.46 375 326.51 374.67 326.6L373.87 326.26C373.35 325.69 373.02 325.33 372.89 325.19C372.71 325 372.48 324.87 372.22 324.82C371.41 324.68 369.44 324.32 368.64 324.18C368.34 324.13 368.02 324.17 367.73 324.3C367.56 324.38 367.14 324.58 366.46 324.89C363.77 324.89 362.09 324.89 361.42 324.89C361.14 324.89 360.86 324.81 360.63 324.65C360.48 324.54 360.1 324.28 359.5 323.87C358.52 323.72 357.79 323.53 357.34 323.3C357.06 323.16 356.65 323.13 356.1 323.2C355.59 323.26 355.16 323.58 354.95 324.04C354.94 324.08 354.89 324.17 354.83 324.32L354.03 326.26L353.8 327.52L353.12 328.77C351.83 329.22 351.03 329.5 350.71 329.61C350.64 329.63 350.65 329.73 350.72 329.74C351.07 329.84 351.94 330.09 353.35 330.48L356.08 330.71C357.59 330.98 358.53 331.15 358.91 331.21C359.14 331.25 359.34 331.4 359.46 331.6C360.54 333.45 363.59 338.67 364.66 340.52C364.79 340.74 364.85 340.99 364.83 341.25C364.76 342.05 364.58 344.05 364.29 347.24L363.61 350.55L361.9 352.37C360.83 353.44 360.91 354.16 362.13 354.54C363.34 354.92 364.86 355.41 366.69 356.02L368.17 356.82C369.39 357.43 370.11 357.51 370.34 357.05C370.56 356.59 371.02 356.4 371.7 356.48C372.01 356.98 372.2 357.3 372.27 357.42C372.33 357.52 372.47 357.54 372.54 357.45C372.76 357.21 373.19 356.75 373.39 356.53C373.55 356.35 373.78 356.26 374.02 356.28C374.32 356.31 375.07 356.37 376.27 356.48L377.75 357.05L377.75 358.53L378.32 359.22L380.48 359.56L381.28 360.36L384.82 360.58C386.49 361.12 387.29 361.8 387.21 362.64C387.16 363.26 387.1 363.71 387.06 364C387.02 364.23 387.21 364.44 387.45 364.42C388.36 364.33 388.81 364.35 388.81 364.46C388.81 364.61 388.96 364.99 389.26 365.6C391.56 366.06 392.99 366.35 393.57 366.46C393.7 366.49 393.78 366.63 393.74 366.76C393.55 367.31 393.16 367.69 392.57 367.88C392.1 368.04 391.78 368.2 391.63 368.35C391.47 368.52 391.49 368.8 391.69 368.94C392 369.15 392.37 369.18 392.8 369.02C393.31 368.83 393.83 368.8 394.35 368.95C394.52 368.99 394.69 368.93 394.8 368.8C395.37 368.09 395.91 367.67 396.45 367.54C397.01 367.4 399.19 367.59 402.98 368.1C403.57 368.18 403.7 368.2 403.37 368.16C403.65 368.19 403.86 368.43 403.86 368.72C403.86 369.05 403.86 369.87 403.86 371.19C403.1 372.25 403.02 373.16 403.63 373.92C404.1 374.51 404.59 375.3 405.09 376.29C405.3 376.69 405.78 376.88 406.2 376.71C406.46 376.61 406.93 376.43 407.3 376.29C407.43 376.23 407.59 376.23 407.73 376.27C410.73 377.21 412.71 377.65 413.67 377.57C414.4 377.52 415.01 377.31 415.51 376.95C415.87 376.69 416.3 376.55 416.74 376.55C417.02 376.55 417.54 376.55 417.91 376.55C418.04 376.55 418.16 376.49 418.24 376.39C419.19 375.19 420.02 374.52 420.74 374.38C421.26 374.28 422.08 374.4 423.2 374.74C423.87 374.94 424.59 374.78 425.1 374.32C425.35 374.11 425.79 373.72 426.16 373.38C426.27 373.29 426.4 373.24 426.54 373.24C426.7 373.24 426.63 373.24 426.71 373.24C427.08 373.24 427.4 372.97 427.46 372.61C427.49 372.48 427.46 372.65 427.48 372.5C427.54 372.2 427.8 371.99 428.1 371.99C428.32 371.99 428.87 371.99 429.74 371.99L432.02 370.28C432.56 369.06 433.13 368.57 433.73 368.79C434.1 368.93 434.42 369.08 434.71 369.24C435.07 369.44 435.52 369.36 435.78 369.03C436.94 367.59 437.85 367.21 438.52 367.88C439.36 368.72 440.2 369.29 441.03 369.59C443.85 370.05 445.4 371.26 445.71 373.24C445.86 374.22 446.35 374.37 446.39 375.51C446.43 376.68 446.28 378.24 445.94 380.2C445.33 382.4 445.48 383.92 446.39 384.76C447.3 385.59 448.22 386.2 449.13 386.58C450.21 386.74 450.89 386.83 451.16 386.87C451.39 386.9 451.58 387.05 451.68 387.26C451.83 387.58 451.96 387.85 452.07 388.08C452.27 388.5 452.78 388.67 453.19 388.44C453.23 388.42 453.32 388.37 453.46 388.29C454.13 388.37 454.54 388.41 454.71 388.43C455.19 388.48 455.58 388.84 455.67 389.32C455.73 389.64 455.79 389.95 455.85 390.31C455.91 390.61 456.24 390.76 456.51 390.62C456.74 390.49 457.32 390.17 458.25 389.66L461.22 387.61C461.9 387.51 462.32 387.45 462.49 387.43C462.68 387.4 462.83 387.25 462.86 387.06C462.92 386.72 463.04 386.03 463.09 385.69C463.13 385.46 463.27 385.26 463.48 385.15C463.7 385.04 464.23 384.76 465.09 384.3C466.48 384.41 467.35 384.48 467.7 384.5C467.93 384.52 468.15 384.44 468.33 384.29C468.48 384.16 468.32 384.3 468.38 384.24C468.82 383.85 469.42 383.69 470 383.82C471.86 384.22 473.22 384.8 474.1 385.56C475.07 386.39 476.18 386.84 477.41 386.91C477.61 386.92 477.77 387.06 477.79 387.26C477.83 387.58 477.88 388 477.91 388.27C477.94 388.53 478.24 388.64 478.43 388.48C478.57 388.36 478.91 388.07 479.46 387.61L481.85 387.84C482.69 388.06 483.15 388.41 483.22 388.86C483.34 389.55 484.36 390.57 485.16 389.09C485.69 388.1 486.11 387.61 486.42 387.61C490.09 387.72 492.38 387.79 493.3 387.82C493.56 387.83 493.81 387.94 493.99 388.14C494.68 388.87 495.35 389.3 495.99 389.43C496.75 389.58 497.4 389.74 497.93 389.89C499.15 390.88 500.25 391.41 501.24 391.48C502.23 391.56 503.06 391.87 503.75 392.4L506.03 394.22C506.86 394.98 507.32 395.06 507.4 394.45C507.43 394.14 507.49 393.9 507.56 393.74C507.71 393.4 508.14 393.28 508.44 393.49C509.5 394.21 510.22 394.91 510.59 395.59C510.99 396.33 511.46 396.98 511.98 397.53C512.11 397.68 512.29 397.77 512.49 397.79C512.84 397.83 513.73 397.93 515.15 398.1C515.82 398.91 516.24 399.42 516.41 399.63C516.63 399.89 516.93 400.06 517.27 400.11C517.77 400.17 519 400.34 520.97 400.61L522.79 402.32C523.18 402.51 523.43 402.64 523.53 402.69C523.77 402.81 524.06 402.76 524.25 402.57C524.75 402.06 526 400.82 526.52 400.3C526.68 400.14 526.92 400.09 527.13 400.16C528.09 400.5 530.03 401.19 530.84 401.48C531.53 401.72 532.28 401.7 532.95 401.4C533.57 401.13 534.53 400.7 535.19 400.4C535.7 400.18 536.05 399.69 536.11 399.14C536.13 398.86 536.16 398.61 536.2 398.25Z" id="province02" class="states"></path>

		<path d="M545.88 393.73C546.81 393.53 547.46 392.45 547.83 390.48C547.89 390.18 548.15 389.97 548.45 389.97C548.91 389.97 550.07 389.97 550.61 389.97C550.71 389.97 550.79 390.04 550.8 390.14C550.91 390.89 551.16 392.77 551.58 395.79L551.87 399.53C552.27 399.92 552.52 400.16 552.62 400.26C552.84 400.47 553.08 400.66 553.33 400.82C553.72 401.06 554.7 401.66 556.25 402.63C556.82 403.53 557.35 404 557.84 404.02C558.39 404.05 558.89 402.87 559.33 402.75C560.02 402.57 560.68 402.84 561.31 403.55C561.49 403.74 561.77 403.78 561.99 403.64C562.11 403.57 562.4 403.38 562.87 403.08C564.03 403.41 564.76 403.61 565.05 403.7C565.45 403.81 565.72 404.16 565.72 404.57C565.72 404.71 565.72 405.05 565.72 405.59L566.51 406.05L569.25 406.5C570.32 407.32 570.98 407.82 571.25 408.03C571.45 408.18 571.73 408.1 571.82 407.86C571.97 407.49 572.1 406.89 572.22 406.05C572.44 404.45 573.58 404.34 574.27 403.43C574.7 402.85 576.15 402.58 578.62 402.62C578.75 402.63 578.89 402.58 578.99 402.48C579.11 402.38 579.39 402.13 579.86 401.71C582.44 401.56 584.34 401.56 585.56 401.71C586.4 401.82 587.23 402.93 588.96 404.14C589.61 404.6 590.47 405.03 591.52 405.43C591.77 405.53 592.06 405.46 592.24 405.25C592.34 405.14 592.47 404.99 592.6 404.84C592.69 404.74 592.82 404.69 592.95 404.71C593.32 404.78 594.06 404.9 594.38 404.95C594.63 404.99 594.88 404.88 595.01 404.67C595.17 404.4 595.19 404.35 595.29 404.19C595.61 403.65 596.22 403.36 596.83 403.42C596.84 403.42 596.24 403.36 596.34 403.37C596.64 403.4 596.94 403.25 597.08 402.97C597.28 402.6 597.43 402.26 597.53 401.94C597.68 401.49 598.02 401.3 598.56 401.37C599.09 401.14 599.66 401.41 600.27 402.17C600.8 402.84 601.97 403.34 603.76 403.67C604.05 403.73 604.33 403.56 604.43 403.29C604.54 402.97 604.83 402.18 605.28 400.92C605.89 399.47 606.54 398.79 607.22 398.86C607.83 398.93 608.76 399.66 610 401.04C610.16 401.21 610.42 401.19 610.55 401.01C610.72 400.77 611.13 400.17 611.78 399.21C612.54 398.9 613 398.52 613.15 398.07C613.3 397.61 613.91 397.61 614.98 398.07L616 399.21C617.29 401.33 618.09 402.7 618.4 403.31C618.7 403.92 619.92 404.38 622.05 404.68C622.43 405.52 622.69 406.24 622.84 406.85C623 407.45 623.6 407.45 624.67 406.85C624.9 405.93 625.54 405.1 626.61 404.34C627.67 403.58 628.7 402.59 629.69 401.37L629.8 399.21L630.48 398.41L630.48 397.27L629.69 396.24L630.14 395.56C630.37 394.19 630.64 393.09 630.94 392.25C631.24 391.41 631.85 390.46 632.76 389.4C633.07 388.26 633.49 387.42 634.02 386.89C634.55 386.36 634.97 385.6 635.27 384.61L635.5 381.42L636.76 379.94L636.41 374.23L635.5 370.13C635.65 368.69 635.35 367.85 634.59 367.62C633.83 367.39 633.37 366.78 633.22 365.8C633.18 364.91 633.15 364.36 633.14 364.14C633.12 363.75 632.91 363.39 632.58 363.18C632.43 363.09 632.37 363.05 632.18 362.93C631.98 362.8 631.84 362.57 631.83 362.33C631.79 361.7 631.69 360.17 631.65 359.54C631.63 359.32 631.51 359.11 631.32 359C630.92 358.76 630.19 358.32 629.83 358.1C629.52 357.92 629.32 357.61 629.28 357.26C629.25 356.98 629.21 356.64 629.17 356.35C629.14 356.08 628.91 355.87 628.64 355.86C627.54 355.83 626.64 355.68 625.92 355.42C625.09 355.12 624.44 354.17 623.98 352.57C623.76 351.56 623.62 350.93 623.56 350.67C623.54 350.58 623.47 350.5 623.37 350.48C623.08 350.42 622.51 350.3 622.26 350.25C622.06 350.2 621.92 350.04 621.89 349.84C621.87 349.63 621.8 349.09 621.7 348.24C621.7 347.7 622.08 347.1 622.84 346.41C623.6 345.73 623.95 344.28 623.87 342.08L624.67 337.86L625.69 334.67C625.85 333.37 626.34 332.5 627.18 332.04C628.01 331.59 627.94 331.06 626.95 330.45L625.92 329.42L625.92 327.6L626.26 325.66C627.25 325.2 627.79 324.56 627.86 323.72C627.93 322.96 627.36 322.11 626.16 321.17C626.01 321.05 625.92 320.87 625.92 320.68C625.92 320.35 625.92 319.84 625.92 319.56C625.92 319.23 626.07 318.93 626.32 318.72C626.49 318.58 626.42 318.64 626.55 318.53C626.95 318.21 627.18 317.72 627.18 317.21C627.18 317.04 627.18 316.63 627.18 315.97C628.01 314.45 628.43 313.42 628.43 312.89C628.43 312.36 628.74 311.9 629.34 311.52C630.2 311.09 630.73 310.82 630.95 310.72C631.23 310.58 631.44 310.31 631.5 310.01C631.62 309.49 631.8 308.67 631.9 308.21C632.02 307.69 632.26 307.2 632.59 306.78C632.88 306.43 633.54 305.61 633.91 305.16C633.98 305.07 634.03 304.96 634.04 304.85C634.15 303.85 634.39 301.68 634.48 300.84C634.55 300.26 634.94 299.76 635.49 299.57C635.59 299.53 635.82 299.45 636.19 299.32L637.33 296.47C637.48 295.86 637.33 295.4 636.87 295.1C636.41 294.8 636.19 294.42 636.19 293.96C636.49 293.58 636.87 293.31 637.33 293.16C637.78 293.01 637.86 292.48 637.55 291.57C635.35 290.57 633.97 289.94 633.41 289.69C633.02 289.52 632.56 289.6 632.26 289.9C632.13 290.03 631.97 290.19 631.77 290.39C631.68 290.49 631.55 290.54 631.41 290.54C631.07 290.54 630.37 290.54 630.06 290.54C629.83 290.54 629.63 290.4 629.56 290.19C629.42 289.82 629.17 289.14 629.04 288.8C628.98 288.61 628.73 288.57 628.61 288.73C628.51 288.86 628.47 288.91 628.36 289.04C628.21 289.25 627.92 289.3 627.7 289.17C627.53 289.06 627.09 288.8 626.38 288.37L623.87 288.37C623.03 288.75 622.43 289.09 622.05 289.4C621.67 289.7 621.17 289.59 620.56 289.06C620.08 288.5 619.78 288.14 619.66 288C619.37 287.66 618.93 287.46 618.48 287.46C617.66 287.46 615.62 287.46 612.35 287.46C612.13 287.33 611.99 287.24 611.94 287.21C611.49 286.94 611.21 286.45 611.21 285.93C611.21 285.64 611.21 285.47 611.21 285.14C611.21 284.78 610.92 284.5 610.57 284.5C610.36 284.5 610.2 284.5 609.94 284.5C609.69 284.5 609.47 284.68 609.43 284.93C609.37 285.23 609.29 285.7 609.24 286C609.19 286.27 609.01 286.49 608.75 286.59C608.68 286.61 608.52 286.68 608.25 286.78C607.13 287.84 606.44 288.5 606.16 288.77C605.96 288.96 605.83 289.2 605.77 289.47C605.74 289.64 605.65 290.07 605.51 290.77C604.68 291.76 603.95 292.44 603.35 292.82C602.86 293.12 602.47 293.83 602.15 294.95C602.05 295.31 601.72 295.57 601.33 295.59C600.3 295.63 597.84 295.72 596.81 295.76C596.45 295.77 596.16 295.49 596.16 295.14C596.16 294.79 596.16 294.38 596.16 294.03C596.16 293.68 595.87 293.4 595.52 293.42C595.36 293.43 595.12 293.49 594.79 293.62C594.19 293.85 593.39 294.42 592.4 295.33C591.25 294.81 590.53 294.49 590.24 294.36C590.16 294.32 590.11 294.25 590.11 294.17C590.06 293.65 589.95 292.33 589.91 291.83C589.9 291.67 589.79 291.53 589.64 291.46C589.49 291.4 589.12 291.24 588.52 291C588.22 290.92 587.99 291.11 587.84 291.57C587.69 292.02 587.31 292.44 586.7 292.82C584.32 292.82 582.83 292.82 582.23 292.82C582.1 292.82 581.98 292.88 581.9 292.99C581.72 293.26 581.3 293.86 581.12 294.13C581.04 294.23 580.91 294.28 580.79 294.25C580.45 294.17 579.61 293.95 578.26 293.62C577.38 293.52 576.83 293.46 576.61 293.43C576.42 293.41 576.31 293.2 576.4 293.04C576.59 292.7 576.93 292.09 577.11 291.76C577.18 291.64 577.05 291.5 576.92 291.57C576.24 291.93 575.66 292.08 575.18 292.02C574.57 291.95 573.81 292.59 572.9 293.96C571.77 294.08 571.07 294.16 570.78 294.19C570.09 294.26 569.39 294.08 568.83 293.67C568.51 293.44 567.96 293.15 567.2 292.82C565.98 292.29 564.99 292.29 564.23 292.82C563.38 293.51 562.85 293.95 562.64 294.12C562.49 294.24 562.31 294.3 562.12 294.3C561.47 294.3 559.86 294.3 557.28 294.3C556.14 293.69 555.07 293.31 554.09 293.16C553.1 293.01 552.79 292.29 553.17 291C553.02 290.39 552.72 290.04 552.26 289.97C551.81 289.89 551.2 289.17 550.44 287.8C549.75 286.89 549.11 286.17 548.5 285.64C547.89 285.1 547.02 284.57 545.88 284.04L543.82 284.04C541.79 283.81 540.52 283.67 540.01 283.62C539.84 283.6 539.69 283.47 539.64 283.3C539.52 282.85 539.24 281.82 539.12 281.38C539.07 281.2 538.9 281.07 538.71 281.07C538.48 281.07 537.91 281.07 536.98 281.07L535.5 280.05C535.35 279.84 535.25 279.71 535.21 279.66C534.76 279.06 534.01 278.76 533.26 278.88C533.24 278.89 533.19 278.89 533.11 278.91C531.74 278.98 530.56 279.14 529.57 279.36C528.58 279.59 527.97 279.21 527.75 278.22C527.14 277.92 526.38 277.81 525.47 277.88C524.55 277.96 524.29 277.27 524.67 275.83C524.82 275.07 524.93 274.42 525.01 273.89C525.09 273.36 524.86 272.9 524.33 272.52C521.94 272.52 520.45 272.52 519.85 272.52C519.66 272.52 519.48 272.63 519.4 272.8C519.38 272.83 519.35 272.89 519.31 272.98C518.55 273.89 517.79 274.58 517.03 275.03C516.27 275.49 515.09 275.34 513.49 274.58L512.92 272.52C512.25 272.23 511.83 272.05 511.66 271.98C511.51 271.92 511.35 272.04 511.37 272.2C511.55 273.62 511.57 274.56 511.44 275.03C511.3 275.54 510.44 276.02 508.86 276.47C508.76 276.5 508.69 276.57 508.66 276.67C508.57 276.97 508.36 277.71 508.02 278.91C507.68 280.8 507.46 281.98 507.38 282.45C507.35 282.59 507.37 282.74 507.44 282.87C507.51 283.02 507.52 283.03 507.56 283.12C507.71 283.42 507.97 283.64 508.28 283.75C508.4 283.79 508.69 283.88 509.16 284.04C510 285.33 510.49 286.78 510.64 288.37C510.87 290.77 510.07 292.36 509.84 293.16C509.69 293.69 509.96 294.34 510.64 295.1L511.44 296.47L510.98 299.66L509.16 303.77L509.16 305.93L508.93 306.74L507.34 308.33C506.42 310.08 505.55 310.87 504.71 310.72C503.88 310.57 502.62 310.72 500.95 311.18L499.92 312.32L496.73 314.71L493.77 318.36L489.66 322.35L487.72 323.72L486.92 325.55C485.94 326.53 485.29 327.41 484.99 328.17C484.68 328.93 484.57 329.99 484.64 331.36C484.87 332.12 485.25 332.8 485.78 333.41C486.32 334.02 486.39 334.93 486.01 336.15C484.95 336.91 484.26 337.48 483.96 337.86C483.66 338.24 483.88 338.47 484.64 338.54C485.63 337.86 486.28 337.37 486.58 337.06C486.89 336.76 487.46 336.87 488.29 337.4L490.8 338.89C492.14 339.2 492.98 339.39 493.32 339.47C493.58 339.53 493.77 339.76 493.77 340.03C493.77 340.15 493.77 340.46 493.77 340.94C493.99 341.32 494.37 341.55 494.91 341.62C495.7 341.74 496.05 342.54 496.96 343.33C497.87 344.13 496.96 344.7 496.96 345.61C496.96 346.22 496.46 346.98 495.48 347.89C494.83 347.81 494.43 347.76 494.27 347.73C493.97 347.69 493.67 347.84 493.51 348.11C493.38 348.34 493.11 348.82 492.94 349.1C492.91 349.16 492.96 349.23 493.03 349.22C493.51 349.1 494.02 349.03 494.56 349.03C495.17 349.03 495.48 349.41 495.48 350.17L494.91 352.34L496.05 354.39L496.5 356.56C496.62 357.12 496.62 357.66 496.5 358.18C496.36 358.86 495.88 359.49 495.7 360.1C495.4 361.16 495.02 361.62 494.56 361.46C493.5 361.62 492.66 361.62 492.06 361.46C491.45 361.31 490.95 361.5 490.57 362.03L488.29 364.09C487.46 364.77 486.62 365.34 485.78 365.8C484.95 366.25 484.68 366.56 484.99 366.71C485.55 367.27 485.9 367.62 486.04 367.76C486.22 367.94 486.5 367.96 486.7 367.8C486.73 367.78 486.8 367.72 486.92 367.62C487.38 366.86 487.84 366.4 488.29 366.25C488.75 366.1 489.51 366.1 490.57 366.25L492.06 366.71C493.58 366.71 494.53 366.71 494.91 366.71C495.38 366.71 495.79 366.39 495.9 365.94C496.08 365.23 496.36 364.68 496.73 364.31C497.26 363.78 497.98 363.71 498.9 364.09C500.19 364.39 500.99 364.73 501.29 365.11C501.6 365.49 502.81 366.1 504.94 366.94L507.34 369.45C507.65 369.76 507.85 369.96 507.93 370.04C508.13 370.24 508.41 370.32 508.69 370.27C508.78 370.25 509.02 370.2 509.39 370.13C510.3 370.36 510.79 370.89 510.87 371.73C510.91 372.22 510.69 372.69 510.19 373.16C509.88 373.43 510.06 373.94 510.47 373.96C511.16 374.01 511.71 374.1 512.12 374.23C512.81 374.46 513.04 374.99 512.81 375.83C512.18 376.51 511.79 376.93 511.63 377.1C511.48 377.27 511.52 377.54 511.72 377.65C511.77 377.68 511.91 377.76 512.12 377.88C512.58 378.42 512.92 379.1 513.15 379.94C513.38 380.77 513.8 381.15 514.4 381.08C516.64 381.08 518.03 381.08 518.59 381.08C518.69 381.08 518.78 381.1 518.87 381.15C519.09 381.27 519.29 381.38 519.43 381.45C519.78 381.65 520.21 381.67 520.59 381.51C520.61 381.49 520.68 381.46 520.79 381.42C521.17 380.89 521.7 380.39 522.39 379.94C523.07 379.48 523.83 379.48 524.67 379.94C525.2 380.47 525.54 380.8 525.67 380.94C525.95 381.22 526.39 381.26 526.71 381.04C526.95 380.88 527.3 380.63 527.75 380.28C528.77 379.48 529.46 379.82 530.48 379.48C531.17 379.25 531.77 379.4 532.31 379.94C532.53 380.47 532.8 380.85 533.11 381.08C533.41 381.3 533.75 381.19 534.13 380.73L535.16 379.94L536.98 378.45C537.06 377.69 537.32 376.93 537.78 376.17C538.24 375.41 538.88 375.41 539.72 376.17C540.17 377.18 540.44 377.81 540.56 378.06C540.6 378.16 540.7 378.23 540.81 378.25C541.19 378.29 542.12 378.39 542.49 378.43C542.61 378.45 542.73 378.51 542.8 378.61C543.05 378.94 543.43 379.45 543.62 379.7C543.88 380.05 544.33 380.2 544.74 380.07C544.8 380.05 544.95 380.01 545.19 379.94C545.47 380.02 545.65 380.07 545.72 380.09C546.08 380.2 546.33 380.54 546.33 380.92C546.33 380.94 546.33 380.99 546.33 381.08L546.56 383.47C546.33 384.31 545.99 384.8 545.53 384.95C545.08 385.1 544.77 385.64 544.62 386.55L544.62 387.69L544.62 390.77C544.62 391.4 544.62 391.79 544.62 391.95C544.62 392.14 544.55 392.33 544.41 392.46C544.27 392.6 543.92 392.95 543.37 393.5C543.02 393.9 542.8 394.14 542.71 394.24C542.64 394.33 542.72 394.47 542.83 394.44C543.92 394.17 544.93 393.94 545.88 393.73Z" id="province01" class="states"></path>

	</defs>
	<g>
		<g><g>
			<use xlink:href="#province07"></use>
		</g></g>
		<g><g>
			<use xlink:href="#province06"></use>
		</g></g>
		<g><g>
			<use xlink:href="#province05"></use>
		</g></g>
		<g><g>
			<use xlink:href="#province04"></use>
		</g></g>
		<g><g>
			<use xlink:href="#province03"></use>
		</g></g>
		<g><g>
			<use xlink:href="#province02"></use>
		</g></g>
		<g><g>
			<use xlink:href="#province01"></use>
		</g></g>
	</g>
</svg>