<!-- 
	If you find my work useful in any of your projects and want to use it, you are free
	to use, but please appreciate my work and give a reference.

	Author: Dipesh Bajgain
	Email: dipbazz@gmail.com
	Facebook: facebook.com/dipbazz
-->

<svg version="1.1" xmlns="http://www.w3.org/2000/svg" xmlns:xlink="http://www.w3.org/1999/xlink" preserveAspectRatio="xMidYMid meet" viewBox="219.00000000000003 187.1132075471698 157.90638420919393 140.13827884815208" width="153.91" height="136.14">
	<defs>
		<style>
			#province01{
				opacity: 1;
				fill: #cccccc;
				fill-opacity: 1;
				stroke-width: 0.6px;
				stroke-opacity: 1;
				stroke: #000000;
			}
		</style>
		<path d="M282.05 309.88C282.98 309.68 283.63 308.6 284 306.63C284.06 306.33 284.32 306.12 284.62 306.12C285.08 306.12 286.24 306.12 286.78 306.12C286.88 306.12 286.96 306.19 286.97 306.29C287.08 307.04 287.33 308.92 287.75 311.93L288.04 315.68C288.44 316.07 288.69 316.31 288.79 316.41C289.01 316.62 289.25 316.8 289.5 316.96C289.89 317.21 290.87 317.81 292.42 318.78C292.99 319.68 293.52 320.14 294.01 320.17C294.56 320.2 295.06 319.02 295.5 318.9C296.19 318.72 296.85 318.98 297.48 319.69C297.66 319.89 297.94 319.93 298.16 319.79C298.28 319.71 298.57 319.53 299.04 319.23C300.2 319.56 300.93 319.76 301.22 319.84C301.62 319.95 301.89 320.31 301.89 320.72C301.89 320.86 301.89 321.2 301.89 321.74L302.69 322.2L305.42 322.65C306.49 323.46 307.15 323.97 307.42 324.18C307.62 324.33 307.91 324.24 307.99 324.01C308.14 323.64 308.27 323.04 308.39 322.2C308.61 320.6 309.76 320.49 310.44 319.57C310.87 318.99 312.32 318.73 314.79 318.77C314.92 318.77 315.06 318.72 315.16 318.63C315.28 318.53 315.56 318.27 316.03 317.86C318.61 317.71 320.51 317.71 321.73 317.86C322.57 317.97 323.4 319.08 325.13 320.29C325.78 320.75 326.64 321.18 327.69 321.58C327.94 321.68 328.23 321.6 328.41 321.4C328.51 321.28 328.64 321.14 328.77 320.99C328.86 320.89 328.99 320.84 329.12 320.86C329.49 320.92 330.23 321.05 330.56 321.1C330.8 321.14 331.05 321.03 331.18 320.82C331.34 320.54 331.37 320.5 331.47 320.33C331.79 319.8 332.39 319.5 333 319.57C333.01 319.57 332.41 319.51 332.51 319.52C332.82 319.55 333.11 319.39 333.25 319.12C333.45 318.75 333.6 318.41 333.7 318.09C333.85 317.64 334.19 317.45 334.73 317.52C335.26 317.29 335.83 317.56 336.44 318.32C336.97 318.99 338.14 319.49 339.93 319.82C340.22 319.88 340.5 319.71 340.6 319.44C340.71 319.12 341 318.33 341.45 317.07C342.06 315.62 342.71 314.94 343.39 315.01C344 315.08 344.93 315.81 346.17 317.19C346.33 317.36 346.59 317.34 346.72 317.15C346.89 316.91 347.3 316.31 347.95 315.35C348.71 315.05 349.17 314.67 349.32 314.21C349.47 313.76 350.08 313.76 351.15 314.21L352.17 315.35C353.47 317.48 354.26 318.85 354.57 319.46C354.87 320.07 356.09 320.52 358.22 320.83C358.6 321.66 358.86 322.39 359.01 322.99C359.17 323.6 359.77 323.6 360.84 322.99C361.07 322.08 361.71 321.25 362.78 320.49C363.84 319.73 364.87 318.74 365.86 317.52L365.97 315.35L366.65 314.56L366.65 313.42L365.86 312.39L366.31 311.71C366.54 310.34 366.81 309.24 367.11 308.4C367.41 307.56 368.02 306.61 368.93 305.55C369.24 304.41 369.66 303.57 370.19 303.04C370.72 302.51 371.14 301.75 371.44 300.76L371.67 297.57L372.93 296.08L372.58 290.38L371.67 286.28C371.82 284.83 371.52 284 370.76 283.77C370 283.54 369.54 282.93 369.39 281.95C369.35 281.06 369.32 280.51 369.31 280.29C369.29 279.9 369.08 279.54 368.75 279.33C368.61 279.24 368.54 279.19 368.35 279.08C368.15 278.94 368.01 278.72 368 278.47C367.96 277.85 367.86 276.32 367.82 275.69C367.8 275.46 367.68 275.26 367.49 275.15C367.09 274.91 366.36 274.47 366 274.25C365.69 274.07 365.49 273.76 365.45 273.4C365.42 273.13 365.38 272.79 365.34 272.5C365.31 272.23 365.08 272.02 364.81 272.01C363.71 271.97 362.81 271.83 362.09 271.57C361.26 271.26 360.61 270.31 360.15 268.72C359.93 267.71 359.79 267.08 359.73 266.82C359.71 266.73 359.64 266.65 359.54 266.63C359.25 266.57 358.69 266.45 358.43 266.39C358.23 266.35 358.09 266.19 358.06 265.99C358.04 265.77 357.97 265.24 357.87 264.39C357.87 263.85 358.25 263.24 359.01 262.56C359.77 261.88 360.12 260.43 360.04 258.23L360.84 254.01L361.87 250.82C362.02 249.52 362.51 248.65 363.35 248.19C364.18 247.74 364.11 247.21 363.12 246.6L362.09 245.57L362.09 243.75L362.44 241.81C363.42 241.35 363.96 240.71 364.03 239.87C364.1 239.11 363.54 238.26 362.33 237.32C362.18 237.2 362.09 237.02 362.09 236.83C362.09 236.5 362.09 235.99 362.09 235.7C362.09 235.38 362.24 235.08 362.49 234.87C362.66 234.73 362.59 234.79 362.72 234.68C363.12 234.36 363.35 233.87 363.35 233.35C363.35 233.19 363.35 232.78 363.35 232.12C364.18 230.6 364.6 229.57 364.6 229.04C364.6 228.5 364.91 228.05 365.51 227.67C366.37 227.24 366.91 226.97 367.12 226.87C367.4 226.72 367.61 226.46 367.67 226.15C367.79 225.64 367.97 224.82 368.07 224.36C368.19 223.84 368.43 223.35 368.76 222.93C369.05 222.58 369.71 221.76 370.08 221.31C370.15 221.22 370.2 221.11 370.21 220.99C370.32 220 370.56 217.83 370.65 216.99C370.72 216.41 371.11 215.91 371.66 215.71C371.76 215.68 371.99 215.6 372.36 215.47L373.5 212.62C373.65 212.01 373.5 211.55 373.04 211.25C372.58 210.94 372.36 210.56 372.36 210.11C372.66 209.73 373.04 209.46 373.5 209.31C373.95 209.16 374.03 208.63 373.72 207.71C371.52 206.72 370.14 206.09 369.59 205.84C369.19 205.66 368.73 205.75 368.43 206.05C368.3 206.18 368.14 206.34 367.94 206.54C367.85 206.63 367.72 206.69 367.58 206.69C367.24 206.69 366.54 206.69 366.23 206.69C366.01 206.69 365.8 206.55 365.73 206.34C365.59 205.97 365.34 205.29 365.21 204.94C365.15 204.76 364.9 204.72 364.78 204.88C364.68 205.01 364.64 205.06 364.54 205.19C364.38 205.4 364.09 205.45 363.88 205.32C363.7 205.21 363.26 204.95 362.55 204.52L360.04 204.52C359.2 204.9 358.6 205.24 358.22 205.55C357.84 205.85 357.34 205.74 356.73 205.21C356.25 204.64 355.95 204.29 355.83 204.15C355.54 203.81 355.1 203.61 354.65 203.61C353.83 203.61 351.79 203.61 348.52 203.61C348.3 203.48 348.16 203.39 348.11 203.36C347.66 203.09 347.38 202.6 347.38 202.08C347.38 201.79 347.38 201.62 347.38 201.29C347.38 200.93 347.1 200.64 346.74 200.64C346.53 200.64 346.37 200.64 346.11 200.64C345.86 200.64 345.64 200.83 345.6 201.08C345.54 201.38 345.46 201.85 345.41 202.15C345.36 202.42 345.18 202.64 344.92 202.74C344.85 202.76 344.69 202.82 344.42 202.92C343.3 203.99 342.61 204.65 342.33 204.92C342.13 205.1 342 205.35 341.94 205.62C341.91 205.79 341.82 206.22 341.68 206.92C340.85 207.9 340.12 208.59 339.52 208.97C339.04 209.27 338.64 209.98 338.32 211.09C338.22 211.46 337.89 211.72 337.51 211.74C336.47 211.78 334.01 211.87 332.98 211.91C332.62 211.92 332.33 211.64 332.33 211.29C332.33 210.94 332.33 210.53 332.33 210.18C332.33 209.83 332.04 209.55 331.69 209.57C331.53 209.58 331.29 209.64 330.96 209.77C330.36 209.99 329.56 210.56 328.57 211.48C327.42 210.96 326.7 210.63 326.41 210.5C326.33 210.47 326.28 210.4 326.28 210.32C326.23 209.8 326.12 208.48 326.08 207.98C326.07 207.82 325.97 207.67 325.81 207.61C325.66 207.55 325.29 207.39 324.69 207.14C324.39 207.07 324.16 207.26 324.01 207.71C323.86 208.17 323.48 208.59 322.87 208.97C320.49 208.97 319 208.97 318.4 208.97C318.27 208.97 318.15 209.03 318.07 209.14C317.89 209.4 317.47 210.01 317.29 210.28C317.22 210.38 317.08 210.43 316.96 210.4C316.62 210.31 315.78 210.1 314.43 209.77C313.55 209.67 313 209.61 312.78 209.58C312.59 209.56 312.48 209.35 312.57 209.18C312.76 208.84 313.1 208.24 313.28 207.91C313.35 207.78 313.22 207.65 313.09 207.71C312.41 208.08 311.83 208.23 311.35 208.17C310.74 208.09 309.98 208.74 309.07 210.11C307.94 210.23 307.24 210.3 306.96 210.34C306.26 210.41 305.57 210.23 305 209.82C304.68 209.59 304.13 209.3 303.37 208.97C302.15 208.44 301.17 208.44 300.4 208.97C299.55 209.66 299.02 210.09 298.81 210.27C298.66 210.39 298.48 210.45 298.29 210.45C297.64 210.45 296.03 210.45 293.45 210.45C292.31 209.84 291.24 209.46 290.26 209.31C289.27 209.16 288.96 208.44 289.34 207.14C289.19 206.54 288.89 206.19 288.43 206.12C287.98 206.04 287.37 205.32 286.61 203.95C285.92 203.04 285.28 202.32 284.67 201.78C284.06 201.25 283.19 200.72 282.05 200.19L279.99 200.19C277.96 199.96 276.69 199.82 276.18 199.76C276.01 199.75 275.86 199.62 275.81 199.45C275.69 199 275.41 197.97 275.29 197.53C275.24 197.35 275.07 197.22 274.89 197.22C274.65 197.22 274.08 197.22 273.15 197.22L271.67 196.2C271.52 195.99 271.42 195.86 271.38 195.81C270.93 195.21 270.18 194.91 269.43 195.03C269.41 195.03 269.36 195.04 269.28 195.06C267.91 195.13 266.73 195.28 265.74 195.51C264.75 195.74 264.14 195.36 263.92 194.37C263.31 194.07 262.55 193.95 261.64 194.03C260.72 194.11 260.46 193.42 260.84 191.98C260.99 191.22 261.1 190.57 261.18 190.04C261.26 189.51 261.03 189.05 260.5 188.67C258.11 188.67 256.62 188.67 256.02 188.67C255.83 188.67 255.65 188.78 255.57 188.95C255.55 188.98 255.53 189.03 255.48 189.13C254.72 190.04 253.96 190.72 253.2 191.18C252.44 191.64 251.26 191.48 249.66 190.72L249.09 188.67C248.42 188.38 248 188.2 247.83 188.13C247.68 188.07 247.52 188.19 247.54 188.35C247.72 189.76 247.75 190.71 247.61 191.18C247.47 191.68 246.61 192.16 245.03 192.62C244.93 192.65 244.86 192.72 244.83 192.82C244.74 193.12 244.53 193.86 244.19 195.06C243.85 196.95 243.63 198.13 243.55 198.6C243.52 198.74 243.54 198.89 243.61 199.02C243.68 199.16 243.69 199.18 243.73 199.27C243.88 199.57 244.14 199.79 244.45 199.9C244.57 199.93 244.86 200.03 245.33 200.19C246.17 201.48 246.66 202.92 246.81 204.52C247.04 206.92 246.24 208.51 246.01 209.31C245.86 209.84 246.13 210.49 246.81 211.25L247.61 212.62L247.15 215.81L245.33 219.91L245.33 222.08L245.1 222.89L243.51 224.48C242.59 226.22 241.72 227.02 240.88 226.87C240.05 226.72 238.79 226.87 237.12 227.33L236.09 228.47L232.9 230.86L229.94 234.51L225.83 238.5L223.89 239.87L223.1 241.69C222.11 242.68 221.46 243.56 221.16 244.32C220.85 245.08 220.74 246.14 220.81 247.51C221.04 248.27 221.42 248.95 221.95 249.56C222.49 250.17 222.56 251.08 222.18 252.3C221.12 253.06 220.43 253.63 220.13 254.01C219.83 254.39 220.05 254.62 220.81 254.69C221.8 254.01 222.45 253.51 222.75 253.21C223.06 252.91 223.63 253.02 224.46 253.55L226.97 255.03C228.31 255.34 229.15 255.54 229.49 255.62C229.75 255.68 229.94 255.91 229.94 256.18C229.94 256.3 229.94 256.6 229.94 257.09C230.16 257.47 230.54 257.7 231.08 257.77C231.88 257.89 232.22 258.68 233.13 259.48C234.04 260.28 233.13 260.85 233.13 261.76C233.13 262.37 232.64 263.13 231.65 264.04C231 263.96 230.6 263.9 230.44 263.88C230.14 263.84 229.84 263.99 229.68 264.26C229.55 264.49 229.28 264.97 229.11 265.25C229.08 265.31 229.13 265.38 229.2 265.37C229.68 265.24 230.19 265.18 230.73 265.18C231.34 265.18 231.65 265.56 231.65 266.32L231.08 268.49L232.22 270.54L232.67 272.71C232.79 273.27 232.79 273.81 232.67 274.33C232.53 275 232.05 275.64 231.88 276.24C231.57 277.31 231.19 277.76 230.73 277.61C229.67 277.76 228.83 277.76 228.23 277.61C227.62 277.46 227.12 277.65 226.74 278.18L224.46 280.23C223.63 280.92 222.79 281.49 221.95 281.95C221.12 282.4 220.85 282.71 221.16 282.86C221.72 283.42 222.07 283.77 222.21 283.91C222.39 284.09 222.67 284.11 222.87 283.95C222.9 283.93 222.98 283.87 223.1 283.77C223.55 283.01 224.01 282.55 224.46 282.4C224.92 282.25 225.68 282.25 226.74 282.4L228.23 282.86C229.75 282.86 230.7 282.86 231.08 282.86C231.55 282.86 231.96 282.54 232.07 282.09C232.25 281.38 232.53 280.83 232.9 280.46C233.43 279.93 234.16 279.85 235.07 280.23C236.36 280.54 237.16 280.88 237.46 281.26C237.77 281.64 238.98 282.25 241.11 283.09L243.51 285.59C243.82 285.91 244.02 286.11 244.1 286.19C244.3 286.39 244.58 286.47 244.86 286.42C244.96 286.4 245.19 286.35 245.56 286.28C246.47 286.51 246.96 287.04 247.04 287.87C247.09 288.36 246.86 288.84 246.36 289.3C246.06 289.58 246.23 290.08 246.64 290.11C247.33 290.15 247.88 290.24 248.29 290.38C248.98 290.61 249.21 291.14 248.98 291.98C248.35 292.65 247.96 293.08 247.8 293.25C247.65 293.41 247.69 293.69 247.89 293.8C247.94 293.83 248.08 293.91 248.29 294.03C248.75 294.56 249.09 295.25 249.32 296.08C249.55 296.92 249.97 297.3 250.58 297.22C252.81 297.22 254.2 297.22 254.76 297.22C254.86 297.22 254.95 297.25 255.04 297.3C255.26 297.42 255.46 297.52 255.6 297.6C255.95 297.79 256.38 297.82 256.76 297.65C256.78 297.64 256.85 297.61 256.96 297.57C257.34 297.03 257.87 296.54 258.56 296.08C259.24 295.63 260 295.63 260.84 296.08C261.37 296.62 261.71 296.95 261.84 297.09C262.12 297.37 262.56 297.41 262.88 297.19C263.13 297.03 263.47 296.77 263.92 296.43C264.94 295.63 265.63 295.97 266.65 295.63C267.34 295.4 267.95 295.55 268.48 296.08C268.71 296.62 268.97 297 269.28 297.22C269.58 297.45 269.92 297.34 270.3 296.88L271.33 296.08L273.15 294.6C273.23 293.84 273.49 293.08 273.95 292.32C274.41 291.56 275.05 291.56 275.89 292.32C276.34 293.33 276.62 293.95 276.73 294.21C276.77 294.31 276.87 294.38 276.98 294.39C277.36 294.44 278.29 294.54 278.66 294.58C278.78 294.59 278.9 294.66 278.97 294.76C279.22 295.09 279.6 295.6 279.79 295.85C280.05 296.2 280.5 296.34 280.91 296.22C280.97 296.2 281.12 296.16 281.36 296.08C281.64 296.17 281.82 296.22 281.89 296.24C282.25 296.35 282.5 296.69 282.5 297.06C282.5 297.09 282.5 297.14 282.5 297.22L282.73 299.62C282.5 300.46 282.16 300.95 281.7 301.1C281.25 301.25 280.94 301.79 280.79 302.7L280.79 303.84L280.79 306.92C280.79 307.55 280.79 307.94 280.79 308.1C280.79 308.29 280.72 308.48 280.58 308.61C280.44 308.75 280.09 309.1 279.54 309.65C279.19 310.05 278.97 310.29 278.89 310.39C278.81 310.48 278.89 310.61 279 310.59C280.09 310.32 281.1 310.08 282.05 309.88Z" id="province01"></path>
	</defs>
	<g><g>
		<g>
			<use xlink:href="#province01"></use>
		</g>
	</g></g>
</svg>