<!-- 
	If you find my work useful in any of your projects and want to use it, you are free
	to use, but please appreciate my work and give a reference.

	Author: Dipesh Bajgain
	Email: dipbazz@gmail.com
	Facebook: facebook.com/dipbazz
-->

<svg version="1.1" xmlns="http://www.w3.org/2000/svg" xmlns:xlink="http://www.w3.org/1999/xlink" preserveAspectRatio="xMidYMid meet" viewBox="306.2104848752948 249.56760045318273 206.85305164550869 116.35464545755164" width="202.85" height="112.35">
	<defs>
		<style>
			#province03{
				opacity: 1;
				fill: #cccccc;
				fill-opacity: 1;
				stroke-width: 0.6px;
				stroke-opacity: 1;
				stroke: #000000;
			}
		</style>
		<path d="M311.09 323.5L313.71 323.56L315.19 322.93C315.82 321.67 316.22 320.88 316.38 320.56C316.42 320.47 316.5 320.4 316.59 320.36C316.97 320.19 317.99 319.74 318.38 319.57C318.45 319.53 318.5 319.46 318.51 319.38C318.56 318.99 318.65 318.13 318.69 317.78C318.71 317.61 318.87 317.49 319.04 317.52C319.3 317.57 319.96 317.71 321.01 317.92C321.98 317.72 322.59 317.6 322.83 317.55C323.05 317.51 323.25 317.7 323.21 317.92C323.16 318.24 323.07 318.76 323.02 319.09C322.97 319.35 323.07 319.62 323.27 319.8C323.36 319.88 323.6 320.09 323.97 320.42L327.28 321.22C327.67 322.15 327.92 322.74 328.02 322.97C328.08 323.12 328.29 323.12 328.35 322.97C328.41 322.82 328.54 322.47 328.76 321.91L331.27 322.25L332.07 323.56C333.07 325.53 333.69 326.76 333.94 327.25C333.98 327.33 334.06 327.39 334.15 327.4C334.59 327.48 335.68 327.66 337.43 327.95L340.73 328.29L342.56 329.09L348.6 329.09L352.02 327.38L352.02 326.35L352.94 324.98L353.62 323.39L354.42 321.91C355.41 321.6 356.66 321.6 358.18 321.91C359.7 322.21 360.84 322.76 361.6 323.56L365.71 323.56C366.39 323.29 366.96 323.08 367.42 322.93C367.87 322.78 369.73 322.99 373 323.56L374.49 324.98L375.85 324.98L378.59 326.35L382.92 328.63L386.46 329.32L388.17 328.98C388.8 329.21 389.2 329.36 389.36 329.42C389.76 329.57 390.21 329.55 390.59 329.35C391.2 329.04 392.21 328.91 393.64 328.98C396.27 329.09 396.49 330.23 397.29 332.4C397.8 333.77 399.8 335.63 403.31 337.97C403.55 338.13 403.83 338.21 404.11 338.21C405.05 338.21 407.46 338.21 408.4 338.21C408.66 338.21 408.9 338.33 409.05 338.54C409.18 338.73 409.3 338.89 409.42 339.06C409.61 339.32 409.9 339.49 410.22 339.53C410.75 339.61 411.3 339.58 411.89 339.47C412.65 339.31 414.24 339.73 416.68 340.72L419.53 341.06L420.44 341.97L422.04 342.66C423.71 343.34 424.81 343.99 425.34 344.6C425.87 345.21 426.48 345.05 427.17 344.14C427.6 344.14 427.88 344.14 427.98 344.14C428.16 344.14 428.31 344.29 428.31 344.46C428.31 344.74 428.31 345.16 428.31 345.41C428.31 345.68 428.46 345.92 428.71 346.03C428.88 346.11 428.98 346.16 429.15 346.24C429.4 346.35 429.69 346.3 429.88 346.1C429.97 346.01 429.92 346.07 430.01 345.98C430.22 345.76 430.54 345.67 430.84 345.75C431.13 345.82 431.84 346.01 432.98 346.31L439.25 346.08L440.51 345.05C441.65 344.37 442.67 343.72 443.59 343.11C444.5 342.51 445.52 342.35 446.66 342.66L452.71 344.6L454.08 344.83L455.1 346.76L456.01 347.22L457.5 345.85L462.4 348.25L462.74 350.18L464 351.55L466.16 355.32C466.39 355.7 467.38 355.89 469.13 355.89C470.88 355.89 473.27 356.04 476.31 356.34L482.58 359.42C485 361.23 486.51 362.36 487.11 362.82C487.37 363.01 487.74 362.93 487.89 362.65C488.13 362.19 488.38 361.83 488.63 361.58C489.45 360.76 490.25 360.53 490.57 360.22C491.25 359.53 493.19 360.22 494.1 359.88C495.01 359.53 495.01 358.39 495.13 357.25C495.24 356.11 494.67 354.86 494.1 353.83C493.72 353.15 493.49 352.66 493.42 352.35C493.65 351.56 493.79 351.07 493.85 350.88C493.91 350.67 493.72 350.48 493.52 350.53C492.69 350.74 491.94 350.82 491.25 350.75C489.99 350.64 490.45 349.84 490.34 349.39C490.27 349.1 490.79 348.67 491.92 348.08C492 348.04 492.06 347.97 492.08 347.88C492.1 347.76 492.17 347.47 492.28 346.99C492.6 346.53 492.8 346.25 492.88 346.14C492.99 345.97 493.21 345.91 493.39 345.98C493.6 346.07 493.84 346.17 494.03 346.25C494.28 346.35 494.56 346.29 494.73 346.08C494.78 346.02 494.92 345.87 495.13 345.62C495.51 344.86 495.66 344.22 495.58 343.69C495.52 343.24 494.8 342.92 493.43 342.73C493.15 342.69 492.93 342.47 492.88 342.19C492.82 341.89 492.71 341.24 492.65 340.89C492.63 340.79 492.55 340.71 492.45 340.7C492.17 340.68 491.46 340.61 490.34 340.49C488.93 339.56 488.05 338.97 487.7 338.74C487.24 338.43 486.63 338.48 486.23 338.86C485.79 339.26 485.42 339.58 485.09 339.81C484.56 340.19 484.1 340.19 483.72 339.81C482.81 339.05 482.24 338.59 482.01 338.44C481.78 338.29 482.36 337.49 483.72 336.05C484.71 335.13 484.94 334.49 484.41 334.11C483.88 333.73 483.46 333 483.15 331.94C483.31 330.57 483.38 329.47 483.38 328.63C483.38 327.38 484.18 326.81 485.09 325.55C485.7 324.72 486 324.03 486 323.5C486.54 322.67 487.26 322.02 488.17 321.56C489.54 320.88 491.71 318.37 492.62 317.46C493.23 316.85 494.06 315.67 495.13 313.92L496.84 312.33C497.9 312.02 498.66 311.49 499.12 310.73C499.57 309.97 500.52 309.52 501.97 309.36C503.46 309.26 504.4 309.2 504.77 309.17C505.08 309.15 505.36 308.96 505.5 308.68C505.59 308.5 505.82 308.04 506.19 307.31C507.17 306.47 507.78 306.02 508.01 305.94C508.21 305.87 508.23 305.2 508.05 303.91C508.02 303.75 508.04 303.58 508.11 303.43C508.46 302.58 508.84 301.64 509.27 300.58C509.72 299.44 509.99 298.42 510.06 297.5L509.61 295.79C509.28 295.46 509.07 295.26 508.99 295.17C508.52 294.71 508.34 294.04 508.51 293.4C509.01 291.52 509.27 289.92 509.27 288.61C509.27 287.01 509 285.99 508.47 285.53C507.93 285.53 507.6 285.53 507.46 285.53C507.05 285.53 506.68 285.25 506.57 284.85C506.5 284.58 506.37 284.24 506.19 283.82C505.88 283.14 504.89 283.63 503.22 285.3C502.69 286.67 502.08 287.55 501.4 287.93C500.71 288.31 499.69 288.38 498.32 288.15C497.18 286.84 496.46 286.02 496.17 285.69C496.09 285.59 495.96 285.53 495.83 285.53C495.26 285.53 493.98 285.53 493.46 285.53C493.16 285.53 492.91 285.33 492.83 285.05C492.79 284.89 492.82 285.01 492.78 284.88C492.69 284.54 492.35 284.33 492 284.4C491.93 284.41 491.76 284.45 491.48 284.51C490.66 284.25 490.15 284.09 489.94 284.03C489.76 283.97 489.63 283.82 489.6 283.64C489.56 283.45 489.51 283.17 489.48 282.98C489.45 282.8 489.31 282.65 489.13 282.61C488.58 282.46 487.61 282.56 486.23 282.91C484.71 283.29 483.88 282.87 483.72 281.65C483.5 280.06 483.38 278.84 483.38 278.01C483.38 277.17 483.12 276.11 482.58 274.81C482.2 273.9 482.2 273.14 482.58 272.53C482.96 271.92 483.08 271.47 482.93 271.16L482.01 269.91C481.39 268.67 481 267.89 480.85 267.58C480.78 267.44 480.58 267.47 480.55 267.62C480.49 267.92 480.33 268.69 480.07 269.91L478.14 270.48C477.2 271.69 476.62 272.45 476.39 272.76C476.07 273.16 475.53 273.3 475.06 273.1C475.06 273.1 475.06 273.1 475.06 273.1C474.41 273.24 474.01 273.33 473.84 273.36C473.64 273.41 473.51 273.62 473.57 273.82C473.76 274.46 473.95 275.13 474.15 275.84C474.35 276.6 474.03 277.41 473.19 278.28C473.08 278.39 473.06 278.55 473.13 278.69C473.18 278.76 473.29 278.95 473.46 279.26C474.22 279.94 474.68 280.63 474.83 281.31C474.98 282 475.48 283.06 476.31 284.51C476.31 285.03 476.31 285.35 476.31 285.48C476.31 285.84 476.05 286.14 475.7 286.18C474.71 286.32 474.04 286.44 473.69 286.56C473.32 286.68 472.9 287.1 472.44 287.81C472.3 288.02 472.05 288.12 471.8 288.08C471.68 288.06 471.4 288.01 470.95 287.93L467.87 287.47L466.16 287.47C464.57 286.33 463.43 285.61 462.74 285.3C462.06 285 462.06 284.43 462.74 283.59C463.48 282.06 463.94 281.1 464.13 280.72C464.19 280.59 464.17 280.45 464.08 280.34C463.43 279.6 462.8 279.08 462.17 278.8C461.49 278.5 460.65 277.78 459.66 276.64C459.28 276.55 459.05 276.5 458.95 276.48C458.77 276.44 458.64 276.28 458.64 276.09C458.64 275.77 458.64 274.96 458.64 273.67C458.47 272.78 458.37 272.22 458.32 272C458.31 271.91 458.24 271.83 458.15 271.8C457.72 271.68 456.72 271.38 456.32 271.26C456.13 271.2 455.99 271.04 455.95 270.85C455.9 270.59 455.77 269.93 455.56 268.88L454.3 266.38C452.33 265.77 450.66 265.16 449.29 264.55C447.92 263.94 446.85 262.04 446.09 258.85L445.3 255.31L444.38 252.81C444.23 251.78 444.13 251.14 444.1 250.88C444.07 250.68 443.88 250.55 443.68 250.57C443.39 250.61 442.97 250.66 442.71 250.69C442.43 250.73 442.22 250.96 442.22 251.25C442.22 251.63 442.22 252.41 442.22 252.83C442.22 253 442.07 253.15 441.9 253.15C441.73 253.15 441.93 253.15 441.86 253.15C441.4 253.15 441 253.46 440.88 253.9C440.83 254.09 440.71 254.56 440.51 255.31L439.6 257.6C438.61 258.81 437.92 259.76 437.54 260.45C437.16 261.13 436.44 261.21 435.38 260.67L434.81 259.31C434.65 258.15 434.55 257.43 434.51 257.14C434.48 256.94 434.32 256.8 434.12 256.8C433.85 256.8 433.16 256.8 432.07 256.8L428.65 254.97L425.34 254.52C423.44 254.44 422.26 254.52 421.81 254.74C421.35 254.97 421.12 255.54 421.12 256.45L418.73 258.85L416.22 258.85L415.42 257.6C414.74 257.37 414.17 257.44 413.71 257.82C413.26 258.2 412.23 258.39 410.63 258.39L409.04 257.6L407.78 257.02C407.25 256.11 406.76 255.43 406.3 254.97C405.84 254.52 405.24 254.21 404.48 254.06L403.82 254.52C403.64 254.76 403.52 254.91 403.48 254.97C403.32 255.18 403.06 255.28 402.8 255.23C402.63 255.2 402.2 255.11 401.51 254.97C400.45 254.74 399.04 254.44 397.29 254.06C395.54 253.68 394.14 254.33 393.07 256L392.39 257.6L392.05 259.65L391.48 260.67L389.42 261.59C388.26 262.64 387.54 263.3 387.25 263.56C387.05 263.74 387.01 264.03 387.13 264.26C387.18 264.34 387.3 264.56 387.49 264.89L387.14 266.15L386.91 267.63L386.57 270.14C386.18 270.53 385.94 270.77 385.84 270.87C385.65 271.06 385.4 271.16 385.13 271.16C384.8 271.16 384.29 271.16 383.98 271.16C383.71 271.16 383.49 271.38 383.49 271.65C383.49 271.67 383.49 271.74 383.49 271.85C383.42 272.23 383.11 272.57 382.58 272.87C382.05 273.18 381.33 273.06 380.42 272.53C379.81 272.23 379.28 271.89 378.82 271.51C378.36 271.13 377.79 271.24 377.11 271.85L376.31 274.13L375.06 277.44C374.83 278.82 374.68 279.68 374.62 280.02C374.54 280.5 374.13 280.86 373.64 280.86C373.51 280.86 373.87 280.86 373.71 280.86C373.27 280.86 372.86 281.08 372.62 281.46C372.38 281.84 371.94 282.53 371.67 282.94C371.5 283.22 371.24 283.42 370.94 283.54C370.78 283.59 370.51 283.69 370.29 283.77C370.2 283.8 370.13 283.87 370.08 283.95C369.95 284.16 369.63 284.69 369.13 285.53C369.13 286.09 369.13 286.44 369.13 286.58C369.13 287.15 369.33 287.71 369.7 288.15C369.7 288.15 369.7 288.15 369.7 288.15L371.18 290.43L372.55 292.37L372.55 293.86L371.75 295.22L369.35 296.14L367.42 296.59L364.79 295.79L362.74 294.88L361.83 293.51C361.66 293.02 361.56 292.71 361.52 292.58C361.43 292.3 361.23 292.06 360.98 291.91C360.8 291.8 360.36 291.54 359.66 291.12L357.95 290.89C357.26 290.89 356.82 290.89 356.65 290.89C356.39 290.89 356.15 291.01 356 291.22C355.91 291.34 355.69 291.65 355.33 292.15C354.9 292.79 354.63 293.19 354.52 293.35C354.31 293.67 353.96 293.86 353.59 293.86C353.39 293.86 353.32 293.86 353.1 293.86C352.79 293.86 352.5 294.03 352.35 294.3C352.28 294.42 352.26 294.46 352.17 294.61C352.08 294.78 351.9 294.88 351.71 294.88C351.57 294.88 351.22 294.88 350.65 294.88L345.52 295.22C345.44 295.54 345.4 295.73 345.38 295.81C345.33 296 345.41 296.21 345.58 296.31C345.7 296.38 345.98 296.55 346.44 296.82C347.23 297.39 347.73 297.75 347.93 297.89C348 297.93 348.04 298 348.05 298.08C348.1 298.31 348.09 298.26 348.1 298.34C348.2 298.9 348.08 299.48 347.75 299.94C347.69 300.03 347.82 299.85 347.71 300.01C347.56 300.22 347.3 300.32 347.05 300.26C346.92 300.24 347.03 300.26 346.92 300.23C346.61 300.17 346.29 300.24 346.05 300.45C345.86 300.61 345.43 300.97 345.17 301.18C345.11 301.23 345.08 301.32 345.09 301.4C345.12 301.54 345.19 301.87 345.3 302.41C345.22 302.81 345.18 303.06 345.16 303.16C345.1 303.48 344.91 303.76 344.64 303.93C344.36 304.11 343.67 304.55 342.56 305.26C341.76 305.58 341.26 305.78 341.06 305.86C340.92 305.91 340.77 305.91 340.64 305.85C340.47 305.77 340.05 305.57 339.37 305.26C338.88 304.89 338.58 304.67 338.45 304.57C338.18 304.37 337.81 304.37 337.54 304.57C337.54 304.57 337.54 304.57 337.54 304.57L335.15 306.17L333.09 307.2L331.27 307.65C330.38 307.84 329.82 307.96 329.6 308C329.27 308.07 328.96 308.2 328.67 308.38C328.56 308.45 328.28 308.62 327.82 308.91L322.72 312.67L321.58 313.92C321.23 314.62 321.01 315.06 320.92 315.23C320.83 315.41 320.66 315.54 320.47 315.58C320.36 315.61 320.08 315.66 319.64 315.75C317.42 315.75 316.03 315.75 315.47 315.75C315.16 315.75 314.87 315.92 314.72 316.19C314.62 316.38 314.63 316.35 314.55 316.5C314.34 316.89 313.95 317.14 313.52 317.18C313.13 317.21 312.82 317.24 312.48 317.27C311.88 317.32 311.3 317.1 310.88 316.68C310.85 316.66 311.02 316.83 310.89 316.7C310.8 316.6 310.67 316.55 310.53 316.55C310.4 316.55 310.05 316.55 309.49 316.55C309.25 316.47 309.1 316.42 309.04 316.4C308.69 316.28 308.37 316.64 308.52 316.97C308.55 317.02 308.6 317.15 308.69 317.34L309.49 317.92C309.4 318.3 309.35 318.54 309.33 318.63C309.21 319.12 308.89 319.52 308.44 319.73C308.24 319.82 308.23 319.83 307.99 319.94C307.64 320.1 307.36 320.4 307.21 320.77C307.21 320.77 307.44 320.2 307.44 320.2C307.29 320.57 307.21 320.97 307.21 321.38C307.21 321.67 307.21 322.03 307.21 322.35C307.21 322.62 307.4 322.85 307.67 322.9C308.13 322.98 309.27 323.18 311.09 323.5Z" id="province03"></path>
	</defs>
	<g><g>
		<g>
			<use xlink:href="#province03"></use>
		</g>
	</g></g>
</svg>