<!-- 
	If you find my work useful in any of your projects and want to use it, you are free
	to use, but please appreciate my work and give a reference.

	Author: Dipesh Bajgain
	Email: dipbazz@gmail.com
	Facebook: facebook.com/dipbazz
-->

<svg version="1.1" xmlns="http://www.w3.org/2000/svg" xmlns:xlink="http://www.w3.org/1999/xlink" preserveAspectRatio="xMidYMid meet" viewBox="349.6628177094097 322.16047451181703 198.70390645937363 83.59172669028072" width="194.7" height="79.59">
	<defs>
		<style>
			#province02{
				opacity: 1;
				fill: #cccccc;
				fill-opacity: 1;
				stroke-width: 0.6px;
				stroke-opacity: 1;
				stroke: #000000;
			}
		</style>
		<path d="M536.2 398.25C536.22 397.95 536.44 397.71 536.72 397.63C536.97 397.56 537 397.56 537.18 397.51C537.66 397.38 538.03 397 538.14 396.52C538.27 395.98 538.44 395.47 538.64 395.02C538.94 394.34 539.48 393.84 540.24 393.54C540.92 393.31 541.6 393.01 542.29 392.63C542.97 392.25 543.35 391.26 543.43 389.66C543.2 388.14 543.09 387 543.09 386.24C543.09 385.61 543.68 384.86 544.87 383.98C545.18 383.75 545.37 383.39 545.37 383C545.37 382.64 545.37 381.87 545.37 381.43C545.37 381.36 545.27 381.32 545.22 381.37C545.18 381.41 545.07 381.51 544.91 381.68C544.42 381.83 544.11 381.92 543.98 381.96C543.85 382 543.71 381.96 543.61 381.86C543.33 381.58 542.62 380.87 541.49 379.74C540.75 379.6 540.29 379.52 540.11 379.48C539.83 379.43 539.58 379.26 539.44 379.01C539.23 378.65 538.84 377.98 538.64 377.62C538.56 377.48 538.34 377.51 538.3 377.67C538.26 377.85 538.14 378.32 537.96 379.06L537.16 380.2C535.64 381.18 534.69 381.91 534.31 382.36C533.95 382.79 533.29 382.94 532.3 382.84C532.21 382.83 532.13 382.75 532.12 382.66C532.08 382.37 531.99 381.8 531.96 381.54C531.93 381.36 531.77 381.22 531.59 381.22C531.24 381.22 531.11 381.22 529.86 381.22C529.02 381.22 527.81 381.87 526.21 383.16C525.91 383.39 525.49 383.01 524.96 382.02C524.42 381.03 523.47 381.03 522.11 382.02C521.35 382.64 520.88 383.03 520.69 383.18C520.38 383.45 519.93 383.48 519.57 383.28C519.41 383.19 519 382.96 518.34 382.59L514.47 382.59C513.9 382.53 513.55 382.49 513.41 382.47C512.8 382.41 512.27 382 512.05 381.43C511.96 381.2 511.74 380.64 511.39 379.74C511.16 378.9 510.72 378.49 510.06 378.49C509.41 378.49 509.24 378.26 509.56 377.8C510.25 376.89 510.78 376.28 511.16 375.98C511.54 375.67 511.27 375.37 510.36 375.07C509.52 375.29 508.88 375.37 508.42 375.29C507.97 375.22 507.78 374.69 507.85 373.7C508.5 373.04 508.91 372.64 509.08 372.47C509.16 372.39 509.17 372.26 509.11 372.16C509.06 372.09 508.95 371.92 508.76 371.64C508.35 371.77 508.09 371.85 507.99 371.88C507.77 371.94 507.52 371.88 507.36 371.71C507.09 371.43 506.42 370.72 505.34 369.59L503.63 367.65C502.42 367.43 501.24 366.93 500.1 366.17C498.96 365.41 498.01 365.52 497.25 366.51C496.81 367.34 496.53 367.86 496.42 368.07C496.3 368.31 496.06 368.45 495.79 368.45C495.18 368.45 493.65 368.45 491.2 368.45C490.75 368.15 490.29 367.88 489.84 367.65C489.15 367.31 487.78 368.45 487.1 369.14C486.64 369.59 486.07 369.55 485.39 369.02L483.56 367.54L480.26 365.94C479.19 364.95 478.62 364.19 478.55 363.66C478.47 363.13 478.93 363.02 479.92 363.32C481.78 364.42 482.94 365.1 483.41 365.38C483.63 365.51 483.92 365.46 484.09 365.27C484.38 364.94 484.81 364.75 485.39 364.69C486.15 364.61 486.34 364.27 485.96 363.66L482.08 360.93C479.57 359.86 477.86 359.06 476.95 358.53C475.58 357.73 473.53 357.39 471.48 357.39C469.43 357.39 469.08 357.96 467.14 357.73C465.85 357.58 465.02 356.82 464.64 355.45L461.67 351.23C461.38 350.31 461.2 349.74 461.13 349.51C461.04 349.23 460.83 349 460.56 348.89C459.98 348.65 458.71 348.12 458.13 347.89C457.86 347.77 457.54 347.84 457.33 348.05C457.13 348.25 457.12 348.26 456.98 348.4C456.57 348.81 455.97 348.95 455.42 348.77C455.39 348.76 455.64 348.84 455.47 348.79C455.35 348.75 455.24 348.68 455.15 348.59C454.98 348.42 454.57 348.01 453.92 347.36L452.66 346.33C451.07 345.87 449.58 345.3 448.22 344.62C446.85 343.94 445.4 343.86 443.88 344.39L441.72 345.87L439.55 347.58C438.11 347.74 436.81 347.85 435.67 347.93C434.6 348 433.1 347.79 431.16 347.31C430.99 347.27 430.81 347.33 430.7 347.46C430.65 347.53 430.52 347.68 430.31 347.93C429.12 347.78 428.37 347.68 428.07 347.65C427.77 347.61 427.53 347.39 427.46 347.11C427.39 346.84 427.33 346.59 427.27 346.34C427.2 346.09 426.88 346 426.7 346.18C426.68 346.2 426.63 346.25 426.55 346.33L425.18 345.76L423.7 344.85L421.76 343.71C421.38 343.63 421.14 343.58 421.04 343.56C420.4 343.44 419.83 343.08 419.44 342.56C419.21 342.26 419.03 342.11 418.91 342.11C418.46 342.11 416.86 341.77 416.06 341.54C415.53 341.39 414.73 341.16 413.67 340.86C412.83 340.86 411.96 340.93 411.04 341.09C410.13 341.24 409.26 341.05 408.42 340.52C408.27 339.98 407.96 339.64 407.51 339.49C406.82 339.26 404.09 339.49 402.98 339.15C401.87 338.8 400.55 337.66 399.53 336.98C398.84 336.52 397.74 335.35 396.22 333.45C395.61 331.77 395.16 330.78 394.85 330.48C394.4 330.02 392.23 330.37 391.32 330.71C390.71 330.94 390.02 331.05 389.26 331.05L387.67 330.48L386.41 330.71L383.45 330.25L380.14 328.54L377.06 327.29C376.72 326.98 376.5 326.78 376.42 326.71C376.11 326.43 375.68 326.33 375.28 326.44C375.2 326.46 375 326.51 374.67 326.6L373.87 326.26C373.35 325.69 373.02 325.33 372.89 325.19C372.71 325 372.48 324.87 372.22 324.82C371.41 324.68 369.44 324.32 368.64 324.18C368.34 324.13 368.02 324.17 367.73 324.3C367.56 324.38 367.14 324.58 366.46 324.89C363.77 324.89 362.09 324.89 361.42 324.89C361.14 324.89 360.86 324.81 360.63 324.65C360.48 324.54 360.1 324.28 359.5 323.87C358.52 323.72 357.79 323.53 357.34 323.3C357.06 323.16 356.65 323.13 356.1 323.2C355.59 323.26 355.16 323.58 354.95 324.04C354.94 324.08 354.89 324.17 354.83 324.32L354.03 326.26L353.8 327.52L353.12 328.77C351.83 329.22 351.03 329.5 350.71 329.61C350.64 329.63 350.65 329.73 350.72 329.74C351.07 329.84 351.94 330.09 353.35 330.48L356.08 330.71C357.59 330.98 358.53 331.15 358.91 331.21C359.14 331.25 359.34 331.4 359.46 331.6C360.54 333.45 363.59 338.67 364.66 340.52C364.79 340.74 364.85 340.99 364.83 341.25C364.76 342.05 364.58 344.05 364.29 347.24L363.61 350.55L361.9 352.37C360.83 353.44 360.91 354.16 362.13 354.54C363.34 354.92 364.86 355.41 366.69 356.02L368.17 356.82C369.39 357.43 370.11 357.51 370.34 357.05C370.56 356.59 371.02 356.4 371.7 356.48C372.01 356.98 372.2 357.3 372.27 357.42C372.33 357.52 372.47 357.54 372.54 357.45C372.76 357.21 373.19 356.75 373.39 356.53C373.55 356.35 373.78 356.26 374.02 356.28C374.32 356.31 375.07 356.37 376.27 356.48L377.75 357.05L377.75 358.53L378.32 359.22L380.48 359.56L381.28 360.36L384.82 360.58C386.49 361.12 387.29 361.8 387.21 362.64C387.16 363.26 387.1 363.71 387.06 364C387.02 364.23 387.21 364.44 387.45 364.42C388.36 364.33 388.81 364.35 388.81 364.46C388.81 364.61 388.96 364.99 389.26 365.6C391.56 366.06 392.99 366.35 393.57 366.46C393.7 366.49 393.78 366.63 393.74 366.76C393.55 367.31 393.16 367.69 392.57 367.88C392.1 368.04 391.78 368.2 391.63 368.35C391.47 368.52 391.49 368.8 391.69 368.94C392 369.15 392.37 369.18 392.8 369.02C393.31 368.83 393.83 368.8 394.35 368.95C394.52 368.99 394.69 368.93 394.8 368.8C395.37 368.09 395.91 367.67 396.45 367.54C397.01 367.4 399.19 367.59 402.98 368.1C403.57 368.18 403.7 368.2 403.37 368.16C403.65 368.19 403.86 368.43 403.86 368.72C403.86 369.05 403.86 369.87 403.86 371.19C403.1 372.25 403.02 373.16 403.63 373.92C404.1 374.51 404.59 375.3 405.09 376.29C405.3 376.69 405.78 376.88 406.2 376.71C406.46 376.61 406.93 376.43 407.3 376.29C407.43 376.23 407.59 376.23 407.73 376.27C410.73 377.21 412.71 377.65 413.67 377.57C414.4 377.52 415.01 377.31 415.51 376.95C415.87 376.69 416.3 376.55 416.74 376.55C417.02 376.55 417.54 376.55 417.91 376.55C418.04 376.55 418.16 376.49 418.24 376.39C419.19 375.19 420.02 374.52 420.74 374.38C421.26 374.28 422.08 374.4 423.2 374.74C423.87 374.94 424.59 374.78 425.1 374.32C425.35 374.11 425.79 373.72 426.16 373.38C426.27 373.29 426.4 373.24 426.54 373.24C426.7 373.24 426.63 373.24 426.71 373.24C427.08 373.24 427.4 372.97 427.46 372.61C427.49 372.48 427.46 372.65 427.48 372.5C427.54 372.2 427.8 371.99 428.1 371.99C428.32 371.99 428.87 371.99 429.74 371.99L432.02 370.28C432.56 369.06 433.13 368.57 433.73 368.79C434.1 368.93 434.42 369.08 434.71 369.24C435.07 369.44 435.52 369.36 435.78 369.03C436.94 367.59 437.85 367.21 438.52 367.88C439.36 368.72 440.2 369.29 441.03 369.59C443.85 370.05 445.4 371.26 445.71 373.24C445.86 374.22 446.35 374.37 446.39 375.51C446.43 376.68 446.28 378.24 445.94 380.2C445.33 382.4 445.48 383.92 446.39 384.76C447.3 385.59 448.22 386.2 449.13 386.58C450.21 386.74 450.89 386.83 451.16 386.87C451.39 386.9 451.58 387.05 451.68 387.26C451.83 387.58 451.96 387.85 452.07 388.08C452.27 388.5 452.78 388.67 453.19 388.44C453.23 388.42 453.32 388.37 453.46 388.29C454.13 388.37 454.54 388.41 454.71 388.43C455.19 388.48 455.58 388.84 455.67 389.32C455.73 389.64 455.79 389.95 455.85 390.31C455.91 390.61 456.24 390.76 456.51 390.62C456.74 390.49 457.32 390.17 458.25 389.66L461.22 387.61C461.9 387.51 462.32 387.45 462.49 387.43C462.68 387.4 462.83 387.25 462.86 387.06C462.92 386.72 463.04 386.03 463.09 385.69C463.13 385.46 463.27 385.26 463.48 385.15C463.7 385.04 464.23 384.76 465.09 384.3C466.48 384.41 467.35 384.48 467.7 384.5C467.93 384.52 468.15 384.44 468.33 384.29C468.48 384.16 468.32 384.3 468.38 384.24C468.82 383.85 469.42 383.69 470 383.82C471.86 384.22 473.22 384.8 474.1 385.56C475.07 386.39 476.18 386.84 477.41 386.91C477.61 386.92 477.77 387.06 477.79 387.26C477.83 387.58 477.88 388 477.91 388.27C477.94 388.53 478.24 388.64 478.43 388.48C478.57 388.36 478.91 388.07 479.46 387.61L481.85 387.84C482.69 388.06 483.15 388.41 483.22 388.86C483.34 389.55 484.36 390.57 485.16 389.09C485.69 388.1 486.11 387.61 486.42 387.61C490.09 387.72 492.38 387.79 493.3 387.82C493.56 387.83 493.81 387.94 493.99 388.14C494.68 388.87 495.35 389.3 495.99 389.43C496.75 389.58 497.4 389.74 497.93 389.89C499.15 390.88 500.25 391.41 501.24 391.48C502.23 391.56 503.06 391.87 503.75 392.4L506.03 394.22C506.86 394.98 507.32 395.06 507.4 394.45C507.43 394.14 507.49 393.9 507.56 393.74C507.71 393.4 508.14 393.28 508.44 393.49C509.5 394.21 510.22 394.91 510.59 395.59C510.99 396.33 511.46 396.98 511.98 397.53C512.11 397.68 512.29 397.77 512.49 397.79C512.84 397.83 513.73 397.93 515.15 398.1C515.82 398.91 516.24 399.42 516.41 399.63C516.63 399.89 516.93 400.06 517.27 400.11C517.77 400.17 519 400.34 520.97 400.61L522.79 402.32C523.18 402.51 523.43 402.64 523.53 402.69C523.77 402.81 524.06 402.76 524.25 402.57C524.75 402.06 526 400.82 526.52 400.3C526.68 400.14 526.92 400.09 527.13 400.16C528.09 400.5 530.03 401.19 530.84 401.48C531.53 401.72 532.28 401.7 532.95 401.4C533.57 401.13 534.53 400.7 535.19 400.4C535.7 400.18 536.05 399.69 536.11 399.14C536.13 398.86 536.16 398.61 536.2 398.25Z" id="province02"></path>
	</defs>
	<g><g>
		<g>
			<use xlink:href="#province02"></use>
		</g>
	</g></g>
</svg>