<!-- 
	If you find my work useful in any of your projects and want to use it, you are free
	to use, but please appreciate my work and give a reference.

	Author: Dipesh Bajgain
	Email: dipbazz@gmail.com
	Facebook: facebook.com/dipbazz
-->

<svg version="1.1" xmlns="http://www.w3.org/2000/svg" xmlns:xlink="http://www.w3.org/1999/xlink" preserveAspectRatio="xMidYMid meet" viewBox="81.5101753274164 212.3681631373911 233.56003174605678 122.78020825969185" width="229.56" height="118.78">
	<defs>
		<style>
			#province05{
				opacity: 1;
				fill: #cccccc;
				fill-opacity: 1;
				stroke-width: 0.6px;
				stroke-opacity: 1;
				stroke: #000000;
			}
		</style>
		<path d="M107.19 233.21L105.71 232.53L104.68 232.19L103.42 231.84L102.63 231.5C102.15 231.38 101.85 231.31 101.72 231.28C101.44 231.2 101.22 230.98 101.16 230.69C101.13 230.54 101.04 230.16 100.92 229.56C100.85 229.45 100.81 229.38 100.79 229.36C100.66 229.13 100.41 228.99 100.15 228.99C100.08 228.99 100.3 228.99 100.23 228.99C99.96 228.99 99.72 229.17 99.65 229.43C99.62 229.52 99.55 229.76 99.43 230.13L98.29 231.5L96.47 234.24L94.3 236.4C93.1 237.28 92.35 237.82 92.05 238.04C91.88 238.16 91.73 238.31 91.59 238.48C91.39 238.74 90.89 239.37 90.08 240.4L89.29 241.31L87.46 243.32L86.55 244.04L84.27 245.64L83.24 246.55C82.92 247.15 82.72 247.52 82.64 247.66C82.52 247.9 82.48 248.18 82.54 248.45C82.48 248.17 82.56 248.53 82.79 249.52C82.84 249.76 83.11 249.99 83.58 250.2C85.31 250.31 86.39 250.38 86.82 250.41C87.01 250.42 87.19 250.51 87.33 250.64C87.45 250.76 87.52 250.83 87.62 250.93C87.81 251.12 88.07 251.23 88.34 251.23C89.03 251.23 90.84 251.23 91.57 251.23C91.72 251.23 91.86 251.26 91.99 251.33C92.18 251.42 92.65 251.65 93.39 252.03L94.3 253.74C94.56 253.99 94.71 254.15 94.78 254.21C94.91 254.34 94.99 254.53 94.99 254.72C94.99 255.12 94.99 256.12 94.99 257.73L95.21 258.3L98.75 261.6L99.78 262.63L100.92 263.2L101.83 264L102.06 265.14L102.06 268.33C102.14 268.54 102.19 268.67 102.21 268.73C102.26 268.83 102.36 268.9 102.47 268.9C103.12 268.9 104.89 268.9 105.54 268.9C105.63 268.9 105.71 268.83 105.71 268.74C105.71 268.63 105.71 268.34 105.71 267.88C105.7 267.85 105.69 267.83 105.69 267.83C105.49 267.17 105.73 266.46 106.28 266.05C106.28 266.05 106.28 266.05 106.28 266.05L110.15 266.28L111.52 267.88L112.78 269.36C112.82 269.53 112.84 269.63 112.85 269.68C112.88 269.76 112.94 269.84 113.02 269.88C113.26 270 113.67 270.2 113.86 270.3C114.11 270.42 114.27 270.67 114.29 270.94C114.27 270.65 114.33 271.45 114.49 273.35C114.52 273.82 114.7 274.13 115.02 274.26L116.39 274.83L118.44 275.63L125.63 279.73L126.54 280.53L131.1 280.53L132.13 281.44L134.98 284.18L138.28 286.35L139.54 287.26L141.82 287.49L143.53 289.08L145.35 290.45L146.04 290.91L148.2 290.91L148.89 289.54L151.74 286.01L152.42 285.66L159.04 286.01L160.41 286.35L161.2 287.26L163.14 289.54L164.28 290.45L165.88 290.91L167.13 290.45L167.93 290.91L169.19 291.48L170.67 291.71L172.04 293.53L173.97 294.44L176.71 296.38C179.75 298.59 181.58 299.65 182.18 299.57C182.79 299.5 183.25 299.57 183.55 299.8L184.12 300.72L185.72 302.65C187.24 303.72 188.3 304.36 188.91 304.59C189.52 304.82 190.28 305.05 191.19 305.28L193.13 304.59L197.35 304.25L201 303.57L204.53 302.65L206.81 302.31L208.64 302.31L209.66 301.97C210.2 301.74 210.43 301.97 210.35 302.65C210.27 303.34 210.46 303.87 210.92 304.25L211.15 305.85C211.61 306.52 211.9 306.94 212.02 307.1C212.12 307.25 212.17 307.42 212.17 307.6C212.17 307.88 212.17 308.59 212.17 309.72C212.17 310 212.17 310.17 212.17 310.24C212.17 310.57 212.29 310.89 212.5 311.14C212.69 311.36 212.94 311.66 213.13 311.88C213.32 312.1 213.4 312.4 213.35 312.68C213.3 312.95 213.17 313.64 212.97 314.74L212.63 316.56L212.63 318.28C212.86 318.57 213 318.75 213.06 318.83C213.29 319.12 213.65 319.29 214.03 319.26C214.6 319.22 216.04 319.12 218.33 318.96L222.32 318.96C224.91 319.13 226.52 319.23 227.17 319.28C227.42 319.29 227.65 319.42 227.8 319.63C228.07 320.02 228.61 320.79 228.87 321.17C229.06 321.43 229.35 321.61 229.67 321.66C229.33 321.61 230.19 321.73 232.24 322.04C232.76 322.11 233.52 322.11 234.52 322.04L240.68 322.04L247.29 322.38L248.21 323.98L249.8 325.91L251.63 326.26L253.57 328.08L254.14 330.25C254.59 331.77 255.43 332.38 256.64 332.07C258.47 331.62 259.15 332.07 260.18 331.27C260.86 330.74 261.58 329.87 262.35 328.65C262.45 328.14 262.51 327.82 262.54 327.69C262.56 327.58 262.63 327.48 262.73 327.42C262.86 327.34 263.19 327.14 263.71 326.83C264.02 326.68 264.13 326.41 264.06 326.03C263.99 325.72 263.53 325.29 262.68 324.76C262.47 324.63 262.35 324.4 262.35 324.15C262.35 324 262.35 323.78 262.35 323.59C262.35 323.48 262.42 323.38 262.52 323.35C262.63 323.31 262.92 323.22 263.37 323.06C263.52 322.63 263.61 322.35 263.65 322.24C263.69 322.12 263.64 321.99 263.54 321.91C263.41 321.82 263.09 321.6 262.57 321.24C262.57 320.77 262.57 320.47 262.57 320.35C262.57 320.28 262.64 320.22 262.71 320.23C263.36 320.29 264.99 320.43 267.59 320.67L271.81 320.9C276.07 320.9 278.74 320.9 279.8 320.9C280.1 320.9 280.38 320.97 280.64 321.11C281.07 321.34 282.16 321.91 283.9 322.84L289.03 325.46C290.74 326.14 291.88 326.6 292.45 326.83C293.02 327.06 295.03 328.16 298.49 330.13L300.09 330.82L301.57 329.91C302.16 329.26 302.53 328.86 302.68 328.69C302.76 328.61 302.75 328.48 302.66 328.4C302.59 328.34 302.42 328.2 302.14 327.97C301.22 327.97 300.64 327.97 300.41 327.97C300.23 327.97 300.09 327.82 300.09 327.64C300.09 326.96 300.09 325.26 300.09 324.58C300.09 324.35 300.23 324.15 300.44 324.07C300.55 324.03 300.4 324.09 300.47 324.06C300.79 323.94 301 323.64 301 323.3C301 322.95 301 322.07 301 320.67L301 318.96L300.43 317.13L300.09 316.34C299.52 315.98 299.17 315.75 299.03 315.66C298.91 315.59 298.76 315.59 298.64 315.67C298.52 315.76 298.34 315.89 298.22 315.98C298.1 316.06 297.96 316.09 297.82 316.05C297.7 316.01 297.68 316.01 297.59 315.98C297.38 315.92 297.24 315.73 297.24 315.51C297.24 315.06 297.24 314.29 297.24 313.9C297.24 313.52 296.98 313.19 296.62 313.1C296.46 313.06 296.05 312.96 295.41 312.8L294.5 311.66C294.19 311.1 294 310.74 293.92 310.6C293.86 310.48 293.85 310.33 293.91 310.21C294.07 309.88 294.45 309.08 295.07 307.78C295.07 307.38 295.07 307.13 295.07 307.03C295.07 306.94 295.01 306.87 294.92 306.86C294.65 306.83 293.98 306.76 292.9 306.64L289.26 306.64C288.73 306.87 288.41 307.01 288.28 307.06C287.9 307.22 287.46 307.15 287.16 306.87C286.99 306.71 286.94 306.67 286.76 306.51C286.47 306.23 286.32 305.84 286.36 305.44C286.39 305.13 286.44 304.69 286.47 304.34C286.5 304.06 286.42 303.79 286.25 303.57C286.1 303.38 285.73 302.93 285.15 302.2C285.15 302.2 285.15 302.2 285.15 302.2C285.15 301.71 285.57 301.34 286.06 301.4C286.56 301.46 287.82 301.61 289.83 301.86L293.36 301.06L295.07 301.29L296.1 301.86C296.62 301.86 296.95 301.86 297.08 301.86C297.38 301.86 297.64 301.66 297.74 301.38C297.8 301.2 297.9 300.9 297.98 300.66C298.01 300.56 298.11 300.49 298.22 300.49C298.84 300.49 300.52 300.49 301.34 300.49C301.89 300.49 302.39 300.49 302.82 300.49L303.62 300.49C304 300.58 304.23 300.64 304.32 300.66C304.45 300.69 304.59 300.65 304.68 300.55C304.86 300.36 305.14 300.04 305.29 299.88C305.46 299.68 305.7 299.56 305.96 299.53C306.17 299.5 306.68 299.44 307.5 299.35C308.19 299.45 308.62 299.51 308.8 299.53C308.98 299.56 309.16 299.47 309.26 299.32C309.34 299.19 309.44 299.02 309.53 298.89C309.62 298.74 309.69 298.58 309.73 298.41C309.78 298.18 309.91 297.62 310.12 296.72L311.83 293.99C312.21 293.23 312.14 292.7 311.6 292.39C311.07 292.09 310.43 291.74 309.67 291.36L307.5 290.91C305.83 290.91 304.78 290.91 304.36 290.91C304.04 290.91 303.73 290.76 303.53 290.51C303.41 290.36 303.28 290.19 303.13 290.01C303.01 289.86 302.82 289.77 302.63 289.77C302.33 289.77 301.6 289.77 300.43 289.77C299.77 290.24 299.36 290.53 299.2 290.65C298.97 290.81 298.68 290.88 298.4 290.82C298.17 290.77 297.59 290.65 296.67 290.45C295.96 290.36 295.52 290.31 295.35 290.29C295.02 290.25 294.71 290.1 294.47 289.88C294.16 289.58 293.41 288.87 293.05 288.54C292.95 288.45 292.84 288.38 292.71 288.35C292.37 288.27 291.52 288.06 290.17 287.72L288.23 286.92L285.72 286.92C284.92 287.2 284.39 287.39 284.12 287.49C283.99 287.53 283.92 287.62 283.92 287.75C283.9 287.92 283.76 288.06 283.59 288.06C283.26 288.06 283.09 288.06 282.89 288.06C282.31 288.06 281.78 287.75 281.48 287.26C281.45 287.21 281.38 287.1 281.27 286.92L280.02 286.35L278.08 286.01L276.6 285.66L274.43 286.35L272.38 286.01L270.44 286.69L269.41 286.35C268.33 286.2 267.65 286.11 267.38 286.07C267.09 286.03 266.86 285.82 266.8 285.54C266.77 285.41 266.69 285.07 266.56 284.52L268.05 283.16L270.44 281.44L272.04 281.79C272.55 282.04 272.87 282.2 273 282.27C273.26 282.4 273.56 282.4 273.82 282.28C273.96 282.21 274.32 282.05 274.89 281.79L276.94 281.44L278.08 281.1C278.34 280.96 278.5 280.87 278.56 280.84C278.9 280.65 279.11 280.29 279.11 279.91C279.11 279.82 279.11 279.61 279.11 279.28L276.94 277.91C276.42 277.39 276.09 277.06 275.96 276.93C275.86 276.83 275.83 276.69 275.87 276.56C275.96 276.25 276.21 275.49 276.6 274.26L276.6 273.01L275.8 271.87L273.41 271.07L271.81 271.3C270.9 271.41 270.29 271.49 269.98 271.52C269.72 271.56 269.38 271.27 268.96 270.67C268.89 270.56 268.77 270.51 268.64 270.52C268.07 270.58 266.9 270.71 266.41 270.77C266 270.81 265.59 270.68 265.3 270.39C265 270.1 264.24 269.38 263.03 268.22C262.05 267.13 261.43 266.44 261.19 266.17C261.05 266.02 260.86 265.93 260.66 265.92C259.89 265.88 257.94 265.77 254.82 265.59L253.45 265.14C250.66 262.52 248.8 260.77 247.86 259.89C247.23 259.3 246.7 259.31 246.28 259.93C246.08 260.23 245.69 260.31 245.38 260.13C245.31 260.08 245.5 260.2 245.4 260.14C245.17 259.99 244.87 260 244.64 260.16C244.4 260.33 243.88 260.7 243.6 260.9C243.48 260.99 243.34 261.02 243.2 260.99C243.08 260.97 242.77 260.9 242.28 260.81C241.2 260.81 240.53 260.81 240.26 260.81C239.98 260.81 239.75 260.59 239.72 260.32C239.69 259.91 239.61 259.04 239.57 258.6C239.55 258.4 239.47 258.22 239.33 258.08C239.02 257.76 238.26 256.96 237.03 255.67L233.84 254.88C233.04 254.31 232.51 253.93 232.24 253.74C232.1 253.64 231.9 253.43 231.63 253.11C231.29 252.71 230.8 252.48 230.28 252.48C229.97 252.48 229.84 252.48 229.53 252.48C229.04 252.48 228.62 252.16 228.49 251.69C228.38 251.26 228.27 250.85 228.16 250.44C228 249.86 227.57 249.4 227.01 249.2C226.8 249.13 226.72 249.1 226.42 248.99C226.14 248.89 225.92 248.66 225.82 248.37C225.67 247.9 225.4 247.04 225.25 246.6C225.13 246.21 224.84 245.89 224.47 245.73C224.27 245.64 224.73 245.84 224.64 245.81C223.9 245.49 223.34 244.84 223.13 244.05C223.35 244.88 223.27 244.58 222.89 243.13C222.82 242.86 223.06 242.66 223.62 242.52C223.78 242.48 223.87 242.31 223.81 242.16C223.77 242.03 223.65 241.71 223.46 241.19C223.46 240.57 223.46 240.19 223.46 240.03C223.46 239.85 223.6 239.69 223.78 239.66C223.99 239.62 224.17 239.59 224.35 239.56C224.64 239.51 224.88 239.3 224.96 239.01C225 238.84 225.11 238.43 225.29 237.77C225.85 236.71 226.2 236.04 226.34 235.78C226.39 235.67 226.5 235.61 226.62 235.61C226.79 235.61 227.22 235.61 227.91 235.61C229.03 236.2 229.74 236.56 230.02 236.71C230.11 236.76 230.2 236.66 230.16 236.57C229.97 236.18 229.48 235.22 228.71 233.67L230.08 231.5L231.1 230.7L233.84 231.16L236.46 231.04L238.74 230.7C240.03 230.43 240.84 230.27 241.16 230.2C241.35 230.16 241.48 230 241.48 229.81C241.48 229.4 241.48 228.32 241.48 227.87C241.48 227.79 241.53 227.72 241.6 227.69C241.92 227.56 242.5 227.33 242.75 227.23C243.03 227.12 243.22 226.88 243.28 226.6C243.35 226.29 243.51 225.53 243.76 224.32C243.64 223.78 243.56 223.45 243.53 223.31C243.46 223.02 243.23 222.8 242.94 222.74C242.85 222.72 242.63 222.68 242.28 222.61C241.86 222.48 241.59 222.4 241.49 222.37C241.26 222.3 241.06 222.16 240.93 221.96C240.82 221.8 240.55 221.41 240.11 220.78C239.66 220.22 239.38 219.87 239.27 219.73C239.22 219.67 239.16 219.64 239.09 219.63C238.69 219.59 237.7 219.48 236.12 219.3L233.5 218.5L230.65 217.93C229.93 217.33 229.48 216.95 229.31 216.8C229.21 216.72 229.1 216.67 228.98 216.65C228.46 216.58 227.15 216.4 225.06 216.11L221.07 216.11L218.33 216.11L215.94 216.91C215.19 217.22 214.73 217.42 214.54 217.5C214.42 217.55 214.28 217.52 214.2 217.42C213.95 217.09 213.31 216.27 212.29 214.97L209.89 214.28L207.95 214.28L206.24 213.71C206.2 213.65 206.18 213.61 206.17 213.6C205.98 213.31 205.57 213.29 205.35 213.55C205.24 213.68 204.97 214 204.53 214.51L203.51 216.68L202.82 217.82L200.43 219.64L199.52 220.78C199.68 221.38 199.78 221.75 199.82 221.89C199.84 221.98 199.92 222.04 200.01 222.05C200.39 222.1 201.13 222.18 201.45 222.21C201.73 222.25 201.97 222.43 202.07 222.7C202.14 222.88 202.32 223.35 202.6 224.09L203.28 225.23L202.25 227.51L200.09 229.22L198.95 230.13L198.1 230.31L196.05 229.56C194.99 229.4 194.33 229.3 194.06 229.26C193.96 229.25 193.9 229.37 193.97 229.44C194.12 229.61 194.51 230.03 195.14 230.7L197.07 231.16L198.44 231.5L199.86 231.84C201.04 232.88 201.29 233.85 200.61 234.76C199.99 235.58 199.34 235.84 198.65 235.54C198.52 235.48 198.37 235.5 198.26 235.58C198.01 235.78 197.39 236.26 196.39 237.04L194.79 237.77C193.43 238.74 192.51 239.39 192.06 239.71C191.63 240.01 190.18 240.15 187.7 240.12C187.52 240.12 187.36 240.25 187.33 240.44C186.8 243.48 186.33 244.94 185.9 244.8C185.44 244.64 184.99 245.37 184.53 246.96C183.96 247.38 183.6 247.64 183.46 247.74C183.36 247.82 183.33 247.96 183.4 248.06C183.61 248.38 184.14 249.17 184.99 250.43C185.37 252.22 185.29 253.23 184.76 253.46C184.23 253.69 184.02 254.16 184.12 254.88L186.81 259.05C188.03 259.58 188.79 259.91 189.09 260.04C189.28 260.12 189.36 260.34 189.28 260.53C189.14 260.81 188.82 261.51 188.29 262.63C187.65 262.95 187.25 263.16 187.09 263.24C186.92 263.33 186.8 263.5 186.78 263.7C186.72 264.36 186.55 266.19 186.48 266.89C186.48 266.97 186.42 267.05 186.33 267.07C186.21 267.11 186.15 267.13 186.07 267.15C185.85 267.22 185.61 267.18 185.42 267.04C184.88 266.63 183.52 265.62 181.34 264L179.06 263.2L177.01 261.6L172.9 262.01L169.02 261.6L167.13 262.01L165.6 261.79C164.39 260.71 163.44 260.38 162.75 260.81C162.07 261.23 161.23 261.63 160.24 262.01L158.53 262.81L157.96 265.59C157.44 265.88 157.12 266.06 156.99 266.13C156.81 266.22 156.68 266.39 156.64 266.59C156.54 267.02 156.32 267.94 156.23 268.36C156.18 268.56 155.97 268.69 155.76 268.63C156.01 268.7 155.68 268.6 154.77 268.33C154.54 268.26 153.82 267.58 152.6 266.28L150.21 264.75L148.73 263.84L146.33 262.36C145.01 262.19 144.18 262.09 143.85 262.05C143.66 262.03 143.5 261.89 143.44 261.7C143.39 261.5 143.25 261 143.03 260.19L141.82 259.39C140.13 259.39 139.07 259.39 138.65 259.39C138.54 259.39 138.45 259.32 138.42 259.22C138.38 259.07 138.28 258.71 138.12 258.14C136.39 257.07 135.3 256.41 134.87 256.14C134.7 256.04 134.62 255.84 134.67 255.65C134.61 255.86 134.93 254.62 135.61 251.91C135.78 251.24 134.91 250.92 132.99 250.95L130.71 249.36L128.09 248.56L120.56 242.45C119.53 242.31 118.88 242.23 118.62 242.2C118.51 242.18 118.42 242.11 118.39 242.01C118.32 241.81 118.22 241.5 118.16 241.34C118.09 241.15 117.93 241.01 117.74 240.97C117.57 240.94 117.44 240.91 117.29 240.88C117.05 240.83 116.83 240.69 116.69 240.49C116.61 240.39 116.42 240.13 116.12 239.71L112.89 237.61C112.13 237.53 111.65 237.48 111.46 237.46C111.01 237.41 110.59 237.19 110.29 236.84C109.88 236.36 108.84 235.15 107.19 233.21Z" id="province05">			
		</path>
	</defs>
	<g><g>
		<g>
			<use xlink:href="#province05"></use>
		</g>
	</g></g>
</svg>