<!-- 
	If you find my work useful in any of your projects and want to use it, you are free
	to use, but please appreciate my work and give a reference.

	Author: Dipesh Bajgain
	Email: dipbazz@gmail.com
	Facebook: facebook.com/dipbazz
-->

<svg version="1.1" xmlns="http://www.w3.org/2000/svg" xmlns:xlink="http://www.w3.org/1999/xlink" preserveAspectRatio="xMidYMid meet" viewBox="223.61314394209398 175.68077236407322 183.20564139848727 150.87990422567873" width="179.21" height="146.88">
	<defs>
		<style>
			#province04{
				opacity: 1;
				fill: #cccccc;
				fill-opacity: 1;
				stroke-width: 0.6px;
				stroke-opacity: 1;
				stroke: #000000;
			}
		</style>
		<path d="M305.94 321.15C305.84 320.78 305.78 320.55 305.75 320.46C305.66 320.12 305.8 319.76 306.09 319.57C306.2 319.51 306.45 319.35 306.85 319.09C307.24 318.43 307.48 318.01 307.58 317.84C307.62 317.77 307.61 317.69 307.55 317.63C307.32 317.42 306.76 316.92 306.54 316.71C306.45 316.64 306.44 316.52 306.49 316.42C306.57 316.29 306.77 315.96 307.08 315.44C307.57 315 307.87 314.72 308 314.61C308.2 314.43 308.49 314.4 308.72 314.55C308.83 314.62 309.12 314.81 309.59 315.1L312.44 315.44C312.56 315.44 312.63 315.44 312.66 315.44C313.24 315.44 313.78 315.17 314.12 314.7C314.19 314.6 313.97 314.9 314.07 314.77C314.33 314.4 314.76 314.19 315.2 314.19C315.26 314.19 315.4 314.19 315.63 314.19C317.55 314.24 318.75 314.28 319.23 314.29C319.54 314.3 319.84 314.14 320 313.87C320.17 313.61 320.57 312.96 321.22 311.91C322.59 311 324.03 309.86 325.55 308.49C327.07 307.12 329.01 306.32 331.37 306.09L334.1 305.18L337.64 302.79L338.78 302.79C339.68 303.49 340.25 303.93 340.47 304.1C340.69 304.27 340.99 304.29 341.22 304.14C341.73 303.83 342.59 303.3 343.03 303.03C343.49 302.75 343.71 302.21 343.59 301.69C343.54 301.48 343.47 301.17 343.39 300.83C343.36 300.7 343.41 300.57 343.52 300.5C343.72 300.37 344.23 300.03 345.05 299.48C345.94 299.09 346.49 298.85 346.71 298.75C346.79 298.72 346.81 298.62 346.75 298.55C346.7 298.5 346.4 298.22 345.86 297.74C345.57 297.47 344.57 297.67 344.25 297.2C343.42 295.99 343.47 294.94 344.4 294.06C344.67 293.81 345.03 293.67 345.4 293.67C346.56 293.67 349.27 293.67 350.39 293.67C350.87 293.67 351.3 293.35 351.44 292.88C351.46 292.81 351.38 293.1 351.42 292.96C351.5 292.7 351.73 292.52 352 292.52C352.32 292.52 352.94 292.52 353.28 292.52C353.47 292.52 353.64 292.4 353.7 292.22C353.73 292.13 353.82 291.88 353.94 291.5L354.4 290.59L356.57 289.45L360.33 289.45L363.29 291.95C363.5 292.82 363.63 293.36 363.68 293.58C363.72 293.78 363.85 293.95 364.03 294.04C364.54 294.3 365.09 294.53 365.68 294.73C366.42 294.98 367.22 295.54 368.08 295.26C369.65 294.76 370.6 294.22 370.94 293.63C371.01 293.51 371.01 293.36 370.94 293.25C370.8 293.01 370.46 292.43 369.91 291.5C368.76 290.01 368.05 289.08 367.76 288.71C367.67 288.59 367.63 288.46 367.63 288.32C367.63 287.94 367.63 286.98 367.63 285.46C368.11 284.44 368.42 283.8 368.54 283.54C368.76 283.09 369.16 282.76 369.64 282.63C369.71 282.61 369.87 282.56 370.14 282.49L371.16 281.35C371.59 280.71 371.86 280.3 371.97 280.14C372.18 279.83 372.53 279.64 372.91 279.64C373.04 279.64 373.05 279.64 373.23 279.64C373.42 279.64 373.58 279.5 373.6 279.32C373.64 279.04 373.74 278.35 373.9 277.25L375.07 274.05C375.28 272.3 375.72 271.13 376.41 270.52C377.09 269.91 378.08 269.76 379.37 270.06L381.42 271.43C382.03 271.28 382.45 270.97 382.68 270.52C382.91 270.06 383.67 269.68 384.96 269.38L385.3 266.75L385.87 264.82L385.3 263.33C386.29 262.4 387.22 261.54 388.09 260.76C388.78 260.14 389.97 259.99 390.5 259.4C390.86 259 390.67 258.2 390.77 257.63C391.23 255.12 392.48 253.45 394.54 252.62L396.93 252.16C397.55 250.48 397.94 249.42 398.09 249C398.15 248.84 398.13 248.65 398.03 248.51C397.08 247.06 396.63 245.77 396.7 244.63C396.76 243.82 396.97 243.14 397.36 242.61C397.74 242.08 398.33 241.75 398.97 241.69C399.25 241.66 398.95 241.69 399.2 241.66C399.89 241.6 400.46 241.1 400.62 240.43C400.83 239.57 401.08 238.92 401.38 238.48C401.83 237.83 403.01 238.2 403.09 237.56C403.22 236.42 402.99 235.3 402.39 234.2C402.26 233.96 402.29 233.66 402.47 233.45C402.75 233.11 403.44 232.29 403.75 231.91C403.83 231.81 403.84 231.68 403.77 231.57C403.64 231.35 403.44 231.05 403.33 230.88C403.18 230.63 402.93 230.45 402.65 230.38C402.4 230.31 402.03 230.21 401.76 230.14C401.51 230.07 401.28 229.94 401.1 229.76C400.77 229.43 399.95 228.61 398.64 227.3L397.27 227.07C396.8 227.4 396.5 227.6 396.38 227.69C395.81 228.08 395.07 228.1 394.48 227.75C394.33 227.66 394.72 227.89 394.54 227.78C394.07 227.5 393.47 227.58 393.09 227.97C392.47 228.59 390.94 230.16 388.49 232.66C388.27 233.32 388.14 233.74 388.08 233.9C387.98 234.2 387.76 234.45 387.48 234.59C387.27 234.7 386.73 234.97 385.87 235.4C385.65 235.4 385.51 235.4 385.46 235.4C385.03 235.4 384.65 235.11 384.54 234.7C384.51 234.59 384.55 234.75 384.51 234.59C384.44 234.32 384.2 234.14 383.93 234.14C383.81 234.14 383.51 234.14 383.02 234.14L380.4 235.06C379.05 235.56 378.21 235.88 377.87 236C377.74 236.05 377.59 236.05 377.45 235.99C376.63 235.64 375.84 235.23 375.07 234.76C373.98 234.1 372.95 233.02 371.96 232.89C370.21 232.66 368.77 232.28 367.63 231.75C367.43 231.4 367.31 231.18 367.26 231.1C367.14 230.87 366.89 230.72 366.63 230.72C366.33 230.72 365.64 230.72 365.28 230.72C365.19 230.72 365.12 230.65 365.12 230.56C365.12 229.91 365.12 228.63 365.12 228.11C365.12 227.66 364.76 227.3 364.31 227.3C364.11 227.3 364.07 227.3 363.8 227.3C363.48 227.3 363.18 227.16 362.97 226.91C362.35 226.14 360.76 224.18 360.13 223.4C359.97 223.2 359.72 223.08 359.46 223.08C358.63 223.08 356.8 223.08 356.03 223.08C355.57 223.08 355.11 222.93 354.74 222.65C354.67 222.6 354.81 222.71 354.69 222.62C354.5 222.47 354.27 222.4 354.04 222.4C353.48 222.4 352.08 222.4 349.84 222.4C349.61 222.67 349.47 222.84 349.41 222.91C349.33 223.01 349.19 223.03 349.08 222.96C348.23 222.39 345.79 220.76 344.92 220.18C344.86 220.14 344.83 220.07 344.84 220C344.88 219.71 344.95 219.19 344.99 218.95C345.03 218.68 344.94 218.4 344.76 218.2C344.61 218.03 344.39 217.79 344.23 217.61C344.09 217.46 344.01 217.28 343.99 217.08C343.95 216.78 343.87 216.18 343.84 215.88C343.81 215.69 343.66 215.54 343.48 215.52C343.17 215.48 342.58 215.4 342.27 215.37C342.1 215.35 341.97 215.2 341.97 215.03C341.97 214.7 341.97 214.28 341.97 214.01C341.97 213.66 341.68 213.37 341.33 213.37C340.96 213.37 340.03 213.37 338.55 213.37L333.99 212.36L331.71 210.77C330.26 211.22 329.2 211.22 328.52 210.77C327.83 210.31 327.6 209.32 327.82 207.8C329.2 203.24 329.85 200.54 329.77 199.71C329.69 198.87 329.16 198.38 328.17 198.23C327.11 198.53 326.35 198.64 325.89 198.57C325.44 198.49 325.21 198.07 325.21 197.31C325.12 196.6 325.06 196.16 325.04 195.98C325 195.66 325.07 195.34 325.24 195.07C325.33 194.93 325.55 194.57 325.89 194.01C325.89 193.28 325.89 192.83 325.89 192.65C325.89 192.58 325.85 192.51 325.77 192.48C325.5 192.37 325.07 192.21 324.86 192.13C324.58 192.02 324.34 191.79 324.23 191.5C324.14 191.31 323.94 190.81 323.61 190.02L323.41 187.5C323.73 186.49 323.94 185.86 324.02 185.61C324.05 185.51 324.13 185.44 324.22 185.41C324.45 185.34 325 185.16 325.89 184.88C326.06 184.11 326.16 183.62 326.21 183.43C326.22 183.36 326.17 183.29 326.09 183.29C325.92 183.29 325.51 183.29 325.32 183.29C325.25 183.29 325.19 183.33 325.15 183.39C325.07 183.53 325.01 183.64 324.96 183.73C324.83 183.94 324.59 184.06 324.35 184.03C324.19 184.01 323.79 183.95 323.16 183.86C322.44 183.95 321.99 184.01 321.81 184.04C321.58 184.07 321.34 184 321.17 183.84C321.04 183.73 320.85 183.56 320.69 183.43C320.59 183.34 320.46 183.29 320.32 183.29C320.07 183.29 319.77 183.29 319.58 183.29C319.27 183.29 319.01 183.07 318.95 182.77C318.91 182.51 318.82 182.06 318.77 181.76C318.73 181.58 318.81 181.4 318.96 181.3C319.1 181.22 319.16 181.18 319.28 181.11C319.45 181 319.46 180.76 319.31 180.63C319.1 180.46 318.67 180.1 318.43 179.9C318.32 179.81 318.17 179.78 318.04 179.84C318 179.86 317.88 179.9 317.68 179.98L315.63 179.98L314.72 179.52L313.46 179.98C312.78 179.98 312.35 179.98 312.18 179.98C311.99 179.98 311.81 179.87 311.73 179.7C311.66 179.57 311.57 179.39 311.5 179.24C311.45 179.14 311.34 179.07 311.22 179.07C310.89 179.07 310.21 179.07 309.91 179.07C309.72 179.07 309.55 178.94 309.5 178.76C309.45 178.6 309.44 178.56 309.4 178.43C309.31 178.13 309.4 177.79 309.65 177.58C309.73 177.52 309.59 177.64 309.67 177.56C309.83 177.42 309.78 177.16 309.58 177.09C309.26 176.98 308.78 176.82 308.47 176.72C308.18 176.62 307.86 176.71 307.67 176.94C307.51 177.14 307.34 177.35 307.17 177.54C306.98 177.78 306.66 177.87 306.37 177.79C305.99 177.68 305.29 177.48 304.9 177.37C304.61 177.29 304.3 177.29 304.02 177.37C303.86 177.41 303.48 177.52 302.86 177.7C301.63 177.81 300.86 177.87 300.55 177.9C300.36 177.92 300.19 178.04 300.11 178.22C300.03 178.44 299.9 178.74 299.82 178.94C299.73 179.15 299.51 179.28 299.28 179.27C297.8 179.15 296.83 179.16 296.36 179.3C295.83 179.45 295.52 180.17 295.45 181.46C295.18 182.18 295.01 182.63 294.94 182.81C294.83 183.1 294.56 183.29 294.26 183.29C294.02 183.29 293.65 183.29 293.37 183.29C293.17 183.29 292.99 183.39 292.9 183.56C292.84 183.66 292.81 183.72 292.75 183.82C292.66 183.98 292.48 184.06 292.3 184.03C292.19 184 291.91 183.95 291.46 183.86C290.05 183.86 289.17 183.86 288.82 183.86C288.68 183.86 288.55 183.91 288.45 184C288.16 184.27 287.56 184.83 287.3 185.07C287.11 185.25 286.88 185.37 286.62 185.44C286.08 185.58 285.52 185.73 285.15 185.82C284.64 185.95 284.5 186.6 284.9 186.93C284.94 186.96 285.04 187.04 285.19 187.16L285.64 188.99L286.67 190.81L286.9 192.75L285.87 193.32L284.73 194.01L283.48 194.46C283.24 194.58 283.1 194.65 283.04 194.68C282.66 194.87 282.51 195.34 282.73 195.72C282.83 195.9 282.8 195.85 282.92 196.05C283.12 196.4 283.08 196.83 282.83 197.15C282.77 197.23 282.6 197.44 282.34 197.77L282.34 202.56C282.16 203.12 282.05 203.47 282.01 203.61C281.93 203.88 281.73 204.11 281.47 204.23C281.27 204.33 280.76 204.57 279.94 204.95C276.43 208.77 274.23 211.15 273.35 212.1C273.26 212.2 273.2 212.32 273.17 212.45C273.09 212.84 272.9 213.73 272.82 214.1C272.78 214.3 272.65 214.46 272.46 214.54C272.25 214.63 271.81 214.81 271.57 214.91C271.46 214.96 271.4 215.07 271.41 215.18C271.47 215.63 271.62 216.74 271.84 218.52L271.16 219.66L265.35 221.71C264.85 221.71 264.53 221.71 264.41 221.71C264.13 221.71 263.86 221.81 263.64 221.98C263.35 222.2 262.62 222.76 261.47 223.65L257.93 223.65L256 224.11L252.46 223.77L250.41 223.31L249.38 223.77L247.67 223.31C246.53 223.06 245.82 222.91 245.54 222.85C245.29 222.79 245.05 222.98 245.05 223.24C245.05 223.48 245.05 224.07 245.05 225.02L244.14 227.99C243.59 228.23 243.25 228.39 243.11 228.45C242.97 228.52 242.88 228.65 242.87 228.81C242.85 229.23 242.8 230.18 242.79 230.58C242.78 230.81 242.63 231 242.42 231.08C242.18 231.17 241.57 231.39 240.6 231.75L237.75 232.43L234.44 232.66L232.51 232.43L231.14 232.43C230.87 232.63 230.7 232.76 230.63 232.81C230.37 233.01 230.2 233.3 230.17 233.62C230.16 233.73 230.17 233.63 230.15 233.76C230.13 233.98 230.26 234.19 230.48 234.26C230.56 234.29 230.78 234.37 231.14 234.49L232.28 235.85L232.05 237.11C231.61 237.6 231.33 237.91 231.22 238.03C231.1 238.17 230.92 238.23 230.74 238.2C230.61 238.17 230.29 238.11 229.77 238.02L227.72 237.11C227.45 237.11 227.29 237.11 227.22 237.11C227.11 237.11 227.01 237.18 226.97 237.28C226.75 237.89 226.21 239.42 226 240C225.94 240.18 225.77 240.3 225.57 240.3C225.56 240.3 225.51 240.3 225.44 240.3C225.23 240.54 225.11 240.68 225.06 240.74C224.89 240.94 224.91 241.24 225.1 241.41C225.26 241.56 225.4 241.68 225.56 241.82C225.74 241.99 225.75 242.27 225.57 242.44C225.53 242.49 225.4 242.61 225.21 242.81C224.93 243.02 224.76 243.15 224.69 243.2C224.6 243.26 224.59 243.39 224.66 243.47C224.72 243.53 224.86 243.69 225.09 243.95L226.35 245.77C226.63 246.34 226.81 246.69 226.88 246.83C227.2 247.48 227.7 248.02 228.33 248.4C228.43 248.46 228.68 248.61 229.08 248.85C229.26 249.38 229.37 249.7 229.41 249.84C229.64 250.51 230.16 251.04 230.83 251.28C230.95 251.32 231.24 251.42 231.71 251.59L234.22 253.64L238.21 254.78L240.6 257.63C240.76 258.3 240.86 258.71 240.89 258.88C240.99 259.28 241.35 259.57 241.77 259.57C241.97 259.57 242.45 259.57 243.22 259.57L243.79 259.23L244.93 258.77C245.31 258.77 245.54 258.77 245.64 258.77C245.77 258.77 245.9 258.72 246 258.62C246.04 258.58 246.14 258.48 246.3 258.32C246.79 258.17 247.1 258.08 247.23 258.04C247.37 258 247.52 258.01 247.65 258.07C247.79 258.13 248.14 258.29 248.7 258.55C250.44 260.38 251.83 261.76 252.88 262.71C253.74 263.48 254.29 264.22 254.74 264.25C255.75 264.3 257.76 264.42 260.78 264.59L262.04 265.27C264.38 268.05 265.78 269.42 266.26 269.38C266.73 269.34 267.68 269.26 269.11 269.15L270.48 270.06L274.01 269.61L276.63 270.52L278.12 272.57L278 274.62C277.79 275.35 277.65 275.81 277.6 275.99C277.51 276.31 277.69 276.63 278 276.72C278.36 276.83 278.78 277.04 279.26 277.36C279.94 277.82 280.43 278.46 280.74 279.3L280.17 281.35L278.57 282.49L276.63 282.83L274.47 283.52L272.53 283.52L270.48 282.83C269.7 283.61 269.21 284.1 269.01 284.3C268.84 284.47 268.88 284.77 269.11 284.89C269.11 284.89 269.11 284.89 269.11 284.89L270.82 285.23C271.38 285.01 271.73 284.87 271.88 284.82C272.15 284.71 272.46 284.7 272.74 284.77C273.09 284.86 273.69 285.02 274.03 285.11C274.31 285.19 274.6 285.13 274.83 284.97C274.89 284.93 275.03 284.82 275.27 284.66L277.09 284.43L278.57 284.43L281.31 284.89C281.65 285.37 281.86 285.68 281.94 285.8C282.18 286.15 282.6 286.32 283.01 286.25C283.1 286.24 283.34 286.2 283.7 286.14L285.19 285.23L286.67 285.23L289.75 285.91L293.97 287.39C294.43 287.94 294.71 288.28 294.83 288.41C295.08 288.71 295.44 288.9 295.82 288.94C296.34 289 297.41 289.11 297.96 289.17C298.26 289.2 298.56 289.16 298.84 289.06C299.02 288.99 299.49 288.81 300.24 288.53L303.54 288.53C304.18 288.96 304.58 289.22 304.73 289.33C304.85 289.41 304.99 289.45 305.13 289.47C305.72 289.53 307.21 289.67 309.59 289.9L312.32 290.81C312.81 291.58 313.11 292.06 313.23 292.26C313.38 292.5 313.43 292.8 313.36 293.08C313.29 293.32 313.14 293.94 312.89 294.92C312.28 295.88 311.9 296.48 311.75 296.72C311.45 297.19 311.23 297.7 311.09 298.24C311.03 298.5 310.87 299.14 310.61 300.16C310.28 300.43 310.06 300.59 309.98 300.66C309.73 300.85 309.41 300.93 309.1 300.88C308.9 300.84 308.42 300.76 307.65 300.62L306.17 301.19C305.59 301.59 305.23 301.84 305.09 301.94C304.83 302.12 304.51 302.18 304.2 302.11C304.13 302.09 303.95 302.05 303.66 301.99C301.57 301.99 300.26 301.99 299.74 301.99C299.55 301.99 299.36 302.06 299.23 302.2C299.12 302.31 298.85 302.58 298.41 303.02C297.61 303.25 297.11 303.4 296.91 303.46C296.63 303.54 296.34 303.5 296.09 303.34C295.98 303.27 295.69 303.08 295.22 302.79L293.62 302.56L290.32 303.02C289.1 303.02 288.33 303.02 288.03 303.02C287.81 303.02 287.66 303.23 287.74 303.43C287.76 303.5 287.82 303.66 287.92 303.93L288.15 304.61C288.15 304.69 288.15 304.75 288.15 304.77C288.15 305.11 288.45 305.37 288.79 305.32C289.23 305.26 289.74 305.21 290.32 305.17C292.58 305.01 294.67 305.01 295.45 305.18C296.51 305.41 297.01 306.17 296.93 307.46L295.68 310.2L295.79 310.88L296.36 311.23C297.73 311.95 298.41 312.44 298.41 312.71C298.41 313.11 298.41 313.86 298.41 314.14C298.41 314.22 298.49 314.28 298.57 314.26C298.7 314.22 299.03 314.12 299.55 313.96L301.15 315.44L302.29 318.18L302.63 320.46C302.58 321.68 302.55 322.45 302.54 322.75C302.53 323.02 302.69 323.26 302.94 323.34C303.13 323.4 303.27 323.45 303.46 323.51C303.73 323.6 304.03 323.57 304.27 323.42C304.42 323.33 304.78 323.1 305.37 322.74L305.94 321.15Z" id="province04">			
		</path>
	</defs>
	<g><g>
		<g>
			<use xlink:href="#province04"></use>
		</g>
	</g></g>
</svg>