<!-- 
	If you find my work useful in any of your projects and want to use it, you are free
	to use, but please appreciate my work and give a reference.

	Author: Dipesh Bajgain
	Email: dipbazz@gmail.com
	Facebook: facebook.com/dipbazz
-->

<svg version="1.1" xmlns="http://www.w3.org/2000/svg" xmlns:xlink="http://www.w3.org/1999/xlink" preserveAspectRatio="xMidYMid meet" viewBox="3.1510019851078823 104.50243387195678 138.4770551542664 145.9215714727502" width="134.48" height="141.92">
	<defs>
		<style>
			#province07{
				opacity: 1;
				fill: #cccccc;
				fill-opacity: 1;
				stroke-width: 0.6px;
				stroke-opacity: 1;
				stroke: #000000;
			}
		</style>
		<path d="M7.9 214.24L9.43 214.84L10.96 216.03L12.75 217.81L15.73 219.77L18.88 219.77L20.07 221.13C19.9 221.64 19.73 222.07 19.56 222.41C19.39 222.75 19.64 223.03 20.32 223.26L21.94 223.43L23.98 224.54L24.24 226.41L24.77 227.09L26.62 228.53C27.34 229.06 27.79 229.38 27.97 229.51C28.29 229.75 28.72 229.8 29.09 229.64C29.09 229.64 29.09 229.64 29.09 229.64L30.7 229.05L31.55 228.7L34.19 229.9L34.87 230.66L35.47 232.36L36.66 233.3L37.85 234.07C38.45 234.63 38.83 234.99 38.98 235.13C39.07 235.21 39.21 235.15 39.21 235.03C39.21 234.98 39.21 234.86 39.21 234.66L38.96 232.02L38.36 230.15L38.36 229.05C38.08 227.85 38.02 227.12 38.19 226.83C38.36 226.55 38.87 226.24 39.72 225.9L40.91 224.96L42.53 225.13L44.57 225.39L45.17 227.43L47.46 228.88L50.78 229.3L52.4 231.51L52.83 233.3L53.76 234.07L58.44 234.66L59.12 236.19L60.23 236.62L60.48 238.06L61.42 238.32L63.12 238.83L63.72 239.51C64.51 239.93 65.01 240.19 65.21 240.29C65.38 240.38 65.6 240.35 65.74 240.21C65.83 240.12 66.07 239.88 66.44 239.51L67.83 239.17L69.16 239.77L69.33 241.13L69.33 242.23L70.35 242.49L71.03 243.25L71.54 242.49L72.27 242.66L72.48 243.51L73.38 243.77L74.27 243.51L74.69 244.45L75.97 243.94L76.99 243.94L78.01 244.79L78.61 245.38L78.92 246.83L80.39 247.42L81.07 246.83L81.63 245.74L82.39 245.28L82.86 244.79L82.86 243.94L83.88 243.25L86.6 241.81L87.71 240.45L88.82 239.51L89.58 238.32C91.59 236.69 92.84 235.68 93.34 235.27C93.84 234.86 94.3 234.41 94.71 233.92C95.02 233.53 95.82 232.56 97.1 231L98.04 229.3L98.86 227.68L98.52 226.41C98.44 225.82 98.39 225.45 98.37 225.31C98.36 225.2 98.29 225.09 98.2 225.03C97.98 224.88 97.71 224.69 97.55 224.58C97.29 224.41 97.18 224.07 97.3 223.78C97.34 223.69 97.43 223.46 97.58 223.09L97.24 222.41L96.64 221.9L96.42 221.6L95.71 219.77L94.97 218.41L94.46 216.79L94.46 216.03L94.09 214.58L93.58 213.81L92.73 213.22C92.56 213.13 92.45 213.07 92.41 213.04C92.13 212.89 91.79 213.09 91.79 213.41C91.79 213.46 91.79 213.6 91.79 213.81L92.05 214.92L91.54 215.09L90.69 214.92L89.84 214.58C89.74 214.48 89.67 214.41 89.65 214.39C89.51 214.24 89.29 214.21 89.11 214.3C89.04 214.34 88.86 214.43 88.56 214.58C88.16 214.47 87.99 213.84 88.05 212.71C88.11 211.57 87.68 211.21 86.77 211.6C86.49 211.89 86.07 212.34 85.5 212.96C84.93 213.59 84.25 213.45 83.46 212.54L81.84 211.43L80.56 211.01L79.46 210.24L78.92 208.79L78.01 207.52L76.82 207.01L75.37 206.05L75.37 205.39L76.48 204.63L78.78 204.63L80.56 203.6L83.46 204.37L85.33 204.8L87.12 206.16L89.24 207.52L91.79 208.79L93.92 209.05L94.77 208.54C95.57 208.14 96 208.14 96.08 208.54C96.16 208.94 96.54 209.11 97.24 209.05L98.52 207.69L100.9 207.69L102.4 209.05C102.86 209.39 103.23 209.79 103.51 210.24C103.79 210.69 104.42 210.69 105.38 210.24L106.23 209.48L107.25 208.79L108.87 208.79L109.98 208.79L110.83 209.48L112.19 209.9L112.19 211.27L112.19 212.11L112.78 213.47L114.06 213.47L114.23 214.15L114.91 215.09L115.25 215.69L116.1 216.2L116.28 216.79L116.53 217.98C116.7 217.33 116.84 217.7 116.96 219.09C116.96 219.1 118.31 220.78 118.32 220.79C118.49 222.92 118.06 220.88 120.36 220.79C121.9 220.74 122.26 220.17 121.46 219.09L121.12 218.24L119.76 217.05L118.91 215.86L118.32 215.09L118.06 214.24L117.89 213.47L116.96 211.86L116.1 210.5L115 209.73L113.89 208.54L112.41 206.75L111.17 206.16L111.17 204.95L110.4 204.8L109.55 203.77C109.49 203.21 109.27 202.6 108.87 201.95C108.47 201.31 108.56 200.52 109.13 199.61L111.17 197.14L113.47 195.27L116.1 194.33L117.89 193.39L119.34 192.31C119.45 191.44 119.31 191.1 118.91 191.27C118.51 191.44 118.17 191.15 117.89 190.42C117.95 189.96 117.72 189.74 117.21 189.74C116.7 189.74 116.05 189.63 115.25 189.43L114.4 187.61L114.06 185.55L114.4 184.29C114.57 183.27 114.51 182.33 114.23 181.48C113.95 180.63 114 179.86 114.4 179.18L116.1 177.06L118.32 175.27L120.27 174.08L121.72 173.14L124.02 172.55L125.72 172.72L126.21 173.4C126.43 174.31 126.52 174.99 126.46 175.44C126.38 176.12 127.23 176.63 127.99 177.06C128.5 177.34 129.01 177.28 129.52 176.89L131.23 175.78C132.36 175.55 133.15 175.55 133.61 175.78C134.06 176.01 134.32 175.53 134.37 174.33C134.71 173.65 134.83 173.06 134.71 172.55C134.6 172.04 134.97 171.67 135.82 171.44C136.61 171.21 137.1 171.13 137.27 171.19C137.44 171.24 137.64 170.7 137.86 169.57L138.2 167.61L138.63 164.97L137.86 163.78L137.52 162.6L136.25 162.6C136.25 162.6 136.25 162.6 136.25 162.6C135.92 162.36 135.85 161.9 136.1 161.59C136.12 161.56 136.17 161.5 136.25 161.4L137.27 159.7C137.61 158.91 137.81 158.05 137.86 157.15C137.95 155.79 137.61 155.53 137.52 155.27C137.44 155.02 136.25 154.34 135.31 154.34C134.69 154.34 134 154.23 133.27 154L132.08 153.15C131.68 153.26 131.34 152.81 131.06 151.79C130.77 150.77 130.69 149.91 130.8 149.23L131.06 147.53L131.4 145.92L132.08 145.06L133.01 143.75L133.01 141.92C133.1 141.34 133.29 140.86 133.61 140.48C133.8 140.25 133.86 139.85 134.37 139.87C135.56 139.92 136.42 139.61 136.93 138.94L137.52 136.56L138.03 134.94C138.15 133.97 138.2 133.04 138.2 132.13C138.2 131.22 137.72 130.8 136.76 130.85L135.31 130.85L133.61 130.85C132.93 130.74 132.33 130.66 131.82 130.6C131.06 130.51 130.71 129.66 130.46 128.98C130.29 128.53 129.81 128.36 129.01 128.47L125.3 128.64L124.02 128.98L122.4 128.98L120.7 129.15L120.36 129.75L119.43 130.09L118.06 129.92L116.96 129.92L116.28 130.26L116.28 131.03L115.68 131.71L115 132.47C114.12 132.68 113.49 132.65 113.09 132.37C112.71 132.11 112.41 131.69 112.19 131.11L112.02 129.92C111.96 128.64 111.96 127.93 112.02 127.79C112.12 127.58 112.33 127.36 112.41 126.94C112.45 126.71 112.58 126.89 112.59 126.69C112.59 126.54 112.45 125.91 112.59 125.83C113.15 125.55 112.76 124.91 111.4 123.91C110.2 123.66 109.52 123.4 109.35 123.11C109.1 122.69 107.14 122.69 106.97 122.6C106.86 122.54 106.57 122.77 106.12 123.28L104.33 123.11L103.23 122.46L102.21 122.24L101.1 122.09L99.4 121.75L98.72 121.13L98.04 120.81L97.44 120.56L97.1 120.91L95.82 121.13L95.82 121.58L96.42 122.24L96.08 122.86L95.48 123.28L94.97 123.11L94.46 123.71L93.44 123.71L93 123.02C91.96 122.06 91.3 121.87 91 122.46C90.71 123.06 89.49 123.06 87.34 122.46L85.68 122.24L85.68 121.13L84.79 120.91L83.57 120.14L83.57 119.25L84.35 117.81L84.35 116.37L82.58 115.92L82.13 113.48L82.13 112.27L80.8 111.49L80.8 110.27L80.14 109.94L79.58 109.49L79.36 108.72L79.14 108.27C79.24 108.03 79.3 107.88 79.32 107.82C79.46 107.46 79.28 107.06 78.92 106.94C78.92 106.94 78.92 106.94 78.92 106.94L78.25 106.61L78.25 105.95L77.37 105.5L75.48 105.5L73.38 105.5L72.27 105.5L70.49 106.61L68.61 107.83L67.83 108.72C67.54 109.31 67.28 109.83 67.06 110.27C66.72 110.93 65.73 111.16 66.83 112.27C67.94 113.37 67.22 114.15 67.22 114.04C67.22 113.99 66.71 114.21 65.69 114.7C65.26 114.91 64.94 115.31 64.82 115.78C64.79 115.89 64.89 115.51 64.86 115.62C64.75 116.06 64.36 116.37 63.9 116.37C63.77 116.37 63.43 116.37 62.9 116.37L59.46 119.69C58.13 119.84 57.54 120.25 57.69 120.91C57.8 121.41 57.64 122.17 57.21 123.2C57.02 123.64 56.63 123.96 56.15 124.04C56 124.07 55.63 124.13 55.03 124.24C53.92 124.98 53.22 125.64 52.92 126.23C52.62 126.82 52.14 127.19 51.48 127.34C48.08 127.34 46.08 127.34 45.49 127.34C44.61 127.34 43.28 130.22 43.39 131.11C43.46 131.7 42.91 133.18 41.72 135.55C40.61 137.17 39.91 137.91 39.62 137.76C39.32 137.62 38.77 137.8 37.95 138.32C37.76 138.79 37.64 139.08 37.59 139.2C37.35 139.78 36.73 140.1 36.12 139.96C36.07 139.95 35.94 139.92 35.74 139.87L31.64 139.98C31.33 140.2 31.14 140.34 31.06 140.39C30.73 140.62 30.54 140.99 30.54 141.39C30.54 141.64 30.54 142.04 30.54 142.36C30.54 142.52 30.42 142.66 30.26 142.69C30.05 142.72 29.77 142.77 29.58 142.8C29.33 142.84 29.1 142.93 28.88 143.06C28.74 143.15 28.36 143.38 27.76 143.75C27.85 144.03 27.9 144.21 27.92 144.28C28.04 144.66 28.24 145.01 28.52 145.29C28.54 145.3 28.58 145.35 28.65 145.41L29.43 149.07C30.68 149.66 31.5 150.22 31.87 150.73C32.24 151.25 31.98 152.69 31.09 155.06L30.09 156.28L29.43 157.28L27.43 158.16C25.81 158.46 25.33 158.75 25.99 159.05C26.66 159.34 26.91 159.83 26.77 160.49L26.32 161.27L25.66 161.82L24.77 162.6L23.77 162.82L23.44 163.26L23.77 164.26L21.45 163.93L21.45 164.48C22.33 164.92 22.81 165.33 22.89 165.7C22.96 166.07 22.78 166.37 22.33 166.59C20.26 166.66 18.97 166.81 18.45 167.03C17.93 167.25 17.93 167.99 18.45 169.25C19.12 169.69 19.71 170.02 20.23 170.25C20.74 170.47 20.93 170.99 20.78 171.8L21.22 174.57C22.33 175.46 23.07 176.05 23.44 176.34C23.81 176.64 23.92 177.23 23.77 178.12L22.89 179.67L22.33 181.78L22.11 183.66C22.26 184.33 22.33 184.95 22.33 185.55C22.33 186.14 21.89 186.47 21 186.54L20.23 185.88C18.9 185.32 18.23 185.1 18.23 185.21C18.23 185.32 18.23 185.55 18.23 185.88L19.45 186.99L19.78 188.87L20.45 189.43L20.23 190.53L19.01 190.98C18.27 191.79 17.79 192.23 17.57 192.31C17.23 192.42 15.24 193.42 14.79 192.31C14.5 191.57 13.91 191.31 13.02 191.53C12.5 192.27 12.06 192.64 11.69 192.64C11.14 192.64 10.36 193.86 10.14 193.97C9.99 194.04 9.69 194.56 9.25 195.52L9.58 197.3L9.25 198.74L9.58 200.29L9.25 201.07L8.7 201.95C8.62 202.84 8.55 203.17 8.47 202.95C8.4 202.73 7.85 202.88 6.81 203.39L5.92 204.95C5.63 205.54 5.33 205.91 5.04 206.05C4.74 206.2 4.45 206.79 4.15 207.83L4.15 211.27C4.42 212.69 4.6 213.58 4.66 213.93C4.69 214.06 4.8 214.15 4.93 214.15C5.32 214.17 6.31 214.19 7.9 214.24Z" id="province07">			
		</path>
	</defs>
	<g><g>
		<g>
			<use xlink:href="#province07"></use>
		</g>
	</g></g>
</svg>