<!-- 
	If you find my work useful in any of your projects and want to use it, you are free
	to use, but please appreciate my work and give a reference.

	Author: Dipesh Bajgain
	Email: dipbazz@gmail.com
	Facebook: facebook.com/dipbazz
-->

<svg version="1.1" xmlns="http://www.w3.org/2000/svg" xmlns:xlink="http://www.w3.org/1999/xlink" preserveAspectRatio="xMidYMid meet" viewBox="76.66662617128502 88.99906262937573 211.5987762292475 180.99109939847966" width="207.6" height="176.99">
	<defs>
		<style>
			#province06{
				opacity: 1;
				fill: #cccccc;
				fill-opacity: 1;
				stroke-width: 0.6px;
				stroke-opacity: 1;
				stroke: #000000;
			}
		</style>
		<path d="M273.07 183.49C271.87 182.34 271.11 181.62 270.81 181.34C270.59 181.12 270.27 181.04 269.97 181.11C269.79 181.15 269.69 181.18 269.5 181.22C269.25 181.28 268.99 181.18 268.84 180.97C268.68 180.73 268.26 180.12 267.6 179.16C267.6 177.32 267.6 176.17 267.6 175.71C267.6 175.51 267.49 175.34 267.32 175.25C266.94 175.05 266.19 174.66 265.84 174.48C265.59 174.35 265.43 174.09 265.42 173.81C265.39 172.94 265.32 170.81 265.29 169.95C265.28 169.68 265.06 169.46 264.79 169.46C264.5 169.46 263.76 169.46 262.58 169.46C261.06 167.38 260.11 166.08 259.73 165.55C259.59 165.36 259.56 165.11 259.66 164.9C259.7 164.81 259.8 164.58 259.96 164.22L259.28 163.42C256.8 163.42 255.26 163.42 254.64 163.42C254.41 163.42 254.2 163.28 254.11 163.07C253.8 162.32 252.97 160.33 252.65 159.56C252.59 159.41 252.62 159.24 252.73 159.12C253.79 158 254.11 157.42 253.69 157.39C251.79 157.23 251.08 157.17 251.58 157.21C251.12 157.17 250.72 156.89 250.54 156.47C250.47 156.32 250.31 155.94 250.04 155.33C249.45 155.25 249.08 155.21 248.93 155.19C248.48 155.13 248.03 155.29 247.73 155.63C247.68 155.68 247.56 155.81 247.37 156.01C247.02 156.01 246.79 156.01 246.7 156.01C246.12 156.01 245.63 155.6 245.51 155.03C245.46 154.77 245.38 154.37 245.3 153.96C245.27 153.84 245.15 153.76 245.02 153.79C244.41 153.97 242.89 154.4 240.46 155.1L238.75 155.1L236.47 153.39L235.9 151.9L233.73 150.65L229.52 150.88C229.12 150.59 228.87 150.41 228.78 150.34C228.47 150.12 228.34 149.72 228.45 149.36C228.79 148.24 228.73 147.69 228.26 147.69C227.29 147.69 225.4 147.69 224.69 147.69C224.5 147.69 224.31 147.77 224.2 147.93C224.07 148.08 224 148.18 223.9 148.31C223.7 148.57 223.4 148.72 223.08 148.75C222.7 148.77 221.77 148.84 220.28 148.94C219.97 148.78 219.77 148.69 219.7 148.65C219.34 148.47 219.07 148.16 218.93 147.78C218.81 147.44 218.67 147.03 218.55 146.7C218.42 146.32 218.1 146.05 217.71 145.99C217.09 145.9 215.64 145.67 214.97 145.57C214.77 145.54 214.61 145.4 214.55 145.21C214.37 144.68 213.91 143.29 213.72 142.73C213.69 142.63 213.59 142.56 213.48 142.56C212.5 142.61 210.01 142.72 209.1 142.76C208.84 142.77 208.64 142.55 208.68 142.3C208.71 142.13 208.77 141.73 208.88 141.07C208.87 140.09 209.02 139.6 209.32 139.6C209.78 139.6 210.65 139.6 210.98 139.6C211.09 139.6 211.19 139.55 211.26 139.47C211.35 139.37 211.58 139.11 211.95 138.69C211.41 137.78 211.15 137.32 211.15 137.32C210.09 136.49 210.61 136.53 209.32 136.31C208.96 136.25 208.49 136.64 207.99 136.74C206.91 136.95 205.65 137.09 204.86 137.32C204.75 137.35 204.49 137.43 204.08 137.55C203.61 137.08 203.31 136.78 203.19 136.66C202.92 136.39 202.91 135.96 203.16 135.67C203.44 135.36 203.9 134.84 204.2 134.51C204.35 134.34 204.26 134.08 204.04 134.03C203.86 134 203.42 133.92 202.71 133.79C201.86 132.23 201.33 131.26 201.12 130.87C201.02 130.69 200.85 130.57 200.65 130.52C200.4 130.47 199.97 130.37 199.72 130.32C199.52 130.28 199.37 130.13 199.31 129.94C199.18 129.52 198.86 128.45 198.73 128C198.7 127.91 198.64 127.83 198.55 127.79C198.17 127.62 197.42 127.28 197.1 127.14C196.84 127.02 196.52 127.06 196.29 127.25C196.08 127.42 195.56 127.85 194.73 128.54C194.18 128.58 193.84 128.61 193.71 128.62C193.47 128.64 193.23 128.55 193.07 128.37C192.85 128.12 192.3 127.49 191.42 126.49C189.52 125.2 188.23 124.32 187.54 123.86C186.86 123.41 186.09 123.1 185.23 122.95C184.83 123.19 184.58 123.34 184.48 123.4C184.25 123.54 183.95 123.51 183.76 123.33C183.43 123.02 182.6 122.25 181.27 121.01C180.93 120.95 180.72 120.9 180.63 120.89C180.33 120.83 180.02 120.95 179.84 121.2C179.78 121.28 179.77 121.29 179.68 121.42C179.61 121.52 179.48 121.58 179.36 121.57C179.08 121.55 178.75 121.53 178.55 121.51C178.18 121.49 177.85 121.29 177.65 120.98C177.52 120.78 177.21 120.3 176.71 119.53L174.43 119.19L168.84 119.53C168.12 119.05 167.66 118.74 167.48 118.62C167.3 118.5 167.28 118.25 167.43 118.11C167.81 117.75 168.74 116.87 169.14 116.49C169.22 116.42 169.2 116.29 169.1 116.24C168.12 115.73 167.81 115.27 168.16 114.86C169.76 112.96 170.38 112.21 170.03 112.62C170.24 112.38 170.07 112.01 169.75 112.01C169.57 112.01 169.44 112.01 169.17 112.01C168.99 112.01 168.84 111.86 168.84 111.68C168.84 111.29 168.84 110.55 168.84 110.19C168.84 109.92 168.65 109.69 168.39 109.63C167.93 109.54 167.1 109.36 166.67 109.27C166.31 109.2 165.99 108.99 165.77 108.69C165.59 108.43 165.13 107.79 164.4 106.76C163.56 106.27 163.04 105.96 162.84 105.84C162.73 105.78 162.68 105.65 162.71 105.53C162.82 105.19 163.07 104.35 163.48 103C163.75 101.37 163.91 100.35 163.98 99.95C164.03 99.63 163.97 99.31 163.81 99.04C163.65 98.78 163.27 98.12 162.65 97.07C161.74 96.74 161.18 96.54 160.95 96.46C160.83 96.41 160.7 96.46 160.63 96.57C160.4 96.92 159.84 97.79 159.61 98.14C159.54 98.25 159.41 98.3 159.29 98.26C157.81 97.85 156.92 97.75 156.61 97.98C155.26 98.97 154.71 99.37 154.96 99.19C154.74 99.36 154.44 99.36 154.22 99.2C153.61 98.78 152.09 97.72 151.47 97.28C151.27 97.14 151.04 97.07 150.8 97.07C150.01 97.07 148.05 97.07 147.27 97.07C146.99 97.07 146.72 96.97 146.51 96.8C146.2 96.54 145.44 95.91 144.21 94.9L139.77 94.33C137.36 94.12 135.86 93.99 135.26 93.93C134.87 93.9 134.52 93.67 134.32 93.33C134.24 93.19 134.04 92.84 133.72 92.28L131.9 91.71L130.42 91.25L127.11 90.11C126.12 89.89 125.7 90 125.86 90.46C126.01 90.91 125.67 91.44 124.83 92.05C123.66 92.01 122.89 92.01 122.52 92.05C121.95 92.11 121.21 89.43 120.27 92.28C120.02 93.04 120.51 93.68 120.46 94.21C120.4 94.84 120.36 95.26 120.32 95.48C120.29 95.68 120.13 95.83 119.93 95.85C119.52 95.89 118.51 95.98 118.07 96.02C117.95 96.03 117.84 95.97 117.8 95.86C117.71 95.67 117.58 95.36 117.51 95.19C117.43 95.02 117.26 94.9 117.07 94.9C116.63 94.9 116.11 94.9 115.8 94.9C115.21 94.9 114.66 94.64 114.3 94.18C114.19 94.05 113.93 93.72 113.51 93.19L111.83 92.28L109.06 91.71C108.86 91.93 108.73 92.06 108.68 92.11C108.6 92.2 108.61 92.34 108.7 92.42C108.95 92.61 109.58 93.1 110.58 93.88C110.63 94.16 110.66 94.33 110.68 94.4C110.73 94.7 110.59 95 110.32 95.13C110.08 95.25 109.48 95.56 108.52 96.04C108.41 97.44 108.34 98.31 108.31 98.66C108.3 98.8 108.38 98.93 108.51 98.98C108.67 99.05 109.05 99.21 109.66 99.46C109.76 100.09 109.82 100.49 109.85 100.65C109.87 100.83 109.79 101.01 109.63 101.1C109.46 101.21 109.29 101.31 109.14 101.4C108.96 101.51 108.94 101.77 109.12 101.9C109.23 101.99 109.14 101.92 109.24 101.99C109.48 102.18 109.54 102.51 109.39 102.77C109.24 103.02 108.88 103.62 108.29 104.59L107.95 105.73C108.19 106.63 108.33 107.19 108.39 107.41C108.47 107.69 108.33 107.99 108.06 108.12C107.69 108.3 107.24 108.61 106.7 109.04C106 109.61 104.59 110.75 102.48 112.46L100.09 112.35C99.1 112.5 98.49 112.59 98.24 112.62C98.07 112.65 98.01 112.87 98.14 112.98C99.25 113.95 99.78 114.69 99.74 115.2C99.7 115.79 99.61 116.97 99.48 118.73C99.38 119.12 99.31 119.35 99.29 119.45C99.2 119.75 99.37 120.07 99.67 120.17C99.81 120.22 100.18 120.35 100.77 120.56C102.88 121.24 104.2 121.67 104.73 121.85C105.1 121.97 105.52 121.89 105.82 121.64C105.89 121.59 106.06 121.46 106.32 121.24L108.29 121.47L112.37 122.95L113.88 124.32L114.22 126.03L113.08 128.54C113.31 129.91 113.58 130.82 113.88 131.28C114.19 131.73 114.52 131.5 114.88 130.59L115.45 129.22L116.28 129L119.01 128.88L120.12 127.97L120.61 127.86L124.83 127.63C129.01 127.36 131.18 127.36 131.33 127.63C131.94 128.69 132.18 129.11 132.05 128.9C132.17 129.1 132.38 129.24 132.62 129.27C135.9 129.69 137.79 129.87 138.28 129.79C138.82 129.72 139.19 130.1 139.39 130.93L139.77 132.99C139.16 137.55 138.54 140.02 137.91 140.4C137.37 140.72 136.44 141.03 135.12 141.32C134.83 141.38 134.61 141.62 134.58 141.91C134.55 142.29 134.45 143.23 134.29 144.73C133.38 145.19 132.77 146.25 132.47 147.92C132.16 149.6 132.32 150.81 132.92 151.57C132.92 152.11 133.76 152.52 135.43 152.83C137.11 153.13 138.13 153.59 138.51 154.2C139.12 155.49 139.46 156.55 139.54 157.39C139.61 158.18 139.11 159.45 138.03 161.19C137.96 161.3 137.99 161.43 138.1 161.5C138.17 161.54 138.34 161.66 138.63 161.84L139.99 164.34L139.77 168.91L138.63 172.1C138.37 172.48 138.13 172.67 137.91 172.67C137.69 172.67 137.24 172.67 136.57 172.67L136.08 173.24C135.53 174.9 135.18 175.94 135.04 176.36C134.93 176.68 134.64 176.89 134.31 176.89C134.23 176.89 134.03 176.89 133.72 176.89C132.86 176.89 132.32 176.89 132.11 176.89C131.97 176.89 131.84 176.94 131.75 177.03C131.2 177.57 130.75 177.94 130.42 178.14C130.04 178.37 129.16 178.45 127.79 178.37L125.63 176.89L125.06 175.63C124.96 174.95 124.9 174.52 124.87 174.35C124.85 174.18 124.69 174.06 124.51 174.09C124.37 174.11 124.02 174.17 123.46 174.26L120.12 176.09C116.49 178.14 114.98 179.78 115.59 180.99C116.2 182.21 116.2 183.35 115.59 184.41C115.53 185.56 115.49 186.28 115.48 186.56C115.46 186.94 115.57 187.32 115.8 187.62C115.88 187.72 116.08 187.99 116.39 188.4L118.75 188.97C118.8 189.3 118.84 189.5 118.85 189.58C118.88 189.77 119.02 189.91 119.2 189.95C120.04 190.14 120.46 190.42 120.46 190.8C120.46 191.48 121.18 192.48 120.12 193.19C119.42 193.67 118.32 194.5 116.81 195.7L114.22 196.73C113.08 197.57 112.35 198.15 112.03 198.47C111.7 198.79 111.06 199.44 110.09 200.41L110.31 201.78C110.65 202.73 110.86 203.32 110.94 203.56C110.98 203.66 111.06 203.73 111.17 203.75C111.28 203.78 111.57 203.84 112.03 203.94L112.25 204.4L112.71 205.54L113.51 206.22L116.81 209.87L118.41 211.7L119.44 214.78L121.03 216.72L122.52 218.65L123.2 220.36C122.93 220.85 122.77 221.16 122.7 221.28C122.59 221.49 122.37 221.63 122.13 221.64C121.73 221.66 120.71 221.7 120.26 221.73C120.18 221.73 120.11 221.79 120.08 221.87C120.04 222 120.04 222.01 120.02 222.08C119.94 222.35 119.71 222.55 119.43 222.59C119.26 222.61 118.85 222.67 118.18 222.76C118.1 222.73 118.04 222.72 118.02 222.71C117.62 222.6 117.29 222.31 117.12 221.92C117.11 221.88 117.36 222.48 117.36 222.47C117.36 222.47 116.79 220.97 116.79 220.97C116.76 220.89 116.69 220.69 116.59 220.36L115.9 219L115.45 217.86L114.88 216.72L114.08 215.57C113.92 215.42 113.83 215.32 113.79 215.29C113.46 214.96 113.02 214.78 112.56 214.78C112.52 214.78 112.72 214.78 112.57 214.78C112.44 214.78 112.32 214.72 112.23 214.62C112.16 214.53 111.98 214.32 111.68 213.98L111.11 212.5L111.11 211.7C110.96 211.23 110.86 210.93 110.82 210.82C110.79 210.72 110.72 210.65 110.63 210.61C110.32 210.46 109.74 210.19 109.49 210.07C109.21 209.94 108.9 209.93 108.62 210.02C108.45 210.08 108.03 210.22 107.35 210.44L105.75 211.7L103.59 211.7L102.68 210.9L101.88 209.87C101.1 209.21 100.6 208.9 100.39 208.96C100.19 209.02 99.77 209.13 99.14 209.3L98 210.22L96.86 210.22L95.72 209.87L95.26 209.87L93.44 210.22L91.16 209.87L89.22 208.96L85.57 206.45L84.09 205.65L82.15 205.31L80.9 204.97L79.64 205.65C78.63 205.76 78 205.83 77.74 205.85C77.66 205.86 77.64 205.97 77.71 206.01C77.82 206.07 78.08 206.22 78.5 206.45L79.64 207.82C80.08 208.65 80.36 209.17 80.47 209.38C80.53 209.48 80.61 209.56 80.71 209.6C80.95 209.72 81.55 210 82.51 210.44L83.97 211.7C84.36 211.77 84.6 211.82 84.69 211.84C84.95 211.89 85.22 211.8 85.38 211.59C85.41 211.56 85.47 211.48 85.57 211.36L86.14 210.67L87.4 210.44L88.42 210.67C88.88 211.3 89.11 211.72 89.11 211.93C89.11 212.24 89.11 212.8 89.11 213.02C89.11 213.11 89.18 213.18 89.27 213.18C89.42 213.18 89.57 213.18 89.68 213.18C89.9 213.18 90.11 213.25 90.28 213.39C90.37 213.45 90.4 213.48 90.5 213.55C90.59 213.62 90.72 213.57 90.74 213.46C90.78 213.22 90.84 212.86 90.87 212.64C90.91 212.41 91.06 212.21 91.28 212.12C91.37 212.08 91.37 212.08 91.48 212.03C91.64 211.96 91.82 211.93 92 211.93C92.11 211.93 92.4 211.93 92.87 211.93L94.47 213.18L95.26 214.43L95.72 216.14L96.29 218.43L97.32 220.71L98.23 221.73C98.53 222.18 98.71 222.46 98.79 222.57C98.86 222.69 98.88 222.84 98.82 222.97C98.75 223.13 98.63 223.39 98.56 223.55C98.5 223.69 98.53 223.85 98.65 223.95C98.76 224.05 99.04 224.3 99.48 224.7C99.94 226.01 100.24 226.88 100.39 227.32C100.48 227.58 100.68 227.68 100.99 227.62C101.26 227.58 101.54 227.66 101.73 227.86C101.75 227.88 101.8 227.92 101.88 228L102.1 229.03C102.1 229.37 102.1 229.58 102.1 229.66C102.1 229.91 102.24 230.13 102.45 230.25C102.54 230.3 102.77 230.42 103.13 230.63L104.5 230.85L106.32 231.65L107.81 232.45L109.06 233.82L111.11 235.87L113.51 236.67L116.59 238.72L117.73 239.75L118.75 239.98C119.01 240.44 119.17 240.73 119.23 240.84C119.29 240.94 119.39 241.02 119.5 241.04C119.67 241.08 120.11 241.18 120.81 241.34L123.2 243.06L128.45 247.27L131.18 248.07L133.23 249.55L136.08 250.12L136.88 250.69L137.11 251.61L136.31 253.66C136.1 254.4 135.97 254.87 135.91 255.06C135.88 255.17 135.94 255.3 136.04 255.35C136.29 255.47 136.91 255.78 137.91 256.28L138.94 257.08C139.08 257.41 139.18 257.62 139.21 257.7C139.32 257.95 139.56 258.11 139.83 258.11C140.14 258.11 140.9 258.11 142.13 258.11L143.84 259.13C144.15 259.9 144.34 260.38 144.42 260.58C144.48 260.74 144.63 260.86 144.81 260.89C145.12 260.95 145.9 261.08 147.15 261.3L153.19 265.06C154.12 266.04 154.7 266.66 154.93 266.9C155.07 267.05 155.32 267 155.39 266.81C155.46 266.61 155.64 266.1 155.93 265.29L156.61 264.72L157.29 262.55L157.64 261.87L161.4 260.39L162.65 259.7C163.95 259.63 164.78 259.74 165.16 260.05C165.54 260.35 165.92 260.62 166.3 260.84L167.9 260.39L172.92 260.39L175.65 260.39C176.56 260.39 177.13 260.39 177.36 260.39C177.59 260.39 178.58 261 180.33 262.21L181.92 262.78C182.89 263.58 183.54 264.11 183.86 264.38C184.12 264.59 184.53 264.92 185.11 265.37C185.27 265.48 185.49 265.39 185.52 265.2C185.56 264.92 185.65 264.23 185.8 263.12L187.28 261.87C187.45 261.66 187.56 261.53 187.6 261.48C187.67 261.38 187.65 261.24 187.55 261.18C187.36 261.06 186.89 260.76 186.14 260.27L183.41 256.05C183.08 255.13 182.88 254.56 182.8 254.33C182.75 254.2 182.77 254.05 182.86 253.94C182.77 254.06 183.1 253.62 183.86 252.63C184.05 252.39 184.13 252.04 184.09 251.61L182.49 249.21L181.92 247.27L183.18 246.48L184.32 244.54L185.23 243.63C185.76 241.71 186.14 240.34 186.37 239.52C186.71 238.29 189.88 238.92 191.05 238.72C191.82 238.59 192.05 238.44 191.73 238.27L194.12 236.67L195.95 236.1L197.89 234.5L198.69 234.28C198.85 234.19 198.95 234.14 198.99 234.12C199.24 234 199.24 233.64 198.99 233.52C198.76 233.4 198.19 233.13 197.29 232.68L195.15 232.22L193.67 231.42C192.95 230.37 192.5 229.71 192.31 229.45C192.23 229.33 192.2 229.18 192.23 229.03C192.33 228.46 192.7 228.12 193.33 228C194.05 227.87 194.92 227.98 195.95 228.35L198.23 229.03L200.97 226.86L201.54 225.38C201.28 224.57 201.13 224.07 201.06 223.86C201 223.67 200.84 223.53 200.65 223.49C200.27 223.42 199.77 223.32 199.14 223.21C198.38 223.08 198.08 222.25 198.23 220.71L198.69 219.68L202.33 216.72L203.93 213.37L205.18 212.15L206.1 212.15L206.9 212.95L208.61 213.18L210.09 213.37L213.05 213.71L214.31 215.8L214.65 216.37L216.36 215.57L218.87 214.78L223.32 214.78C225.6 215 227.12 215.16 227.88 215.23C228.64 215.31 229.32 215.5 229.93 215.8L231.3 216.94L236.2 218.2L239.51 218.65L240.08 219C240.86 220.04 241.35 220.69 241.55 220.95C241.7 221.16 241.93 221.29 242.19 221.3C242.88 221.34 244.61 221.45 247.37 221.62C247.73 221.78 247.95 221.88 248.04 221.92C248.57 222.17 249.17 222.24 249.75 222.14C249.87 222.11 250.18 222.05 250.68 221.96L252.39 222.3L256.38 222.53L261.17 221.96L263.57 219.91L265.28 220.36L268.01 219.34C269.08 218.91 269.74 218.65 270.01 218.54C270.17 218.47 270.27 218.3 270.23 218.12C270.15 217.73 270 216.96 269.93 216.59C269.87 216.3 269.87 215.99 269.93 215.7C269.98 215.47 270.1 214.9 270.29 213.98L271.21 213.52L272 211.36L275.65 207.71L276.79 206.22L279.07 203.72C279.76 203.43 280.21 203.24 280.44 203.15C280.67 203.05 280.67 201.68 280.44 199.04L280.9 196.99C281.17 196.76 281.34 196.62 281.41 196.56C281.51 196.48 281.52 196.34 281.45 196.24C281.37 196.14 281.19 195.9 280.9 195.51C280.9 194.83 280.9 194.4 280.9 194.23C280.9 194.04 281.03 193.88 281.21 193.84C281.43 193.79 281.97 193.66 282.84 193.45L284.09 192.54C284.6 192.4 284.92 192.32 285.05 192.28C285.21 192.24 285.3 192.07 285.25 191.9C285.09 191.39 284.77 190.4 284.63 189.95C284.51 189.6 284.17 189.37 283.8 189.4C283.7 189.41 283.46 189.43 283.06 189.46C282.78 189.64 282.61 189.75 282.54 189.79C282.31 189.93 282.02 189.9 281.83 189.71C281.71 189.59 281.4 189.28 280.9 188.78C279.64 188.67 278.85 188.61 278.53 188.58C278.3 188.56 278.1 188.42 278 188.21C277.88 187.94 277.59 187.32 277.44 187.01C277.39 186.9 277.29 186.83 277.18 186.82C276.68 186.77 275.66 186.67 275.23 186.63C274.88 186.59 274.57 186.38 274.41 186.07C274.23 185.72 273.79 184.86 273.07 183.49Z" id="province06">
		</path>
	</defs>
	<g><g>
		<g>
			<use xlink:href="#province06"></use>
		</g>
	</g></g>
</svg>